<?xml version="1.0" encoding="utf-8"?>
<!-- Generator: Adobe Illustrator 21.0.0, SVG Export Plug-In . SVG Version: 6.00 Build 0)  -->
<svg version="1.1" id="Layer_1" xmlns="http://www.w3.org/2000/svg" xmlns:xlink="http://www.w3.org/1999/xlink" x="0px" y="0px"
	 viewBox="0 0 450 80" enable-background="new 0 0 450 80" xml:space="preserve">
<g>
	
		<linearGradient id="SVGID_1_" gradientUnits="userSpaceOnUse" x1="697.4746" y1="774.014" x2="733.3125" y2="774.014" gradientTransform="matrix(4.9146 0 0 4.0321 -3345.1824 -3089.0029)">
		<stop  offset="0" style="stop-color:#1B75BC"/>
		<stop  offset="0.2086" style="stop-color:#0093D6"/>
		<stop  offset="0.3917" style="stop-color:#00AEEF"/>
		<stop  offset="0.5858" style="stop-color:#00AEEF"/>
		<stop  offset="0.6166" style="stop-color:#00A8E9"/>
		<stop  offset="0.798" style="stop-color:#008ED1"/>
		<stop  offset="0.9308" style="stop-color:#007CC2"/>
		<stop  offset="1" style="stop-color:#1B75BC"/>
	</linearGradient>
	<rect x="82.65" y="30.794" fill="url(#SVGID_1_)" width="176.13" height="2.189"/>
	<g>
		
			<linearGradient id="SVGID_2_" gradientUnits="userSpaceOnUse" x1="685.7653" y1="773.65" x2="697.876" y2="773.65" gradientTransform="matrix(4.9146 0 0 4.0321 -3345.1824 -3089.0029)">
			<stop  offset="0" style="stop-color:#1B75BC"/>
			<stop  offset="0.2086" style="stop-color:#0093D6"/>
			<stop  offset="0.3917" style="stop-color:#00AEEF"/>
			<stop  offset="0.5858" style="stop-color:#00AEEF"/>
			<stop  offset="0.6166" style="stop-color:#00A8E9"/>
			<stop  offset="0.798" style="stop-color:#008ED1"/>
			<stop  offset="0.9308" style="stop-color:#007CC2"/>
			<stop  offset="1" style="stop-color:#1B75BC"/>
		</linearGradient>
		<path fill="url(#SVGID_2_)" d="M84.623,29.634c-8.483-5.912-17.413-7.879-26.735-3.42C51.212,29.41,46.671,36.752,39.41,37.919
			c-5.133,0.827-12.484-1.463-13.992-8.285c-2.377-10.761,9.583-5.593,5.227-2.293c-0.217-0.703-0.776-1.345-1.028-2.351
			c-0.886-0.042-1.469,0.083-2.277,0.602c-0.298,5.89,6.999,9.604,11.11,8.791c4.466-0.882,9.027-4.306,13.089-6.67
			c9.095-5.296,20.001-7.098,28.708-1.628L84.623,29.634z"/>
		
			<linearGradient id="SVGID_3_" gradientUnits="userSpaceOnUse" x1="684.4434" y1="774.0676" x2="697.6786" y2="774.0676" gradientTransform="matrix(4.9146 0 0 4.0321 -3345.1824 -3089.0029)">
			<stop  offset="0" style="stop-color:#1B75BC"/>
			<stop  offset="0.2086" style="stop-color:#0093D6"/>
			<stop  offset="0.3917" style="stop-color:#00AEEF"/>
			<stop  offset="0.5858" style="stop-color:#00AEEF"/>
			<stop  offset="0.6166" style="stop-color:#00A8E9"/>
			<stop  offset="0.798" style="stop-color:#008ED1"/>
			<stop  offset="0.9308" style="stop-color:#007CC2"/>
			<stop  offset="1" style="stop-color:#1B75BC"/>
		</linearGradient>
		<path fill="url(#SVGID_3_)" d="M82.679,30.82c-7.378-5.828-13.807-5.2-21.392-1.778c-5.566,2.514-9.564,8.178-15.072,10.653
			c-5.023,2.256-12.953,2.13-17.501-1.627c-3.778-3.13-9.991-11.291-5.786-16.719c-3.519-4.536-4.955,3.429-4.065,6.638
			c0.805,2.932,4.214,7.873,6.521,9.078c-1.708,0.006-3.771-0.792-5.356-2.016c3.467,4.674,8.002,5.162,12.42,6.869
			c-1.055,0.279-2.015,1.032-3.102,1.358c13.034,4.009,19.788-5.731,30.797-10.728c-2.348,2.193-3.975,5.251-5.709,8.094
			c7.727-8.927,19.367-15.829,29.219-8.641L82.679,30.82z"/>
		
			<linearGradient id="SVGID_4_" gradientUnits="userSpaceOnUse" x1="692.9199" y1="776.2972" x2="697.876" y2="776.2972" gradientTransform="matrix(4.9146 0 0 4.0321 -3345.1824 -3089.0029)">
			<stop  offset="0" style="stop-color:#1B75BC"/>
			<stop  offset="0.2086" style="stop-color:#0093D6"/>
			<stop  offset="0.3917" style="stop-color:#00AEEF"/>
			<stop  offset="0.5858" style="stop-color:#00AEEF"/>
			<stop  offset="0.6166" style="stop-color:#00A8E9"/>
			<stop  offset="0.798" style="stop-color:#008ED1"/>
			<stop  offset="0.9308" style="stop-color:#007CC2"/>
			<stop  offset="1" style="stop-color:#1B75BC"/>
		</linearGradient>
		<path fill="url(#SVGID_4_)" d="M82.19,33.184c-3.043-2.5-7.206-2.687-9.842,0.447c-1.928,2.292-1.145,4.517-2.177,7.279
			c-2.312,6.196-7.578,3.042-9.907,8.255c0.948,1.433,1.811,1.872,3.377,1.693c-0.029-0.132,0.039-1.362,0.062-1.435
			c-0.016-0.012,0.288,0.394,0.297,0.382c-0.365-0.365-1.015-1.036-1.326-1.215c3.047-3.414,5.35,2.558,8.82,0.443
			c3.431-2.091,1.19-7.517,4.68-9.409c-1.381,2.502-0.912,5.078-1.226,7.647c7.287,1.9,0.356-15.855,9.674-13.492L82.19,33.184z"/>
		
			<linearGradient id="SVGID_5_" gradientUnits="userSpaceOnUse" x1="692.604" y1="775.6403" x2="695.3647" y2="775.6403" gradientTransform="matrix(4.9146 0 0 4.0321 -3345.1824 -3089.0029)">
			<stop  offset="0" style="stop-color:#1B75BC"/>
			<stop  offset="0.2086" style="stop-color:#0093D6"/>
			<stop  offset="0.3917" style="stop-color:#00AEEF"/>
			<stop  offset="0.5858" style="stop-color:#00AEEF"/>
			<stop  offset="0.6166" style="stop-color:#00A8E9"/>
			<stop  offset="0.798" style="stop-color:#008ED1"/>
			<stop  offset="0.9308" style="stop-color:#007CC2"/>
			<stop  offset="1" style="stop-color:#1B75BC"/>
		</linearGradient>
		<path fill="url(#SVGID_5_)" d="M72.28,30.782c-4.217,2.965-2.924,6.704-5.265,10.555c-2.177,3.567-5.99,2.012-8.303,4.772
			c0.586-2.851,1.19-6.832,2.791-9.112c1.601-2.276,4.509-2.931,6.433-4.674c-1.339,1.677-2.358,3.526-2.478,5.838
			c0.87-2.402,3.167-5.408,5.201-5.802L72.28,30.782z"/>
		
			<linearGradient id="SVGID_6_" gradientUnits="userSpaceOnUse" x1="690.7324" y1="778.421" x2="692.4632" y2="778.421" gradientTransform="matrix(4.9146 0 0 4.0321 -3345.1824 -3089.0029)">
			<stop  offset="0" style="stop-color:#1B75BC"/>
			<stop  offset="0.2086" style="stop-color:#0093D6"/>
			<stop  offset="0.3917" style="stop-color:#00AEEF"/>
			<stop  offset="0.5858" style="stop-color:#00AEEF"/>
			<stop  offset="0.6166" style="stop-color:#00A8E9"/>
			<stop  offset="0.798" style="stop-color:#008ED1"/>
			<stop  offset="0.9308" style="stop-color:#007CC2"/>
			<stop  offset="1" style="stop-color:#1B75BC"/>
		</linearGradient>
		<path fill="url(#SVGID_6_)" d="M58.021,38.673c-2.908,4.404-0.705,8.854-2.028,13.012c-1.184,3.727-4.638,5.134-5.437,8.958
			c-2.309-7.017-0.537-13.482,2.947-19.06c-0.773,2.333-1.459,5.558-0.656,7.992C53.674,45.595,55.194,41.353,58.021,38.673
			L58.021,38.673z"/>
		
			<linearGradient id="SVGID_7_" gradientUnits="userSpaceOnUse" x1="688.3178" y1="778.1848" x2="691.3464" y2="778.1848" gradientTransform="matrix(4.9146 0 0 4.0321 -3345.1824 -3089.0029)">
			<stop  offset="0" style="stop-color:#1B75BC"/>
			<stop  offset="0.2086" style="stop-color:#0093D6"/>
			<stop  offset="0.3917" style="stop-color:#00AEEF"/>
			<stop  offset="0.5858" style="stop-color:#00AEEF"/>
			<stop  offset="0.6166" style="stop-color:#00A8E9"/>
			<stop  offset="0.798" style="stop-color:#008ED1"/>
			<stop  offset="0.9308" style="stop-color:#007CC2"/>
			<stop  offset="1" style="stop-color:#1B75BC"/>
		</linearGradient>
		<path fill="url(#SVGID_7_)" d="M51.216,39.067c-3.331,2.227-7.002,4.944-9.962,7.598c-3.516,3.152-3.095,6.956-3.606,11.679
			c7.972-1.611,10.605-11.622,14.884-19.129c-2.477,3.176-5.835,5.716-7.979,8.988c1.268-2.797,3.364-4.863,4.716-7.556
			L51.216,39.067z"/>
		
			<linearGradient id="SVGID_8_" gradientUnits="userSpaceOnUse" x1="684.8069" y1="778.4215" x2="688.9016" y2="778.4215" gradientTransform="matrix(4.9146 0 0 4.0321 -3345.1824 -3089.0029)">
			<stop  offset="0" style="stop-color:#1B75BC"/>
			<stop  offset="0.2086" style="stop-color:#0093D6"/>
			<stop  offset="0.3917" style="stop-color:#00AEEF"/>
			<stop  offset="0.5858" style="stop-color:#00AEEF"/>
			<stop  offset="0.6166" style="stop-color:#00A8E9"/>
			<stop  offset="0.798" style="stop-color:#008ED1"/>
			<stop  offset="0.9308" style="stop-color:#007CC2"/>
			<stop  offset="1" style="stop-color:#1B75BC"/>
		</linearGradient>
		<path fill="url(#SVGID_8_)" d="M38.246,44.591c-7.817,0-12.132,2.593-17.853,8.877c7.591,4.109,13.83-2.699,19.435-8.017
			c-2.229,1.104-5.104,0.539-7.284,1.943c2.316-1.827,6.152-1.931,7.972-2.804H38.246z"/>
		
			<linearGradient id="SVGID_9_" gradientUnits="userSpaceOnUse" x1="683.7644" y1="776.642" x2="686.6588" y2="776.642" gradientTransform="matrix(4.9146 0 0 4.0321 -3345.1824 -3089.0029)">
			<stop  offset="0" style="stop-color:#1B75BC"/>
			<stop  offset="0.2086" style="stop-color:#0093D6"/>
			<stop  offset="0.3917" style="stop-color:#00AEEF"/>
			<stop  offset="0.5858" style="stop-color:#00AEEF"/>
			<stop  offset="0.6166" style="stop-color:#00A8E9"/>
			<stop  offset="0.798" style="stop-color:#008ED1"/>
			<stop  offset="0.9308" style="stop-color:#007CC2"/>
			<stop  offset="1" style="stop-color:#1B75BC"/>
		</linearGradient>
		<path fill="url(#SVGID_9_)" d="M27.227,41.435c-4.78-3.908-7.264-0.796-11.957,0.475c4.813,5.156,7.83,3.327,13.303,2.681
			c-0.867-0.376-2.901-1.851-4.147-2.792c1.501,0.583,3.985,0.754,5.068,0.423L27.227,41.435z"/>
		
			<linearGradient id="SVGID_10_" gradientUnits="userSpaceOnUse" x1="682.2647" y1="774.4706" x2="684.9379" y2="774.4706" gradientTransform="matrix(4.9146 0 0 4.0321 -3345.1824 -3089.0029)">
			<stop  offset="0" style="stop-color:#1B75BC"/>
			<stop  offset="0.2086" style="stop-color:#0093D6"/>
			<stop  offset="0.3917" style="stop-color:#00AEEF"/>
			<stop  offset="0.5858" style="stop-color:#00AEEF"/>
			<stop  offset="0.6166" style="stop-color:#00A8E9"/>
			<stop  offset="0.798" style="stop-color:#008ED1"/>
			<stop  offset="0.9308" style="stop-color:#007CC2"/>
			<stop  offset="1" style="stop-color:#1B75BC"/>
		</linearGradient>
		<path fill="url(#SVGID_10_)" d="M7.899,30.374c3.593,4.67,7.073,6.182,12.154,7.056c-0.825-0.821-1.905-1.988-2.769-3.008
			c1.197-0.756,2.704-0.392,3.752,0.236c-1.727-1.77-3.755-3.624-5.916-4.497C14.138,29.764,7.905,30.383,7.899,30.374z"/>
	</g>
</g>
<g>
	
		<linearGradient id="SVGID_11_" gradientUnits="userSpaceOnUse" x1="933.4517" y1="776.2533" x2="969.2897" y2="776.2533" gradientTransform="matrix(-4.9146 0 0 4.0321 4954.9233 -3089.0029)">
		<stop  offset="0" style="stop-color:#1B75BC"/>
		<stop  offset="0.2086" style="stop-color:#0093D6"/>
		<stop  offset="0.3917" style="stop-color:#00AEEF"/>
		<stop  offset="0.5858" style="stop-color:#00AEEF"/>
		<stop  offset="0.6166" style="stop-color:#00A8E9"/>
		<stop  offset="0.798" style="stop-color:#008ED1"/>
		<stop  offset="0.9308" style="stop-color:#007CC2"/>
		<stop  offset="1" style="stop-color:#1B75BC"/>
	</linearGradient>
	<rect x="191.22" y="39.823" fill="url(#SVGID_11_)" width="176.13" height="2.189"/>
	<g>
		
			<linearGradient id="SVGID_12_" gradientUnits="userSpaceOnUse" x1="921.7424" y1="775.8893" x2="933.8531" y2="775.8893" gradientTransform="matrix(-4.9146 0 0 4.0321 4954.9233 -3089.0029)">
			<stop  offset="0" style="stop-color:#1B75BC"/>
			<stop  offset="0.2086" style="stop-color:#0093D6"/>
			<stop  offset="0.3917" style="stop-color:#00AEEF"/>
			<stop  offset="0.5858" style="stop-color:#00AEEF"/>
			<stop  offset="0.6166" style="stop-color:#00A8E9"/>
			<stop  offset="0.798" style="stop-color:#008ED1"/>
			<stop  offset="0.9308" style="stop-color:#007CC2"/>
			<stop  offset="1" style="stop-color:#1B75BC"/>
		</linearGradient>
		<path fill="url(#SVGID_12_)" d="M365.377,38.663c8.483-5.912,17.413-7.879,26.735-3.42c6.676,3.195,11.216,10.537,18.478,11.704
			c5.133,0.827,12.484-1.463,13.992-8.285c2.377-10.761-9.583-5.593-5.227-2.293c0.217-0.703,0.776-1.345,1.028-2.351
			c0.886-0.042,1.469,0.083,2.277,0.602c0.298,5.89-6.999,9.604-11.11,8.791c-4.466-0.882-9.027-4.306-13.089-6.67
			c-9.095-5.296-20.001-7.098-28.708-1.628L365.377,38.663z"/>
		
			<linearGradient id="SVGID_13_" gradientUnits="userSpaceOnUse" x1="920.4205" y1="776.3068" x2="933.6557" y2="776.3068" gradientTransform="matrix(-4.9146 0 0 4.0321 4954.9233 -3089.0029)">
			<stop  offset="0" style="stop-color:#1B75BC"/>
			<stop  offset="0.2086" style="stop-color:#0093D6"/>
			<stop  offset="0.3917" style="stop-color:#00AEEF"/>
			<stop  offset="0.5858" style="stop-color:#00AEEF"/>
			<stop  offset="0.6166" style="stop-color:#00A8E9"/>
			<stop  offset="0.798" style="stop-color:#008ED1"/>
			<stop  offset="0.9308" style="stop-color:#007CC2"/>
			<stop  offset="1" style="stop-color:#1B75BC"/>
		</linearGradient>
		<path fill="url(#SVGID_13_)" d="M367.321,39.849c7.378-5.828,13.807-5.2,21.392-1.778c5.566,2.514,9.564,8.178,15.072,10.653
			c5.023,2.256,12.953,2.13,17.501-1.627c3.778-3.13,9.991-11.291,5.786-16.719c3.519-4.536,4.955,3.429,4.065,6.638
			c-0.805,2.932-4.214,7.873-6.521,9.078c1.708,0.006,3.771-0.792,5.356-2.016c-3.467,4.674-8.002,5.162-12.42,6.869
			c1.055,0.279,2.015,1.032,3.102,1.358c-13.034,4.009-19.788-5.731-30.797-10.728c2.348,2.193,3.975,5.251,5.709,8.094
			c-7.727-8.927-19.367-15.829-29.219-8.641L367.321,39.849z"/>
		
			<linearGradient id="SVGID_14_" gradientUnits="userSpaceOnUse" x1="928.897" y1="778.5365" x2="933.8531" y2="778.5365" gradientTransform="matrix(-4.9146 0 0 4.0321 4954.9233 -3089.0029)">
			<stop  offset="0" style="stop-color:#1B75BC"/>
			<stop  offset="0.2086" style="stop-color:#0093D6"/>
			<stop  offset="0.3917" style="stop-color:#00AEEF"/>
			<stop  offset="0.5858" style="stop-color:#00AEEF"/>
			<stop  offset="0.6166" style="stop-color:#00A8E9"/>
			<stop  offset="0.798" style="stop-color:#008ED1"/>
			<stop  offset="0.9308" style="stop-color:#007CC2"/>
			<stop  offset="1" style="stop-color:#1B75BC"/>
		</linearGradient>
		<path fill="url(#SVGID_14_)" d="M367.81,42.213c3.043-2.5,7.206-2.687,9.842,0.447c1.928,2.292,1.145,4.517,2.177,7.279
			c2.312,6.196,7.578,3.042,9.907,8.255c-0.948,1.433-1.811,1.872-3.377,1.693c0.029-0.132-0.039-1.362-0.062-1.435
			c0.016-0.012-0.288,0.394-0.297,0.382c0.365-0.365,1.015-1.036,1.326-1.215c-3.047-3.414-5.35,2.558-8.82,0.443
			c-3.431-2.091-1.19-7.517-4.68-9.409c1.381,2.502,0.912,5.078,1.226,7.647c-7.287,1.9-0.356-15.855-9.674-13.492L367.81,42.213z"
			/>
		
			<linearGradient id="SVGID_15_" gradientUnits="userSpaceOnUse" x1="928.5811" y1="777.8796" x2="931.3419" y2="777.8796" gradientTransform="matrix(-4.9146 0 0 4.0321 4954.9233 -3089.0029)">
			<stop  offset="0" style="stop-color:#1B75BC"/>
			<stop  offset="0.2086" style="stop-color:#0093D6"/>
			<stop  offset="0.3917" style="stop-color:#00AEEF"/>
			<stop  offset="0.5858" style="stop-color:#00AEEF"/>
			<stop  offset="0.6166" style="stop-color:#00A8E9"/>
			<stop  offset="0.798" style="stop-color:#008ED1"/>
			<stop  offset="0.9308" style="stop-color:#007CC2"/>
			<stop  offset="1" style="stop-color:#1B75BC"/>
		</linearGradient>
		<path fill="url(#SVGID_15_)" d="M377.72,39.811c4.217,2.965,2.924,6.704,5.265,10.555c2.177,3.567,5.99,2.012,8.303,4.772
			c-0.586-2.851-1.19-6.832-2.791-9.112c-1.601-2.276-4.509-2.931-6.433-4.674c1.339,1.677,2.358,3.526,2.478,5.838
			c-0.87-2.402-3.167-5.408-5.201-5.802L377.72,39.811z"/>
		
			<linearGradient id="SVGID_16_" gradientUnits="userSpaceOnUse" x1="926.7095" y1="780.6603" x2="928.4404" y2="780.6603" gradientTransform="matrix(-4.9146 0 0 4.0321 4954.9233 -3089.0029)">
			<stop  offset="0" style="stop-color:#1B75BC"/>
			<stop  offset="0.2086" style="stop-color:#0093D6"/>
			<stop  offset="0.3917" style="stop-color:#00AEEF"/>
			<stop  offset="0.5858" style="stop-color:#00AEEF"/>
			<stop  offset="0.6166" style="stop-color:#00A8E9"/>
			<stop  offset="0.798" style="stop-color:#008ED1"/>
			<stop  offset="0.9308" style="stop-color:#007CC2"/>
			<stop  offset="1" style="stop-color:#1B75BC"/>
		</linearGradient>
		<path fill="url(#SVGID_16_)" d="M391.979,47.702c2.908,4.404,0.705,8.854,2.028,13.012c1.184,3.727,4.638,5.134,5.437,8.958
			c2.309-7.017,0.537-13.482-2.947-19.06c0.773,2.333,1.459,5.558,0.656,7.992C396.326,54.624,394.806,50.382,391.979,47.702
			L391.979,47.702z"/>
		
			<linearGradient id="SVGID_17_" gradientUnits="userSpaceOnUse" x1="924.295" y1="780.424" x2="927.3235" y2="780.424" gradientTransform="matrix(-4.9146 0 0 4.0321 4954.9233 -3089.0029)">
			<stop  offset="0" style="stop-color:#1B75BC"/>
			<stop  offset="0.2086" style="stop-color:#0093D6"/>
			<stop  offset="0.3917" style="stop-color:#00AEEF"/>
			<stop  offset="0.5858" style="stop-color:#00AEEF"/>
			<stop  offset="0.6166" style="stop-color:#00A8E9"/>
			<stop  offset="0.798" style="stop-color:#008ED1"/>
			<stop  offset="0.9308" style="stop-color:#007CC2"/>
			<stop  offset="1" style="stop-color:#1B75BC"/>
		</linearGradient>
		<path fill="url(#SVGID_17_)" d="M398.784,48.096c3.331,2.227,7.002,4.944,9.962,7.598c3.516,3.152,3.095,6.956,3.606,11.679
			c-7.972-1.611-10.605-11.622-14.884-19.129c2.477,3.176,5.835,5.716,7.979,8.988c-1.268-2.797-3.364-4.863-4.716-7.556
			L398.784,48.096z"/>
		
			<linearGradient id="SVGID_18_" gradientUnits="userSpaceOnUse" x1="920.784" y1="780.6608" x2="924.8787" y2="780.6608" gradientTransform="matrix(-4.9146 0 0 4.0321 4954.9233 -3089.0029)">
			<stop  offset="0" style="stop-color:#1B75BC"/>
			<stop  offset="0.2086" style="stop-color:#0093D6"/>
			<stop  offset="0.3917" style="stop-color:#00AEEF"/>
			<stop  offset="0.5858" style="stop-color:#00AEEF"/>
			<stop  offset="0.6166" style="stop-color:#00A8E9"/>
			<stop  offset="0.798" style="stop-color:#008ED1"/>
			<stop  offset="0.9308" style="stop-color:#007CC2"/>
			<stop  offset="1" style="stop-color:#1B75BC"/>
		</linearGradient>
		<path fill="url(#SVGID_18_)" d="M411.754,53.62c7.817,0,12.132,2.593,17.853,8.877c-7.591,4.109-13.83-2.699-19.435-8.017
			c2.229,1.104,5.104,0.539,7.284,1.943c-2.316-1.827-6.152-1.931-7.972-2.804H411.754z"/>
		
			<linearGradient id="SVGID_19_" gradientUnits="userSpaceOnUse" x1="919.7416" y1="778.8813" x2="922.6359" y2="778.8813" gradientTransform="matrix(-4.9146 0 0 4.0321 4954.9233 -3089.0029)">
			<stop  offset="0" style="stop-color:#1B75BC"/>
			<stop  offset="0.2086" style="stop-color:#0093D6"/>
			<stop  offset="0.3917" style="stop-color:#00AEEF"/>
			<stop  offset="0.5858" style="stop-color:#00AEEF"/>
			<stop  offset="0.6166" style="stop-color:#00A8E9"/>
			<stop  offset="0.798" style="stop-color:#008ED1"/>
			<stop  offset="0.9308" style="stop-color:#007CC2"/>
			<stop  offset="1" style="stop-color:#1B75BC"/>
		</linearGradient>
		<path fill="url(#SVGID_19_)" d="M422.773,50.464c4.78-3.908,7.264-0.796,11.957,0.475c-4.813,5.156-7.83,3.327-13.303,2.681
			c0.867-0.376,2.901-1.851,4.147-2.792c-1.501,0.583-3.985,0.754-5.068,0.423L422.773,50.464z"/>
		
			<linearGradient id="SVGID_20_" gradientUnits="userSpaceOnUse" x1="918.2418" y1="776.7099" x2="920.915" y2="776.7099" gradientTransform="matrix(-4.9146 0 0 4.0321 4954.9233 -3089.0029)">
			<stop  offset="0" style="stop-color:#1B75BC"/>
			<stop  offset="0.2086" style="stop-color:#0093D6"/>
			<stop  offset="0.3917" style="stop-color:#00AEEF"/>
			<stop  offset="0.5858" style="stop-color:#00AEEF"/>
			<stop  offset="0.6166" style="stop-color:#00A8E9"/>
			<stop  offset="0.798" style="stop-color:#008ED1"/>
			<stop  offset="0.9308" style="stop-color:#007CC2"/>
			<stop  offset="1" style="stop-color:#1B75BC"/>
		</linearGradient>
		<path fill="url(#SVGID_20_)" d="M442.101,39.403c-3.593,4.67-7.073,6.182-12.154,7.056c0.825-0.821,1.905-1.988,2.769-3.008
			c-1.197-0.756-2.704-0.392-3.752,0.236c1.727-1.77,3.755-3.624,5.916-4.497C435.862,38.793,442.095,39.411,442.101,39.403z"/>
	</g>
</g>
</svg>
