<?xml version="1.0" encoding="utf-8"?>
<!-- Generator: Adobe Illustrator 21.0.0, SVG Export Plug-In . SVG Version: 6.00 Build 0)  -->
<svg version="1.1" id="Layer_1" xmlns="http://www.w3.org/2000/svg" xmlns:xlink="http://www.w3.org/1999/xlink" x="0px" y="0px"
	 viewBox="0 0 170 180" enable-background="new 0 0 170 180" xml:space="preserve">
<g>
	<g>
		<g>
			<g>
				<path fill="#2BACE2" d="M40.661,38.006c-0.079-0.338-0.131-0.605-0.204-0.867c-1.345-4.858-3.226-9.539-5.495-14.094
					c-0.856-1.719-1.664-3.459-2.458-5.203c-0.719-1.577-1.256-3.211-1.524-4.907c-0.098-0.621-0.124-1.255-0.133-1.884
					c-0.006-0.37,0.055-0.747,0.139-1.111c0.409-1.764,1.89-2.207,3.378-1.04c0.724,0.568,1.312,1.227,1.823,1.96
					c0.506,0.726,1.049,1.43,1.582,2.14c0.056,0.074,0.148,0.125,0.258,0.215c1.44-0.329,2.574,0.441,3.728,1.033
					c1.216,0.624,2.352,1.379,3.526,2.071c0.121,0.071,0.264,0.109,0.484,0.197c0.027-0.412,0.043-0.755,0.074-1.097
					c0.113-1.239,0.32-2.454,0.993-3.566c0.726-1.199,1.845-1.898,3.262-2.229c0.394-0.092,0.795-0.172,1.198-0.213
					c1.674-0.172,3.018-0.909,4.168-1.999c0.193-0.183,0.414-0.344,0.639-0.495c1.42-0.95,3.011-0.953,4.462-0.036
					c0.902,0.57,1.563,1.324,2.092,2.19c0.925,1.513,1.589,3.129,2.202,4.764c0.33,0.881,0.64,1.768,1.086,2.671
					c0.047-0.205,0.091-0.411,0.142-0.616c0.272-1.09,0.483-2.198,0.835-3.266c0.471-1.432,1.511-2.398,3.106-2.832
					c1.183-0.322,2.226-0.902,3.234-1.54c0.293-0.185,0.585-0.372,0.89-0.538c1.57-0.852,3.182-0.452,3.956,1.063
					c0.305,0.597,0.435,1.292,0.523,1.956c0.188,1.411-0.041,2.809-0.462,4.159c-0.686,2.198-1.463,4.372-2.203,6.556
					c-0.291,0.86-0.585,1.72-0.763,2.619c0.527-0.789,0.997-1.618,1.595-2.359c0.891-1.105,1.859-2.157,2.819-3.213
					c0.423-0.466,0.894-0.896,1.363-1.324c0.678-0.617,1.191-1.312,1.533-2.144c0.181-0.441,0.525-0.858,0.892-1.197
					c1.051-0.971,2.565-0.639,3.028,0.657c0.157,0.438,0.232,0.912,0.264,1.374c0.147,2.146-0.222,4.241-0.826,6.304
					c-1.032,3.524-2.623,6.815-4.963,9.777c-0.82,1.038-1.669,2.061-2.579,3.033c-1.709,1.824-3.471,3.605-5.212,5.404
					c-0.285,0.295-0.571,0.589-0.857,0.883c0.041,0.044,0.083,0.088,0.124,0.132c0.376-0.254,0.763-0.496,1.128-0.763
					c1.842-1.349,3.861-2.407,6.063-3.177c1.085-0.379,2.208-0.546,3.354-0.607c1.6-0.085,3.2-0.161,4.801-0.223
					c1.283-0.05,2.515-0.293,3.722-0.693c0.908-0.3,1.83-0.569,2.761-0.801c0.407-0.101,0.863-0.146,1.278-0.093
					c0.957,0.122,1.369,0.961,0.79,1.668c-0.436,0.532-0.953,1.049-1.547,1.422c-1.768,1.111-3.673,2-5.72,2.599
					c-1.768,0.518-3.545,1.01-5.324,1.495c-4.581,1.251-8.934,2.97-12.943,5.374c-1.037,0.622-2.023,1.334-2.942,2.096
					c-0.593,0.492-1.085,1.114-1.514,1.741c-1.562,2.281-3.789,3.727-6.548,4.537c-0.192,0.056-0.382,0.12-0.552,0.175
					c-0.032,0.07-0.072,0.114-0.068,0.155c0.326,3.209,0.614,6.423,1.303,9.591c0.661,3.04,1.703,5.96,3.266,8.714
					c0.236,0.415,0.229,0.418-0.001,0.879c-0.176-0.279-0.335-0.507-0.47-0.746c-1.901-3.35-3.055-6.923-3.62-10.65
					c-0.358-2.358-0.567-4.736-0.843-7.105c-0.029-0.252-0.063-0.503-0.095-0.759c-2.017-0.214-3.836-0.861-5.573-1.699
					c-2.001-0.966-4.129-1.572-6.335-1.947c-2.7-0.459-5.413-0.85-8.117-1.288c-2.255-0.365-4.493-0.81-6.63-1.589
					c-3.619-1.319-6.555-3.432-8.661-6.463c-0.309-0.445-0.558-0.954-0.698-1.466c-0.458-1.674,0.882-2.862,2.662-2.335
					c0.911,0.27,1.78,0.676,2.642,1.068c0.939,0.426,1.889,0.812,2.927,0.968c2.029,0.304,4.076,0.527,6.009,1.242
					c0.022-0.042,0.044-0.083,0.066-0.125c-0.137-0.085-0.264-0.193-0.413-0.251c-2.311-0.908-4.604-1.857-6.942-2.7
					c-3.363-1.212-6.658-2.546-9.763-4.251c-1.706-0.936-3.33-1.979-4.753-3.261c-0.875-0.788-1.626-1.669-2.156-2.693
					c-0.141-0.273-0.27-0.556-0.365-0.845c-0.569-1.742,0.491-2.87,2.463-2.631c1.045,0.126,1.917,0.63,2.75,1.152
					c2.057,1.29,4.295,2.203,6.658,2.886c1.624,0.47,3.252,0.928,4.874,1.403c2.552,0.746,4.991,1.721,7.232,3.084
					c1.348,0.82,2.442,1.894,3.487,3.012c0.116,0.124,0.22,0.257,0.342,0.375C40.41,37.913,40.49,37.929,40.661,38.006z
					 M37.967,13.72c-0.28-0.271-0.535-0.467-0.722-0.709c-0.5-0.646-0.984-1.303-1.45-1.97c-0.512-0.732-1.09-1.404-1.833-1.952
					c-1.102-0.814-2.235-0.497-2.498,0.786c-0.163,0.792-0.185,1.628-0.118,2.434c0.139,1.665,0.66,3.262,1.331,4.806
					c0.706,1.626,1.445,3.242,2.251,4.828c2.696,5.307,4.852,10.782,6.393,16.471c0.576,2.125,1.376,4.203,2.18,6.268
					c0.39,1.001,0.939,1.974,1.568,2.868c1.408,2.001,3.267,3.615,5.367,5.011c2.145,1.425,4.484,2.462,7.024,3.123
					c0.355,0.092,0.728,0.126,1.106,0.189c0.124-0.291,0.218-0.505,0.307-0.721c1.108-2.688,1.226-5.475,0.924-8.291
					c-0.357-3.329-0.947-6.625-1.779-9.883c-1.001-3.922-2.314-7.751-4.287-11.36c-0.544-0.994-1.177-1.973-1.932-2.838
					c-1.03-1.18-2.212-2.248-3.336-3.357c-2.371-2.339-5.244-4.032-8.317-5.474C39.468,13.631,38.798,13.385,37.967,13.72z
					 M59.172,55.808c0.183-0.08,0.274-0.129,0.372-0.161c1.913-0.62,3.682-1.445,5.065-2.865c1.115-1.145,1.95-2.445,2.582-3.853
					c1.146-2.551,1.92-5.212,2.645-7.884c2.226-8.196,4.316-16.426,7.314-24.429c0.468-1.249,0.702-2.579,0.961-3.885
					c0.202-1.017,0.13-2.051-0.136-3.061c-0.177-0.674-0.501-1.281-1.166-1.664c-0.953-0.548-1.865-0.333-2.704,0.216
					c-1.394,0.913-2.86,1.682-4.498,2.172c-0.885,0.265-1.552,0.823-1.901,1.616c-0.341,0.774-0.687,1.567-0.851,2.382
					c-0.324,1.605-0.52,3.232-0.779,4.848c-0.066,0.414-0.136,0.833-0.263,1.233c-0.194,0.611-0.638,1.023-1.351,1.073
					c-0.722,0.051-1.264,0.395-1.678,0.87c-0.84,0.962-1.658,1.945-2.412,2.965c-1.427,1.93-2.277,4.104-3.04,6.311
					c-0.146,0.421-0.147,0.805-0.009,1.227c1.492,4.579,2.417,9.262,2.934,14.013c0.309,2.839,0.153,5.646-0.945,8.357
					C59.267,55.394,59.251,55.509,59.172,55.808z M56.869,31.522c0.141-0.3,0.237-0.458,0.292-0.627
					c0.74-2.272,1.763-4.425,3.272-6.359c0.694-0.889,1.445-1.742,2.21-2.581c0.415-0.455,0.957-0.761,1.641-0.793
					c0.647-0.031,1.03-0.37,1.159-0.937c0.257-1.126,0.449-2.257,0.028-3.389c-0.525-1.414-1.009-2.842-1.596-4.234
					c-0.476-1.128-1.058-2.221-1.632-3.312c-0.402-0.765-0.993-1.403-1.727-1.931c-1.323-0.951-2.873-0.987-4.211-0.07
					c-0.243,0.167-0.484,0.343-0.695,0.542c-1.096,1.034-2.377,1.738-3.955,1.947c-0.452,0.06-0.901,0.148-1.347,0.241
					c-1.757,0.365-2.934,1.34-3.494,2.906c-0.465,1.299-0.602,2.644-0.545,4.048c2.398,1.929,4.752,3.936,6.579,6.367
					C54.689,25.791,55.738,28.604,56.869,31.522z M43.862,46.71c-0.068-0.223-0.084-0.335-0.134-0.433
					c-0.983-1.929-1.699-3.947-2.354-5.985c-0.1-0.311-0.204-0.637-0.39-0.907c-1.121-1.631-2.487-3.077-4.186-4.211
					c-2.194-1.464-4.659-2.459-7.227-3.233c-2.099-0.633-4.212-1.225-6.308-1.866c-1.714-0.524-3.358-1.19-4.874-2.113
					c-0.76-0.462-1.547-0.9-2.369-1.256c-0.488-0.211-1.067-0.325-1.609-0.336c-1.098-0.021-1.705,0.662-1.501,1.649
					c0.093,0.451,0.278,0.9,0.5,1.314c0.719,1.342,1.805,2.418,3.052,3.358c1.832,1.381,3.854,2.493,5.941,3.517
					c2.919,1.432,5.985,2.549,9.075,3.613c4.415,1.52,8.528,3.495,11.919,6.578C43.497,46.49,43.627,46.554,43.862,46.71z
					 M50.027,52.956c-1.268-1.114-2.564-2.259-3.87-3.394c-0.312-0.272-0.624-0.564-0.991-0.759
					c-2.103-1.119-4.318-1.954-6.75-2.265c-1.029-0.132-2.043-0.366-3.063-0.557c-2.88-0.54-5.123-2.032-7.132-3.928
					c-0.844-0.796-1.821-1.483-2.795-2.149c-0.535-0.365-1.194-0.368-1.803-0.038c-0.559,0.303-0.717,0.825-0.626,1.332
					c0.105,0.585,0.303,1.186,0.613,1.703c1.085,1.815,2.725,3.186,4.496,4.412c2.035,1.408,4.357,2.3,6.826,2.825
					c2.127,0.452,4.273,0.835,6.423,1.185c2.851,0.465,5.726,0.812,8.499,1.618C49.924,52.962,50.004,52.954,50.027,52.956z
					 M69.727,43.348c0.1-0.049,0.163-0.06,0.184-0.093c0.31-0.48,0.635-0.954,0.917-1.448c1.886-3.306,3.641-6.669,5.142-10.138
					c1.629-3.765,3.774-7.227,6.843-10.172c1.531-1.468,2.506-3.224,2.974-5.201c0.131-0.554,0.165-1.167,0.054-1.721
					c-0.167-0.833-0.917-1.089-1.753-0.706c-0.633,0.29-0.996,0.794-1.212,1.38c-0.311,0.842-0.887,1.5-1.533,2.143
					c-1.618,1.61-3.284,3.177-4.562,5.06c-1.395,2.056-2.509,4.205-3.155,6.556c-1.263,4.595-2.528,9.189-3.789,13.785
					C69.789,42.962,69.767,43.138,69.727,43.348z M86.239,16.51c-0.057,0.002-0.114,0.004-0.17,0.006
					c-0.058,0.176-0.124,0.349-0.173,0.527c-0.463,1.683-1.326,3.155-2.609,4.446c-1.009,1.016-1.979,2.075-2.86,3.187
					c-1.468,1.854-2.579,3.898-3.568,6.002c-1.136,2.418-2.293,4.829-3.472,7.23c-0.528,1.075-1.132,2.119-1.701,3.176
					c0.182-0.036,0.296-0.116,0.39-0.213c1.974-2.044,3.974-4.069,5.912-6.142c2.091-2.237,3.937-4.632,5.289-7.325
					c1.578-3.14,2.703-6.393,2.941-9.869C86.243,17.195,86.234,16.852,86.239,16.51z M67.583,49.253
					c1.163-0.781,2.239-1.591,3.404-2.271c3.97-2.317,8.259-3.992,12.763-5.218c1.802-0.491,3.599-1,5.387-1.531
					c1.946-0.579,3.738-1.461,5.428-2.506c0.494-0.306,0.925-0.732,1.292-1.168c0.478-0.569,0.159-1.117-0.633-1.136
					c-0.349-0.008-0.705,0.065-1.052,0.131c-1.681,0.32-3.102,1.131-4.464,2.04c-2.128,1.419-4.45,2.42-7.056,2.829
					c-0.651,0.102-1.3,0.22-1.947,0.34c-3.574,0.664-6.945,1.745-9.828,3.899c-1.259,0.941-2.447,1.888-2.826,3.432
					C67.953,48.49,67.744,48.862,67.583,49.253z M69.408,45.277c0.216-0.15,0.44-0.292,0.646-0.453
					c1.926-1.517,4.027-2.78,6.477-3.436c1.899-0.508,3.828-0.949,5.773-1.279c2.704-0.458,5.137-1.428,7.35-2.9
					c0.121-0.08,0.206-0.206,0.311-0.315c-2.059,0.105-4.058,0.27-6.058,0.294c-2.927,0.035-5.509,0.972-7.943,2.355
					c-1.709,0.971-3.237,2.159-4.748,3.373C70.401,43.571,69.776,44.314,69.408,45.277z M27.491,40.821
					c0.332,0.33,0.633,0.639,0.946,0.937c1.206,1.146,2.541,2.141,4.076,2.894c1.661,0.815,3.488,1.146,5.312,1.417
					c2.147,0.319,4.214,0.818,6.154,1.733c0.142,0.067,0.309,0.087,0.465,0.128c0.026-0.039,0.052-0.079,0.078-0.118
					c-0.337-0.276-0.668-0.56-1.013-0.828c-0.909-0.708-1.756-1.503-2.748-2.094c-2.474-1.474-5.189-2.435-8.131-2.773
					c-1.726-0.198-3.401-0.523-4.94-1.303C27.655,40.797,27.597,40.817,27.491,40.821z"/>
				<path fill="#2BACE2" d="M81.645,105.947c0.075,0.265,0.153,0.506,0.21,0.751c0.979,4.197,1.512,8.439,1.421,12.733
					c-0.098,4.649-0.253,9.296-0.378,13.944c-0.091,3.415-0.044,6.825,0.628,10.2c1.178,5.912,3.535,11.388,7.205,16.377
					c0.14,0.191,0.27,0.389,0.406,0.587c-0.102,0.105-0.182,0.187-0.274,0.283c-0.074-0.055-0.143-0.087-0.183-0.138
					c-2.045-2.61-3.637-5.444-4.962-8.414c-2.569-5.76-3.568-11.762-3.362-17.962c0.158-4.764,0.284-9.529,0.408-14.294
					c0.115-4.436-0.374-8.82-1.384-13.157C81.244,106.275,81.25,106.274,81.645,105.947z"/>
			</g>
			<g>
				<path fill="#2BACE2" d="M57.244,45.926c-1.799-6.488-4.344-12.727-7.141-18.963C51.761,28.687,57.097,42.828,57.244,45.926z"/>
				<path fill="#2BACE2" d="M56.428,55.212c-0.407-0.174-0.821-0.335-1.221-0.523c-1.863-0.875-3.207-2.249-4.317-3.838
					c-1.611-2.306-2.565-4.855-3.243-7.501c-0.243-0.95-0.457-1.907-0.684-2.861c0.054-0.016,0.108-0.031,0.163-0.046
					c0.063,0.22,0.128,0.44,0.187,0.661c0.569,2.105,1.13,4.212,2.038,6.225c0.81,1.795,1.772,3.515,3.185,4.973
					c1.05,1.083,2.284,1.981,3.709,2.636c0.087,0.04,0.168,0.092,0.252,0.138C56.474,55.12,56.451,55.166,56.428,55.212z"/>
				<path fill="#2BACE2" d="M62.223,52.285c0.472-0.818,0.969-1.624,1.411-2.456c1.67-3.14,2.681-6.482,3.502-9.877
					c0.446-1.843,0.842-3.696,1.262-5.544c0.024-0.105,0.064-0.207,0.199-0.291c-0.142,0.864-0.254,1.732-0.43,2.59
					c-0.769,3.735-1.576,7.467-3.156,11.001c-0.613,1.371-1.414,2.672-2.155,3.993c-0.134,0.239-0.393,0.419-0.595,0.627
					C62.249,52.314,62.236,52.3,62.223,52.285z"/>
				<path fill="#2BACE2" d="M37.501,12.746c0.146,0.203,0.321,0.394,0.43,0.613c0.19,0.38,0.354,0.773,0.502,1.169
					c1.258,3.391,2.51,6.785,3.676,9.941C41.19,23.41,37.605,14.779,37.501,12.746z"/>
				<path fill="#2BACE2" d="M25.316,34.975c5.821,1.933,10.639,5.168,15.12,8.888c-1.779-1.252-3.51-2.568-5.349-3.742
					c-2.911-1.858-5.936-3.552-9.233-4.791c-0.14-0.052-0.279-0.107-0.413-0.17C25.405,35.142,25.391,35.088,25.316,34.975z"/>
				<path fill="#2BACE2" d="M32.642,46.96c3.22,1.791,6.593,3.285,10.164,4.393C39.933,51.053,34.386,48.575,32.642,46.96z"/>
				<path fill="#2BACE2" d="M61.877,8.072c1.115,3.099,1.03,6.274,0.786,9.46C62.383,14.379,62.481,11.199,61.877,8.072z"/>
				<path fill="#2BACE2" d="M54.056,8.868c-0.215,2.631-0.017,5.244,0.125,7.863c-0.43-1.286-0.574-2.609-0.622-3.945
					C53.458,10.02,53.532,9.308,54.056,8.868z"/>
				<path fill="#2BACE2" d="M65.35,20.962c0.06,0.135,0.169,0.268,0.173,0.404c0.067,2.027-0.15,4.031-0.533,6.021
					c-0.055-0.003-0.11-0.006-0.165-0.009c0.091-2.126,0.181-4.251,0.271-6.377C65.181,20.988,65.265,20.976,65.35,20.962z"/>
				<path fill="#2BACE2" d="M72.103,16.026c0.443-2.501,0.885-5.003,1.358-7.673c0.115,0.263,0.192,0.371,0.206,0.486
					c0.022,0.184,0.017,0.373-0.002,0.557C73.432,11.664,72.924,13.876,72.103,16.026z"/>
				<path fill="#2BACE2" d="M79.412,22.391c0.881-2.143,1.761-4.286,2.642-6.429c0.063,0.013,0.126,0.025,0.19,0.038
					c-0.054,0.269-0.076,0.547-0.166,0.806c-0.608,1.752-1.373,3.445-2.288,5.081c-0.102,0.182-0.211,0.361-0.317,0.541
					C79.453,22.416,79.433,22.404,79.412,22.391z"/>
				<path fill="#2BACE2" d="M55.865,54.36c-2.435-1.664-4.193-3.782-5.155-6.434C51.915,50.416,53.704,52.513,55.865,54.36z"/>
				<path fill="#2BACE2" d="M37.45,40.87c-2.054-1.421-4.108-2.842-6.038-4.176C32.199,36.754,35.434,38.906,37.45,40.87z"/>
				<path fill="#2BACE2" d="M40.608,18.223c-0.917-1.462-2.005-4.376-1.919-5.057C39.089,13.531,40.189,16.384,40.608,18.223z"/>
				<path fill="#2BACE2" d="M64.089,45.996c0.646-2.14,1.292-4.28,1.938-6.42C65.608,41.772,65.152,43.959,64.089,45.996z"/>
				<path fill="#2BACE2" d="M38.268,49.011c0.962,0.402,1.914,0.823,2.887,1.199c0.969,0.375,1.959,0.706,2.91,1.122
					C42.018,50.814,39.998,50.234,38.268,49.011z"/>
				<path fill="#2BACE2" d="M55.128,8.28c-0.026,1.4-0.052,2.801-0.078,4.259c-0.388-0.953-0.441-3.471-0.111-4.252
					C55.001,8.284,55.065,8.282,55.128,8.28z"/>
				<path fill="#2BACE2" d="M74.323,11.61c0.021-1.326,0.043-2.612,0.064-3.945C74.902,8.148,74.847,10.314,74.323,11.61z"/>
				<path fill="#2BACE2" d="M79.465,20.764c0.141-0.909,0.423-1.77,0.811-2.596c0.073,0.025,0.146,0.049,0.219,0.073
					C80.152,19.082,79.808,19.923,79.465,20.764z"/>
			</g>
		</g>
	</g>
	<g>
		<g>
			<path fill="#2BACE2" d="M62.295,81.027c0.058-0.339,0.088-0.513,0.117-0.688c0.191-1.129,0.338-2.266,0.585-3.385
				c0.271-1.229,0.847-2.35,1.722-3.323c0.757-0.841,1.271-1.796,1.655-2.821c0.527-1.408,1.244-2.715,2.5-3.711
				c1.423-1.128,3.03-1.58,4.885-1.111c1.245,0.315,2.357,0.866,3.354,1.615c2.452,1.843,4.196,4.173,5.513,6.795
				c1.735,3.456,2.481,7.101,2.46,10.892c-0.002,0.274-0.016,0.548-0.025,0.822c0.069,0.01,0.138,0.019,0.208,0.029
				c0.088-0.145,0.202-0.282,0.26-0.437c0.512-1.345,1.028-2.689,1.516-4.042c0.507-1.404,0.8-2.844,0.892-4.326
				c0.05-0.813,0.201-1.624,0.354-2.428c0.069-0.363,0.221-0.721,0.391-1.058c0.492-0.974,1.678-1.234,2.613-0.583
				c0.523,0.364,0.854,0.858,1.08,1.415c0.46,1.131,0.6,2.315,0.673,3.508c0.213,3.485-0.291,6.904-1.196,10.278
				c-1.392,5.194-3.886,9.917-7.281,14.251c-2.177,2.779-4.629,5.33-7.384,7.637c-1.793,1.502-3.771,2.762-5.831,3.932
				c-0.925,0.525-1.802,1.133-2.648,1.763c-0.95,0.708-1.51,1.672-1.54,2.791c-0.032,1.162,0.02,2.337,0.176,3.49
				c0.586,4.318,1.601,8.563,2.691,12.793c0.79,3.069,1.603,6.131,2.131,9.254c0.865,5.122,0.217,10.066-1.992,14.824
				c-1.315,2.832-2.722,5.629-4.092,8.44c-1.54,3.161-2.856,6.392-3.663,9.784c-0.032,0.134-0.087,0.264-0.146,0.439
				c-0.144-0.118-0.251-0.206-0.451-0.37c0.429-1.389,0.831-2.834,1.324-4.253c1.13-3.254,2.738-6.329,4.263-9.434
				c0.909-1.85,1.797-3.709,2.622-5.591c1.927-4.396,2.395-8.946,1.642-13.626c-0.507-3.15-1.333-6.234-2.132-9.325
				c-0.999-3.866-1.91-7.748-2.524-11.683c-0.243-1.563-0.76-3.047-1.384-4.506c-0.739-1.729-2.155-2.849-3.931-3.631
				c-0.249-0.11-0.525-0.183-0.798-0.23c-5.441-0.937-10.376-2.964-14.879-5.889c-3.833-2.49-7.358-5.31-10.467-8.551
				c-2.432-2.535-4.467-5.321-6.207-8.296c-1.478-2.527-2.627-5.165-3.173-7.996c-0.176-0.914-0.223-1.856-0.246-2.787
				c-0.018-0.732,0.206-1.435,0.668-2.052c0.663-0.884,1.634-1.117,2.666-0.618c0.734,0.355,1.304,0.885,1.768,1.513
				c1.109,1.502,1.816,3.177,2.528,4.855c0.507,1.196,1.058,2.378,1.647,3.542c0.265,0.524,0.632,1.014,1.016,1.474
				c1.221,1.463,2.472,2.904,3.71,4.354c0.138,0.161,0.267,0.33,0.505,0.445c-0.364-0.781-0.727-1.562-1.091-2.343
				c-1.017-2.183-1.695-4.442-1.959-6.815c-0.116-1.04-0.439-2.06-0.647-3.093c-0.268-1.331-0.589-2.658-0.756-4
				c-0.291-2.334,0.082-4.616,0.919-6.831c0.604-1.596,1.738-2.729,3.512-3.259c1.546-0.462,2.988-0.056,4.329,0.606
				c0.934,0.46,1.804,1.052,2.633,1.664c1.483,1.095,3.102,1.942,4.878,2.563c2.968,1.038,5.578,2.591,7.752,4.727
				c0.623,0.612,1.16,1.297,1.735,1.95C61.9,80.552,62.045,80.73,62.295,81.027z M51.906,109.687c0.49,0.361,1.234,0.929,1.999,1.47
				c2.361,1.669,4.932,2.966,7.821,3.697c1.83,0.463,3.72-0.12,4.755-1.571c0.397-0.556,0.711-1.196,0.891-1.839
				c0.24-0.854,0.368-1.744,0.446-2.627c0.647-7.314-0.347-14.452-2.723-21.448c-0.961-2.83-2.491-5.376-4.471-7.681
				c-2.173-2.529-4.975-4.335-8.242-5.495c-2.014-0.715-3.87-1.651-5.528-2.919c-0.273-0.209-0.558-0.406-0.841-0.606
				c-1.002-0.706-2.108-1.212-3.343-1.477c-1.157-0.248-2.215-0.047-3.211,0.527c-1.038,0.599-1.704,1.457-2.1,2.504
				c-0.684,1.804-1.034,3.66-0.992,5.574c0.035,1.597,0.336,3.158,0.723,4.711c0.278,1.115,0.623,2.23,0.739,3.362
				c0.289,2.835,1.21,5.49,2.513,8.042c1.684,3.301,3.497,6.534,5.718,9.573C47.674,105.693,49.522,107.69,51.906,109.687z
				 M67.433,114.341c0.582,0.294,1.128,0.126,1.615-0.121c1.021-0.518,2.04-1.039,2.915-1.773c1.966-1.649,3.605-3.553,5.111-5.551
				c3.764-4.993,6.282-10.463,7.165-16.503c0.765-5.236,0.522-10.391-1.807-15.337c-1.208-2.566-2.838-4.846-5.107-6.723
				c-1.152-0.952-2.453-1.661-3.978-1.983c-1.349-0.286-2.576-0.002-3.684,0.722c-0.928,0.606-1.645,1.393-2.127,2.342
				c-0.311,0.613-0.59,1.241-0.844,1.876c-0.373,0.93-0.871,1.788-1.559,2.553c-0.194,0.215-0.374,0.444-0.529,0.685
				c-1.389,2.166-1.787,4.541-1.704,7.007c0.01,0.311,0.149,0.648,0.325,0.92c1.612,2.503,2.466,5.257,3.271,8.04
				c1.628,5.628,2.18,11.346,1.872,17.147c-0.099,1.874-0.347,3.722-1.024,5.505C67.201,113.529,67.133,113.92,67.433,114.341z
				 M57.988,114.21c0.012-0.043,0.023-0.086,0.035-0.129c-0.285-0.151-0.571-0.302-0.856-0.452
				c-4.279-2.249-7.902-5.179-10.722-8.897c-1.67-2.202-3.234-4.474-4.794-6.744c-1.546-2.252-3.027-4.545-4.968-6.539
				c-0.734-0.754-1.432-1.524-1.887-2.447c-0.576-1.169-1.137-2.346-1.648-3.54c-0.642-1.501-1.233-3.027-2.221-4.369
				c-0.432-0.588-0.982-1.144-1.599-1.566c-1.044-0.716-2.086-0.433-2.598,0.676c-0.242,0.524-0.407,1.13-0.388,1.693
				c0.037,1.068,0.146,2.148,0.377,3.194c0.551,2.487,1.579,4.824,2.885,7.057c1.725,2.951,3.722,5.733,6.125,8.26
				c2.823,2.969,6.03,5.555,9.461,7.907c3.572,2.448,7.445,4.381,11.711,5.614C57.262,114.031,57.626,114.116,57.988,114.21z
				 M70.394,114.26c0.394-0.183,0.651-0.272,0.871-0.41c1.404-0.883,2.864-1.703,4.185-2.681c3.326-2.463,6.142-5.377,8.642-8.553
				c3.144-3.994,5.527-8.334,6.967-13.089c1.103-3.644,1.738-7.354,1.512-11.149c-0.062-1.043-0.252-2.089-0.501-3.11
				c-0.122-0.502-0.436-1.005-0.794-1.41c-0.74-0.839-1.875-0.665-2.249,0.354c-0.248,0.676-0.403,1.407-0.435,2.12
				c-0.086,1.89-0.109,3.783-0.108,5.675c0.001,2.602-0.113,5.202-0.857,7.719c-1.765,5.969-4.482,11.515-8.891,16.275
				c-1.252,1.352-2.464,2.735-3.707,4.095c-0.474,0.518-0.951,1.039-1.481,1.506C72.564,112.47,71.54,113.3,70.394,114.26z
				 M79.433,104.457c0.023,0.011,0.047,0.022,0.07,0.033c0.056-0.045,0.121-0.084,0.166-0.136c0.111-0.128,0.211-0.263,0.32-0.392
				c1.762-2.106,3.079-4.445,4.298-6.84c2.514-4.937,4-10.079,3.757-15.575c-0.011-0.257-0.026-0.514-0.04-0.771
				c-0.053-0.001-0.106-0.001-0.159-0.001c-0.332,0.902-0.643,1.811-1.002,2.703c-1.05,2.612-1.955,5.255-2.293,8.039
				c-0.068,0.555-0.213,1.103-0.343,1.65c-0.86,3.607-2.329,7.003-4.211,10.257C79.799,103.764,79.62,104.113,79.433,104.457z"/>
		</g>
		<g>
			<path fill="#2BACE2" d="M75.71,79.095c1.045,3.477,1.757,7.004,1.843,10.623c0.14,5.858-1.082,11.462-3.753,16.788
				c-0.86,1.714-1.82,3.378-3.129,4.85c-0.094,0.106-0.198,0.205-0.22,0.228c0.7-1.096,1.515-2.25,2.2-3.465
				c2.923-5.184,4.37-10.715,4.536-16.544c0.109-3.836-0.509-7.591-1.403-11.32c-0.091-0.38-0.163-0.764-0.243-1.146
				C75.597,79.104,75.653,79.099,75.71,79.095z"/>
			<path fill="#2BACE2" d="M42.88,85.404c2.566,8.226,6.319,15.895,12.367,22.511c-0.047,0.03-0.093,0.06-0.14,0.09
				c-0.518-0.525-1.058-1.034-1.552-1.578c-3.503-3.855-5.884-8.294-7.94-12.901c-1.12-2.51-1.949-5.106-2.657-7.736
				C42.924,85.663,42.905,85.533,42.88,85.404z"/>
			<path fill="#2BACE2" d="M32.069,89.447c2.302,7.219,6.14,13.578,12.327,18.621c-0.042,0.035-0.083,0.069-0.125,0.104
				c-1.268-1.112-2.626-2.151-3.79-3.349c-4.199-4.323-6.997-9.335-8.477-14.968c-0.029-0.111-0.052-0.224-0.078-0.337
				C31.974,89.494,32.022,89.471,32.069,89.447z"/>
			<path fill="#2BACE2" d="M64.679,115.479c0.061-0.201,0.101-0.41,0.187-0.601c1.078-2.384,1.262-4.889,1.167-7.425
				c-0.134-3.604-0.69-7.159-1.516-10.681c-0.036-0.155-0.072-0.311,0-0.502c0.038,0.088,0.086,0.174,0.114,0.265
				c1.363,4.531,2.072,9.136,1.806,13.845c-0.092,1.625-0.506,3.18-1.323,4.634c-0.102,0.182-0.236,0.35-0.355,0.525
				C64.733,115.519,64.706,115.499,64.679,115.479z"/>
			<path fill="#2BACE2" d="M61.919,111.945c-2.125-2.287-3.54-4.912-4.628-7.685c-0.965-2.457-1.823-4.95-2.724-7.429
				c-0.087-0.238-0.146-0.484-0.164-0.744C56.595,101.508,58.224,107.148,61.919,111.945z"/>
			<path fill="#2BACE2" d="M90.563,82.017c0.019,0.274,0.076,0.55,0.052,0.82c-0.495,5.574-2.1,10.856-5.019,15.773
				c-0.761,1.282-1.69,2.48-2.549,3.712c-0.108,0.155-0.266,0.28-0.429,0.407c4.694-6.096,7.217-12.898,7.87-20.31
				c0.012-0.136,0.062-0.269,0.094-0.403L90.563,82.017z"/>
			<path fill="#2BACE2" d="M73.158,105.069c1.823-5.485,3.217-11.03,2.546-16.841C76.846,91.187,75.332,101.343,73.158,105.069z"/>
			<path fill="#2BACE2" d="M54.035,82.531c-1.804-3.34-3.106-6.895-5.119-10.183c0.118,0.061,0.274,0.097,0.348,0.189
				c0.271,0.335,0.548,0.672,0.764,1.037C51.718,76.424,52.977,79.438,54.035,82.531z"/>
			<path fill="#2BACE2" d="M68.038,82.661c-0.857-1.885-2.172-9.381-1.89-10.573c0.025,0,0.053-0.006,0.076,0
				c0.023,0.006,0.057,0.023,0.059,0.039C66.862,75.595,67.439,79.064,68.038,82.661z"/>
			<path fill="#2BACE2" d="M64.675,102.774c-0.875-3.911-1.699-7.834-3.238-11.59C62.577,92.62,64.645,99.942,64.675,102.774z"/>
			<path fill="#2BACE2" d="M80.993,76.914c-1.332-3.42-2.734-6.776-4.999-9.776c0.058-0.034,0.115-0.069,0.172-0.104
				c0.138,0.151,0.287,0.294,0.411,0.454c1.884,2.442,3.067,5.181,4.011,8.019C80.743,75.972,80.86,76.445,80.993,76.914z"/>
			<path fill="#2BACE2" d="M41.042,104.377c-2.275-2.521-4.305-5.08-5.361-8.182c1.501,2.843,3.392,5.466,5.37,8.039
				C41.061,104.247,41.05,104.273,41.042,104.377z"/>
			<path fill="#2BACE2" d="M64.198,114.916c-1.03,0.116-1.717-0.418-2.343-0.981c-1.844-1.658-3.197-3.65-4.459-5.696
				c-0.031-0.049-0.024-0.118-0.05-0.262c0.838,1.115,1.587,2.189,2.424,3.201c0.763,0.922,1.608,1.789,2.445,2.657
				c0.445,0.461,1.024,0.755,1.681,0.912C64.005,114.773,64.098,114.858,64.198,114.916z"/>
			<path fill="#2BACE2" d="M42.306,68.822c0.093,0.113,0.233,0.213,0.273,0.341c0.583,1.847,1.153,3.697,1.664,5.564
				c-0.932-1.878-1.546-3.845-2.152-5.815C42.163,68.881,42.235,68.852,42.306,68.822z"/>
			<path fill="#2BACE2" d="M67.679,76.177c-0.383-1.9-0.765-3.8-1.148-5.701c0.059-0.018,0.117-0.036,0.176-0.055
				c0.076,0.099,0.202,0.19,0.222,0.298c0.327,1.81,0.641,3.621,0.958,5.432C67.817,76.161,67.748,76.169,67.679,76.177z"/>
			<path fill="#2BACE2" d="M53.359,77.84c-0.833-1.445-1.665-2.89-2.502-4.342c0.324-0.148,0.444,0.046,0.545,0.231
				c0.562,1.036,1.126,2.071,1.668,3.117c0.16,0.31,0.251,0.65,0.374,0.976C53.416,77.828,53.388,77.834,53.359,77.84z"/>
			<path fill="#2BACE2" d="M90.581,82.016c-0.02-0.299-0.04-0.598-0.059-0.896c0.055,0.002,0.11,0.004,0.165,0.006
				c-0.041,0.297-0.083,0.594-0.124,0.891L90.581,82.016z"/>
		</g>
	</g>
	<g>
		<g>
			<path fill="#2BACE2" d="M49.39,167.388c1.639-1.964,3.297-3.916,4.913-5.896c1.448-1.774,2.846-3.582,4.273-5.37
				c2.164-2.712,4.271-5.468,6.818-7.899c2.576-2.459,5.317-4.761,8.313-6.779c3.275-2.207,6.61-4.339,9.942-6.475
				c5.043-3.232,9.414-7.11,13.212-11.54c1.525-1.779,3.066-3.549,4.516-5.379c2.497-3.153,4.765-6.444,6.854-9.84
				c3.479-5.654,6.402-11.559,9.379-17.44c1.274-2.517,2.526-5.046,4.119-7.413c0.306-0.456,0.647-0.892,0.965-1.342
				c0.15-0.213,0.282-0.436,0.457-0.708c-0.965-0.388-1.871-0.787-2.806-1.119c-1.137-0.403-2.294-0.76-3.449-1.119
				c-1.594-0.495-3.161-1.032-4.496-2.014c-1.844-1.355-3.194-3-3.598-5.193c-0.301-1.637,0.242-3.043,1.447-4.251
				c0.593-0.595,1.334-0.919,2.207-0.993c0.195-0.016,0.389-0.042,0.721-0.078c-0.498-0.356-0.9-0.626-1.281-0.918
				c-2.999-2.306-5.393-5.061-7.236-8.226c-1.499-2.574-2.602-5.271-3.021-8.182c-0.218-1.517-0.207-3.03,0.102-4.536
				c0.138-0.672,0.367-1.31,0.869-1.842c0.669-0.709,1.652-0.83,2.431-0.217c0.416,0.327,0.805,0.73,1.062,1.171
				c0.563,0.964,1.127,1.944,1.521,2.973c0.582,1.518,1.327,2.917,2.534,4.103c1.103,1.083,1.891,2.364,2.612,3.681
				c0.11,0.202,0.245,0.392,0.477,0.554c-0.084-0.305-0.162-0.611-0.254-0.913c-0.645-2.129-1.008-4.292-0.932-6.508
				c0.125-3.631,1.393-6.857,4.033-9.593c0.614-0.636,1.36-1.121,2.217-1.45c1.003-0.384,1.609-0.28,2.285,0.516
				c0.433,0.51,0.743,1.108,1.102,1.67c0.149,0.234,0.283,0.476,0.479,0.806c0.152-0.226,0.243-0.353,0.324-0.484
				c0.479-0.769,0.903-1.571,1.447-2.298c0.569-0.761,1.331-1.339,2.369-1.532c0.85-0.158,1.551,0.07,2.15,0.623
				c0.798,0.736,1.44,1.566,1.857,2.539c0.284,0.662,0.59,1.315,0.936,2.085c0.746-1.546,1.792-2.742,2.952-3.849
				c1.418-1.352,3.017-2.499,4.883-3.299c2.234-0.957,4.335-0.675,6.202,0.738c0.625,0.473,1.045,1.188,1.514,1.82
				c0.328,0.441,0.533,0.962,0.881,1.386c0.314,0.383,0.704,0.747,1.139,1.008c2.375,1.425,3.55,3.895,3.051,6.47
				c-0.271,1.401-0.887,2.668-1.8,3.971c0.403-0.085,0.687-0.138,0.968-0.205c1.5-0.357,3.012-0.453,4.532-0.133
				c1.359,0.286,2.429,0.982,3.337,1.952c1.319,1.41,1.694,3.036,1.511,4.834c-0.225,2.207-1.142,4.198-2.226,6.139
				c-1.149,2.057-2.717,3.833-4.491,5.45c-0.787,0.717-1.709,1.311-2.566,2.046c0.357-0.092,0.723-0.162,1.07-0.281
				c1.416-0.485,2.875-0.786,4.383-0.872c1.023-0.058,2.038,0.004,3.012,0.317c0.381,0.122,0.765,0.273,1.096,0.48
				c1.472,0.921,1.723,2.609,0.529,3.827c-0.522,0.533-1.131,1.017-1.778,1.419c-1.897,1.178-3.724,2.429-5.36,3.909
				c-0.773,0.699-1.714,1.178-2.733,1.491c-5.451,1.673-10.883,1.745-16.259-0.267c-0.935-0.35-1.81-0.835-2.754-1.278
				c-0.125,1.77-1.545,2.658-2.955,3.473c-1.415,0.819-3.017,0.917-4.643,0.557c-0.317-0.07-0.636-0.13-1.065-0.217
				c-0.723,1.043-1.541,2.036-2.142,3.129c-1.751,3.185-3.46,6.391-5.104,9.625c-2.591,5.096-5.222,10.171-8.28,15.049
				c-1.699,2.71-3.531,5.342-5.483,7.906c-2.363,3.104-4.884,6.093-7.588,8.949c-3.232,3.411-6.823,6.466-10.868,9.06
				c-3.102,1.99-6.219,3.962-9.282,6.002c-2.552,1.699-4.997,3.531-7.202,5.606c-1.633,1.536-3.248,3.096-4.754,4.736
				c-1.292,1.407-2.426,2.937-3.617,4.421c-1.071,1.333-2.115,2.685-3.191,4.015c-1.349,1.668-2.71,3.327-4.083,4.978
				c-0.771,0.928-1.576,1.832-2.365,2.747C49.618,167.574,49.504,167.481,49.39,167.388z M122.25,40.405
				c-0.355-0.517-0.63-0.897-0.883-1.289c-0.336-0.521-0.622-1.071-0.989-1.571c-0.553-0.754-1.034-0.857-1.961-0.492
				c-0.981,0.386-1.77,1.005-2.427,1.76c-1.069,1.229-1.902,2.585-2.491,4.066c-1.177,2.962-1.25,5.996-0.589,9.045
				c1.152,5.315,3.496,10.127,7.466,14.19c1.65,1.688,3.528,3.156,5.631,4.365c0.306,0.176,0.629,0.312,1.026,0.145
				c0.2-0.487,0.389-0.994,0.614-1.486c1.578-3.451,3.785-6.551,6.458-9.351c0.912-0.956,1.33-1.962,1.288-3.164
				c-0.022-0.622-0.128-1.255-0.301-1.857c-0.621-2.159-1.697-4.146-2.876-6.083c-1.412-2.319-2.284-4.77-2.478-7.432
				c-0.076-1.044-0.312-2.079-0.481-3.118c-0.138-0.851-0.614-1.505-1.337-2.048c-0.408-0.307-0.829-0.415-1.336-0.368
				c-0.995,0.093-1.711,0.632-2.23,1.331c-0.611,0.823-1.081,1.733-1.615,2.605C122.611,39.859,122.474,40.061,122.25,40.405z
				 M127.474,70.892c0.151,0.124,0.232,0.223,0.339,0.272c0.341,0.155,0.682,0.315,1.04,0.431c2.143,0.694,4.328,0.848,6.526,0.283
				c1.751-0.45,3.522-0.717,5.337-0.761c0.406-0.01,0.813-0.042,1.217-0.085c3.164-0.339,6.203-1.063,8.911-2.662
				c2.678-1.581,4.736-3.726,6.381-6.21c1.127-1.703,2.039-3.5,2.514-5.455c0.447-1.839,0.561-3.652-0.634-5.342
				c-1.021-1.443-2.335-2.44-4.273-2.607c-1.074-0.093-2.133-0.05-3.184,0.172c-1.616,0.342-3.174,0.84-4.66,1.517
				c-3.429,1.565-6.377,3.744-9.066,6.206c-2.321,2.125-4.528,4.352-6.35,6.883c-1.405,1.953-2.698,3.951-3.645,6.127
				C127.75,70.067,127.62,70.491,127.474,70.892z M135.763,57.893c1.466-1.244,2.838-2.455,4.266-3.608
				c2.688-2.17,5.617-3.996,9.008-5.137c0.267-0.09,0.556-0.274,0.705-0.49c0.932-1.356,1.647-2.816,1.752-4.428
				c0.146-2.234-0.616-4.13-2.769-5.408c-0.752-0.447-1.397-1.007-1.81-1.762c-0.239-0.438-0.489-0.871-0.75-1.298
				c-0.497-0.815-1.21-1.438-2.093-1.888c-1.589-0.809-3.216-0.799-4.827-0.077c-2.439,1.094-4.461,2.668-6.092,4.655
				c-0.516,0.629-0.962,1.309-1.398,1.989c-0.286,0.446-0.281,0.918-0.012,1.402c0.369,0.665,0.674,1.359,1.033,2.028
				c2.321,4.33,3.272,8.907,2.961,13.716C135.73,57.673,135.75,57.76,135.763,57.893z M128.109,71.856
				c0.076,0.198,0.109,0.304,0.156,0.403c0.737,1.539,1.934,2.636,3.623,3.319c3.639,1.472,7.367,1.744,11.149,0.632
				c1.588-0.467,3.119-1.124,4.625-1.79c2.072-0.917,4.224-1.457,6.523-1.512c1.067-0.026,2.132-0.091,3.199-0.123
				c1.342-0.041,2.515-0.485,3.597-1.195c0.376-0.247,0.525-0.556,0.514-0.951c-0.014-0.481-0.193-0.902-0.544-1.274
				c-0.678-0.717-1.578-0.99-2.552-1.123c-1.457-0.199-2.895-0.046-4.309,0.277c-1.551,0.354-3.089,0.756-4.632,1.14
				c-0.122,0.03-0.24,0.076-0.357,0.121c-2.745,1.05-5.587,1.72-8.568,1.822c-1.686,0.058-3.33,0.304-4.955,0.722
				c-2.246,0.577-4.475,0.46-6.674-0.238C128.674,72.01,128.438,71.949,128.109,71.856z M121.535,75.052
				c0.847-0.357,1.514-0.183,2.102,0.252c0.731,0.539,1.442,1.101,2.139,1.676c0.68,0.562,1.305,1.182,2.003,1.723
				c1.166,0.902,2.144,1.008,3.292,0.432c0.826-0.414,0.989-1.681,0.316-2.287c-0.544-0.489-1.089-0.984-1.571-1.522
				c-0.959-1.07-1.651-2.29-2.26-3.554c-0.116-0.241-0.327-0.572-0.551-0.616c-0.639-0.126-1.185-0.39-1.732-0.687
				c-0.137-0.074-0.339-0.056-0.513-0.064c-0.632-0.03-1.272-0.001-1.894-0.087c-2.929-0.409-5.623-1.394-8.146-2.816
				c-1.644-0.927-3.634-0.462-4.516,0.835c-0.371,0.545-0.695,1.152-0.865,1.772c-0.412,1.495-0.093,2.095,1.347,2.918
				c0.086,0.049,0.167,0.107,0.254,0.156c1.367,0.762,2.767,1.013,4.262,0.292c0.584-0.282,1.193-0.526,1.809-0.741
				c0.893-0.311,1.821-0.437,2.772-0.257c0.801,0.151,1.307,0.58,1.456,1.342C121.315,74.203,121.422,74.584,121.535,75.052z
				 M114.554,66.935c0.028-0.028,0.056-0.055,0.084-0.083c-0.021-0.062-0.032-0.131-0.066-0.186c-0.064-0.1-0.131-0.203-0.216-0.288
				c-1.36-1.354-2.2-2.949-2.646-4.735c-0.212-0.849-0.592-1.637-1.139-2.352c-0.539-0.705-0.833-1.491-0.932-2.341
				c-0.071-0.603-0.109-1.21-0.182-1.813c-0.124-1.02-0.185-2.054-0.413-3.056c-0.643-2.828-1.851-5.47-3.298-8.023
				c-0.14-0.246-0.322-0.475-0.506-0.697c-0.845-1.02-2.08-0.916-2.624,0.266c-0.272,0.592-0.431,1.246-0.524,1.887
				c-0.334,2.31,0.021,4.57,0.765,6.776c1.646,4.879,4.53,9.047,8.665,12.464C112.474,65.54,113.541,66.211,114.554,66.935z
				 M130.635,75.412c1.013,1.111,2.174,2.007,3.566,2.621c5.661,2.494,11.441,2.474,17.27,0.601c0.863-0.277,1.706-0.773,2.38-1.345
				c1.516-1.287,3.084-2.495,4.815-3.53c0.587-0.351,1.125-0.771,1.685-1.159c-0.029-0.046-0.057-0.091-0.086-0.137
				c-0.957,0.463-1.972,0.703-3.042,0.746c-1.016,0.041-2.032,0.111-3.048,0.137c-2.25,0.057-4.363,0.57-6.377,1.492
				c-1.113,0.51-2.243,1.004-3.409,1.397c-4.544,1.531-9.009,1.457-13.34-0.683C130.921,75.488,130.773,75.458,130.635,75.412z
				 M109.658,72.727c-0.033,0.021-0.066,0.043-0.099,0.064c0.129,0.298,0.24,0.604,0.39,0.892c0.769,1.475,2.011,2.565,3.451,3.475
				c1.207,0.762,2.611,1.126,3.972,1.577c1.455,0.482,2.886,1.028,4.342,1.507c1.145,0.377,2.294,0.769,3.475,1.02
				c1.636,0.348,3.179,0.024,4.557-0.88c0.144-0.094,0.244-0.244,0.423-0.428c-1.338-0.056-2.33-0.591-3.199-1.344
				c-0.721-0.625-1.41-1.281-2.141-1.896c-0.485-0.408-1-0.794-1.539-1.14c-0.449-0.289-0.956-0.443-1.497-0.137
				c-0.1,0.056-0.236,0.057-0.431,0.1c-0.111-0.213-0.244-0.405-0.313-0.615c-0.102-0.312-0.161-0.636-0.235-0.956
				c-0.172-0.737-0.447-0.99-1.26-1.097c-0.823-0.109-1.627,0.004-2.395,0.28c-0.638,0.229-1.268,0.482-1.879,0.765
				c-1.374,0.635-2.712,0.515-4.005-0.16C110.706,73.46,110.195,73.073,109.658,72.727z M109.163,50.608
				c0.032,0.154,0.07,0.308,0.096,0.463c0.215,1.29,0.442,2.579,0.637,3.871c0.087,0.577,0.106,1.162,0.162,1.744
				c0.089,0.922,0.413,1.753,0.95,2.551c0.435,0.646,0.725,1.38,1.022,2.095c0.226,0.543,0.327,1.129,0.543,1.675
				c0.864,2.18,2.387,3.904,4.523,5.109c2.136,1.205,4.548,1.684,7.015,1.934c0.075,0.008,0.158-0.046,0.24-0.072
				c-1.437-1.178-2.911-2.258-4.218-3.488c-1.835-1.727-3.219-3.771-4.434-5.907c-1.338-2.353-2.665-4.712-4.018-7.058
				C111.051,52.432,110.205,51.478,109.163,50.608z M135.107,53.642c0.048-0.012,0.095-0.024,0.142-0.036
				c-0.002-0.115,0.008-0.231-0.008-0.344c-0.397-2.931-1.127-5.775-2.485-8.472c-0.777-1.542-1.481-3.114-2.213-4.675
				c-0.206-0.44-0.397-0.886-0.595-1.329c-0.024,0.785,0.125,1.533,0.184,2.286c0.209,2.652,1.094,5.098,2.469,7.43
				c0.795,1.348,1.438,2.774,2.135,4.17C134.89,52.982,134.984,53.318,135.107,53.642z"/>
		</g>
		<g>
			<path fill="#2BACE2" d="M150.956,55.761c-5.73,6.486-12.611,11.569-21.054,14.75c-0.04-0.053-0.08-0.106-0.12-0.158
				c0.166-0.072,0.329-0.151,0.499-0.215c3.581-1.362,6.859-3.21,9.948-5.338c1.739-1.198,3.402-2.493,5.069-3.777
				c0.678-0.523,1.287-1.123,1.908-1.706C148.462,58.138,149.707,56.947,150.956,55.761z"/>
			<path fill="#2BACE2" d="M120.713,55.498c0.037,2.8,0.401,5.526,1.177,8.204c0.518,1.788,1.179,3.53,2.377,5.043
				c0.533,0.673,1.181,1.27,1.777,1.902c-0.409,1.147-0.837,2.345-1.264,3.543c-0.045-0.013-0.089-0.026-0.134-0.038
				c0.357-1.187,0.714-2.374,1.071-3.56c-0.049-0.019-0.098-0.037-0.147-0.056c-0.631,1.408-1.529,2.653-2.665,3.759
				c0.758-1.355,1.818-2.565,2.341-4.033c-2.134-1.926-3.12-4.352-3.776-6.924c-0.565-2.215-0.872-4.459-0.818-6.738
				C120.66,56.232,120.692,55.865,120.713,55.498z"/>
			<path fill="#2BACE2" d="M131.005,45.644c0.08,0.351,0.191,0.699,0.234,1.054c0.213,1.746,0.156,3.493-0.05,5.234
				c-0.251,2.126-0.538,4.247-0.903,6.364c0.185-4.208,1.073-8.385,0.481-12.618C130.846,45.666,130.926,45.655,131.005,45.644z"/>
			<path fill="#2BACE2" d="M135.99,50.548c0.278-4.363,0.686-8.699,3.264-12.577c-0.523,1.324-1.134,2.625-1.544,3.977
				c-0.426,1.41-0.704,2.862-0.961,4.309c-0.252,1.424-0.396,2.864-0.587,4.297C136.105,50.552,136.048,50.55,135.99,50.548z"/>
			<path fill="#2BACE2" d="M117.452,59.738c-1.265-2.769-2.209-5.617-2.613-8.601c-0.25-1.842-0.101-3.666,0.362-5.484
				C114.348,50.571,115.907,55.151,117.452,59.738z"/>
			<path fill="#2BACE2" d="M152.187,60.55c2.751-2.585,5.663-4.841,7.681-7.849c-0.051,0.745-0.471,1.33-0.94,1.851
				c-1.831,2.033-3.806,3.94-6.059,5.589C152.694,60.269,152.492,60.369,152.187,60.55z"/>
			<path fill="#2BACE2" d="M122.859,39.371c-0.988,2.932-1.48,5.804-2.199,8.648c0.064-0.715,0.104-1.433,0.197-2.144
				c0.1-0.763,0.234-1.524,0.384-2.28c0.145-0.734,0.317-1.463,0.497-2.191C122.086,39.998,122.216,39.746,122.859,39.371z"/>
			<path fill="#2BACE2" d="M110.127,63.201c-3.451-3.643-5.181-7.884-5.254-12.701C105.194,55.23,106.926,59.47,110.127,63.201z"/>
			<path fill="#2BACE2" d="M138.088,71.403c3.98-0.872,7.429-2.734,10.771-4.662C147.258,68.472,140.271,71.544,138.088,71.403z"/>
			<path fill="#2BACE2" d="M140.17,75.921c-3.036,0.103-7.412-1.687-8.66-3.638c1.254,0.948,2.491,1.948,4.046,2.431
				C137.09,75.191,138.674,75.536,140.17,75.921z"/>
			<path fill="#2BACE2" d="M140.458,50.842c-1.377,2.579-2.424,5.324-4.451,7.577c-0.052-0.026-0.103-0.051-0.155-0.077
				c0.764-1.251,1.543-2.495,2.289-3.756c0.746-1.261,1.457-2.54,2.183-3.811C140.369,50.797,140.413,50.819,140.458,50.842z"/>
			<path fill="#2BACE2" d="M147.661,37.414c-0.214,0.824-0.74,1.418-1.059,2.093c-0.322,0.682-0.662,1.357-0.998,2.034
				c-0.345,0.695-0.696,1.388-1.044,2.082C144.638,42.254,146.743,37.919,147.661,37.414z"/>
			<path fill="#2BACE2" d="M144.768,60.275c-2.618,2.332-5.419,4.443-8.665,6.015C139.167,64.498,141.994,62.418,144.768,60.275z"/>
			<path fill="#2BACE2" d="M122.715,62.637c0.443,2.51,1.484,4.81,2.862,6.995C123.861,67.563,122.893,65.234,122.715,62.637z"/>
			<path fill="#2BACE2" d="M113.391,74.205c1.856-1.007,3.712-2.013,5.567-3.02C117.224,72.385,115.567,73.702,113.391,74.205z"/>
			<path fill="#2BACE2" d="M132.092,52.756c-0.004-1.575-0.008-3.15-0.012-4.759C132.536,48.568,132.565,51.152,132.092,52.756z"/>
			<path fill="#2BACE2" d="M108.831,60.369c-1.13-1.808-2.169-3.654-2.42-5.767c0.356,0.986,0.672,1.985,1.078,2.953
				C107.889,58.51,108.38,59.432,108.831,60.369z"/>
			<path fill="#2BACE2" d="M121.856,39.467c-0.38,1.09-0.761,2.181-1.166,3.342c-0.126-0.909,0.49-2.975,0.981-3.405
				C121.732,39.425,121.794,39.446,121.856,39.467z"/>
			<path fill="#2BACE2" d="M160.141,53.66c-0.082,0.913-1.156,2.56-2.11,3.374C158.763,55.862,159.452,54.761,160.141,53.66z"/>
			<path fill="#2BACE2" d="M132.909,72.589c1.362,0.526,2.723,1.052,4.085,1.577C135.517,73.873,134.09,73.467,132.909,72.589z"/>
			<path fill="#2BACE2" d="M148.15,38.2c-0.281,1.037-0.994,1.891-1.504,2.911C146.758,40.236,147.597,38.565,148.15,38.2z"/>
		</g>
		<g>
			<path fill="#2BACE2" d="M51.772,164.756c0.054-0.189,0.085-0.387,0.165-0.567c0.871-1.95,0.964-3.934,0.397-5.972
				c-0.775-2.786-2.207-5.247-4.174-7.471c-1.578-1.784-3.3-3.441-5.278-4.835c-1.545-1.089-3.218-2.032-4.877-2.976
				c-2.329-1.325-4.746-2.522-7.036-3.901c-2.25-1.355-4.354-2.893-6.295-4.633c-3.512-3.148-6.196-6.831-8.551-10.743
				c-0.364-0.604-0.644-1.251-0.949-1.85c0.254-0.283,0.452-0.224,0.634-0.052c0.919,0.871,1.797,1.782,2.76,2.609
				c1.409,1.21,2.838,2.407,4.331,3.528c3.094,2.324,6.741,3.589,10.562,4.486c2.995,0.703,5.844,1.734,8.511,3.174
				c5.821,3.144,9.559,7.713,11.072,13.772c0.992,3.969,0.948,7.975,0.311,11.982c-0.157,0.988-0.399,1.975-0.943,2.864
				c-0.141,0.23-0.33,0.436-0.497,0.652C51.866,164.801,51.819,164.778,51.772,164.756z M52.996,158.308
				c0.08-0.062,0.137-0.084,0.146-0.117c0.024-0.09,0.036-0.183,0.04-0.276c0.148-3.118-0.028-6.209-0.902-9.245
				c-1.386-4.814-4.314-8.665-8.689-11.565c-2.168-1.438-4.568-2.526-7.104-3.314c-1.827-0.568-3.696-1.021-5.545-1.528
				c-4.664-1.279-8.571-3.674-11.957-6.841c-0.734-0.687-1.494-1.351-2.241-2.026c0.015,0.213,0.089,0.382,0.185,0.541
				c1.411,2.352,3.039,4.572,4.809,6.707c0.898,1.083,1.892,2.086,3.094,2.879c2.745,1.811,5.832,2.899,9.13,3.509
				c0.088,0.016,0.182,0.01,0.273,0.014c-0.633-0.408-1.295-0.738-1.956-1.067c-0.668-0.333-1.341-0.658-2.003-1.001
				c-0.662-0.342-1.324-0.686-1.966-1.059c-0.663-0.385-1.314-0.79-1.95-1.212c-0.616-0.409-1.218-0.838-1.801-1.286
				c-0.585-0.449-1.152-0.92-1.704-1.402c-0.531-0.463-1.156-0.846-1.52-1.465c0.431,0.25,0.796,0.568,1.182,0.862
				c1.268,0.969,2.476,2.022,3.834,2.872c1.733,1.085,3.569,2.035,5.397,2.985c2.183,1.134,4.377,2.256,6.738,3.063
				c3.071,1.05,5.641,2.765,7.713,5.074c1.938,2.16,3.404,4.581,4.29,7.275c0.793,2.413,1.567,4.832,2.351,7.247
				C52.88,158.055,52.939,158.172,52.996,158.308z M26.284,134.973c-0.031,0.028-0.063,0.057-0.094,0.085
				c0.653,0.478,1.313,0.949,1.959,1.435c2.007,1.51,4.177,2.799,6.411,4.002c2.688,1.448,5.448,2.785,7.96,4.499
				c2.134,1.456,4.004,3.157,5.699,5.024c0.822,0.905,1.564,1.871,2.353,2.823c0.001-0.079,0.019-0.151,0-0.213
				c-0.733-2.388-1.685-4.686-3.151-6.793c-2.031-2.92-4.652-5.207-8.116-6.643c-2.328-0.965-4.803-1.484-7.249-2.106
				c-1.291-0.328-2.55-0.772-3.801-1.216C27.575,135.628,26.94,135.276,26.284,134.973z"/>
		</g>
		<g>
			<path fill="#2BACE2" d="M86.519,133.229c0.194-0.199,0.355-0.44,0.586-0.592c2.694-1.782,5.371-3.587,8.111-5.307
				c1.336-0.839,2.768-1.558,4.203-2.25c1.955-0.943,3.976-1.78,5.734-3.028c1.042-0.74,2.06-1.519,3.012-2.354
				c1.855-1.628,3.609-3.353,5.489-4.955c2.379-2.027,4.755-4.075,7.575-5.6c3.28-1.773,6.757-3.146,10.444-4.007
				c3.867-0.903,7.763-1.703,11.649-2.537c0.846-0.181,0.866-0.158,1.399-0.006c0.142,0.35-0.194,0.385-0.398,0.472
				c-1.083,0.46-2.17,0.913-3.263,1.353c-2.357,0.949-4.587,2.1-6.642,3.527c-1.851,1.286-3.504,2.766-5.016,4.379
				c-1.36,1.451-2.67,2.944-4.073,4.36c-1.676,1.691-3.418,3.326-5.148,4.971c-1.725,1.64-3.704,2.974-5.911,4.016
				c-3.493,1.65-7.206,2.661-11.084,3.18c-1.686,0.226-3.373,0.442-5.061,0.657c-4.055,0.517-7.862,1.665-11.307,3.738
				c-0.059,0.036-0.131,0.055-0.197,0.082C86.585,133.296,86.552,133.263,86.519,133.229z M133.564,106.673
				c0.014,0.027,0.029,0.054,0.043,0.081c-0.165,0.087-0.328,0.176-0.495,0.26c-1.268,0.636-2.558,1.236-3.798,1.915
				c-1.855,1.016-3.612,2.168-5.133,3.586c-1.051,0.979-2.032,2.022-3.046,3.035c-1.532,1.529-3.043,3.076-4.606,4.578
				c-0.928,0.892-1.873,1.788-2.925,2.548c-3.07,2.215-6.499,3.808-10.301,4.677c-2.54,0.581-5.092,1.121-7.632,1.705
				c-0.719,0.165-1.413,0.422-2.119,0.636c0.015,0.048,0.03,0.097,0.045,0.145c0.074-0.014,0.149-0.023,0.222-0.041
				c2.534-0.647,5.138-0.926,7.733-1.25c3.898-0.486,7.702-1.279,11.291-2.819c2.037-0.874,3.958-1.91,5.615-3.312
				c1.176-0.995,2.334-2.014,3.436-3.077c1.367-1.318,2.681-2.684,3.996-4.046c1.586-1.643,3.083-3.364,4.743-4.94
				c1.194-1.133,2.546-2.141,3.912-3.105c1.982-1.398,4.192-2.455,6.496-3.341c0.284-0.109,0.556-0.244,0.833-0.368
				c-0.281-0.087-0.506-0.065-0.725-0.015c-3.358,0.757-6.734,1.454-10.068,2.294c-3.493,0.88-6.811,2.19-9.902,3.937
				c-3.047,1.721-5.597,4.01-8.184,6.245c-1.443,1.247-2.781,2.596-4.214,3.853c-0.99,0.868-2.025,1.7-3.104,2.473
				c-1.791,1.284-3.815,2.219-5.862,3.102c-2.216,0.957-4.279,2.134-6.175,3.556c-0.061,0.045-0.089,0.127-0.186,0.271
				c0.856-0.241,1.595-0.482,2.353-0.655c2.17-0.497,4.345-0.978,6.524-1.443c5.068-1.08,9.502-3.235,13.192-6.616
				c1.313-1.203,2.57-2.463,3.779-3.755c1.792-1.913,3.599-3.814,5.665-5.479c2.383-1.92,5.1-3.366,8.021-4.488
				C133.171,106.752,133.372,106.722,133.564,106.673z"/>
		</g>
	</g>
</g>
</svg>
