<?xml version="1.0" encoding="utf-8"?>
<!-- Generator: Adobe Illustrator 21.0.0, SVG Export Plug-In . SVG Version: 6.00 Build 0)  -->
<svg version="1.1" id="Layer_1" xmlns="http://www.w3.org/2000/svg" xmlns:xlink="http://www.w3.org/1999/xlink" x="0px" y="0px"
	 viewBox="0 0 100 150" enable-background="new 0 0 100 150" xml:space="preserve">
<g>
	<g>
		<g>
			<path fill="#2BACE2" d="M39.585,43.584c0,0,2.849,19.368,1.289,32.727c-1.56,13.359-2.136,21.088,0.122,33.013
				c2.258,11.925,3.941,19.384,2.182,27.928"/>
		</g>
		<g>
			<path fill="#2BACE2" d="M65.86,52.23c0,0-13.567,12.884-19.738,30.9c-6.171,18.016-5.126,26.194-5.126,26.194"/>
		</g>
		<g>
			<path fill="#2BACE2" d="M52.914,111.802c0,0-6.95,8.769-8.954,18.892"/>
		</g>
		<g>
			<path fill="#2BACE2" d="M48.915,12.748c0,0-15.651,16.22-9.093,32.588c0,0,1.349-3.967,5.212-11.915
				C48.897,25.473,47.206,18.279,48.915,12.748z"/>
		</g>
		<g>
			<path fill="#2BACE2" d="M52.728,38.044c0,0-5.533,19.122,0.31,29.614c0,0,5.968-10.107,3.283-18.891
				C53.636,39.982,52.728,38.044,52.728,38.044z"/>
		</g>
		<g>
			<path fill="#2BACE2" d="M90.53,21.401c0,0-0.53,16.915-8.438,23.703c-7.908,6.789-16.849,7.767-16.849,7.767
				s-1.337-4.256,12.25-15.817C91.081,25.493,90.53,21.401,90.53,21.401z"/>
		</g>
		<g>
			<path fill="#2BACE2" d="M23.386,48.172c0,0,15.827-0.743,17.188,18.468c0,0-6.795-2.305-7.802-6.652
				C31.765,55.642,23.386,48.172,23.386,48.172z"/>
		</g>
		<g>
			<path fill="#2BACE2" d="M19.135,65.426c0,0,5.18,14.124,11.976,18.879c6.796,4.754,8.595,6.555,8.595,6.555
				S36.528,72.862,19.135,65.426z"/>
		</g>
		<g>
			<path fill="#2BACE2" d="M42.529,93.34c0,0,8.019-18.346,18.03-21.362c10.012-3.016,16.984-9.522,16.984-9.522
				s-1.031,9.81-14.637,16.527C49.3,85.7,42.529,93.34,42.529,93.34z"/>
		</g>
		<g>
			<path fill="#2BACE2" d="M9.467,110.99c0,0,9.822-6.231,21.354-0.333c11.532,5.898,13.15,18.449,13.15,18.449
				s-5.623-1.132-11.5-8.878C26.593,112.483,17.142,111.472,9.467,110.99z"/>
		</g>
		<g>
			<path fill="#2BACE2" d="M52.914,111.802c0,0-0.983-7.257,11.535-16.588C76.967,85.884,79.602,78,79.602,78
				S81.3,103.918,52.914,111.802z"/>
		</g>
		<g>
			<path fill="#2BACE2" d="M81.813,39.043c-1.621,3.023-4.609,5.218-7.638,7.119c-3.029,1.901-6.243,3.649-8.68,6.168"/>
		</g>
		<g>
			<path fill="#2BACE2" d="M62.089,74.742c-7.286,3.983-13.738,9.248-18.902,15.425"/>
		</g>
		<g>
			<path fill="#2BACE2" d="M70.648,96.519c-1.885,1.628-3.849,3.18-5.883,4.649c-4.278,3.09-9.008,5.955-11.716,10.291"/>
		</g>
		<g>
			<path fill="#2BACE2" d="M30.868,115.15c2.589,1.576,4.269,4.098,6.026,6.451c1.757,2.353,3.828,4.722,6.749,5.69"/>
		</g>
		<g>
			<path fill="#2BACE2" d="M30.339,79.186c3.052,2.974,5.76,6.246,8.062,9.743"/>
		</g>
		<g>
			<path fill="#2BACE2" d="M31.303,53.158c1.369,2.563,2.738,5.127,4.107,7.69c1.068,1.999,2.288,4.141,4.482,5.088"/>
		</g>
		<g>
			<path fill="#2BACE2" d="M53.143,51.059c-1.014,5.191-0.983,10.552,0.091,15.733"/>
		</g>
		<g>
			<path fill="#2BACE2" d="M43.151,28.145c-0.26,1.556-0.521,3.113-0.781,4.669c-0.182,1.087-0.364,2.178-0.684,3.238
				c-0.271,0.9-0.64,1.774-0.933,2.669c-0.586,1.787-0.869,3.658-0.836,5.524"/>
		</g>
	</g>
</g>
</svg>
