<?xml version="1.0" encoding="utf-8"?>
<!-- Generator: Adobe Illustrator 21.0.0, SVG Export Plug-In . SVG Version: 6.00 Build 0)  -->
<svg version="1.1" id="Layer_1" xmlns="http://www.w3.org/2000/svg" xmlns:xlink="http://www.w3.org/1999/xlink" x="0px" y="0px"
	 viewBox="0 0 150 70" enable-background="new 0 0 150 70" xml:space="preserve">
<g>
	<path fill="#00AEEF" d="M114.105,45.008c1.433-0.44,3.25-0.505,4.862-0.173c1.437,0.296,2.785,0.853,4.211,1.443
		c2.082,0.861,4.235,1.751,6.662,1.745c4.281-0.012,8.971-2.218,9.297-6.868c0.363-5.179-3.337-9.96-14.339-9.187
		c-4.478,0.315-9.188,2.082-12.808,4.866c0.264-1.777-0.088-3.585-1.072-5.11c-1.222-1.894-3.162-2.902-5.25-2.831
		c-0.651,0.022-1.317,0.149-1.98,0.387c-0.36,0.129-0.762,0.331-1.166,0.604c-1.728,0.819-6.422,4.99-9.281,6.362
		c-1.234,0.592-2.874,0.547-3.857,0.326c-1.614-0.364-2.942-1.991-3.09-3.784c-0.148-1.794,0.894-3.653,2.422-4.327
		c0.953-0.419,2.02-0.338,2.719,0.208c0.71,0.554,1.181,1.837,0.622,2.415c-1.096,1.132-1.055-1.156-2.547-0.771
		c-0.385,0.1-1.285,0.589-0.705,2.038c0.351,0.875,1.545,1.585,2.569,1.494c3.215-0.285,3.045-4.867,0.893-6.451
		c-1.018-0.749-3.173-0.749-4.419,0.144c-0.932,0.668-2.773,2.639-2.525,5.537c0.214,2.494,1.857,4.161,4.102,4.665
		c1.616,0.362,4.144-0.272,5.553-1.494c-2.279,2.808-1.043,4.795-0.376,5.349c1.137,0.946,2.669,0.464,3.343-0.199
		c0.578-0.569,1.218-2.252-0.025-3.474c-0.978-0.962-2.196,0.227-1.633,1.077c0.237,0.357,0.484,0.843,0.256,1.175
		c-0.214,0.312-0.767,0.463-1.137,0.311c-0.597-0.246-0.966-1.378-0.705-2.163c0.353-1.06,0.733-1.894,2.011-2.879
		c0.452-0.311,2.725-1.917,3.4-2.37c-1.156,5.03,1.955,6.608,3.032,6.797c3.85,0.678,4.201-2.638,4.278-3.959
		c0.068-1.176-0.395-2.367-1.464-2.881c-0.414-0.2-1.492-0.453-1.906,0.589c-0.18,0.454,0.394,1.084,0.808,1.283
		c0.547,0.264,0.871,0.693,0.937,1.241c0.07,0.581,0.36,2.338-2.035,2.593c-1.699,0.181-4.144-2.536-2.362-6.204
		c3.522-4.141,7.237-1.231,8.175,0.223c1.248,1.936,1.115,4.511-0.341,6.56c-1.294,1.822-4.786,6.694-17.009,4.81
		c-6.441-0.992-11.676-3.482-16.246-6.988c1.87-1.376,9.342-7.087,10.636-12.244c0.91-3.626,0.646-7.032-2.063-9.188
		c-1.051-0.836-2.976-1.087-4.487-0.755c-1.953,0.43-3.496,1.983-4.735,4.136c-1.239-2.153-2.782-3.707-4.735-4.136
		c-1.511-0.332-3.437-0.082-4.488,0.755c-2.709,2.156-2.972,5.562-2.063,9.188c1.293,5.157,8.766,10.867,10.636,12.244
		c-4.569,3.506-9.805,5.996-16.246,6.988c-12.223,1.884-15.715-2.988-17.009-4.81c-1.455-2.049-1.589-4.624-0.341-6.56
		c0.938-1.454,4.653-4.364,8.175-0.223c1.782,3.668-0.663,6.385-2.362,6.204c-2.395-0.255-2.104-2.012-2.035-2.593
		c0.066-0.548,0.39-0.978,0.937-1.241c0.414-0.199,0.988-0.829,0.808-1.283c-0.414-1.042-1.492-0.789-1.906-0.589
		c-1.069,0.514-1.532,1.705-1.464,2.881c0.077,1.321,0.428,4.637,4.278,3.959c1.078-0.19,4.189-1.768,3.032-6.797
		c0.676,0.453,2.949,2.058,3.4,2.37c1.278,0.984,1.659,1.818,2.011,2.879c0.261,0.785-0.108,1.917-0.705,2.163
		c-0.371,0.153-0.923,0.001-1.137-0.311c-0.228-0.332,0.02-0.818,0.256-1.175c0.563-0.85-0.655-2.039-1.633-1.077
		c-1.243,1.223-0.603,2.905-0.025,3.474c0.674,0.663,2.206,1.145,3.344,0.199c0.667-0.555,1.903-2.541-0.376-5.349
		c1.409,1.223,3.936,1.856,5.553,1.494c2.245-0.503,3.888-2.171,4.102-4.665c0.249-2.898-1.593-4.869-2.524-5.537
		c-1.246-0.893-3.401-0.893-4.419-0.144c-2.152,1.584-2.321,6.166,0.894,6.451c1.024,0.091,2.219-0.619,2.569-1.494
		c0.58-1.449-0.319-1.938-0.704-2.038c-1.492-0.386-1.451,1.902-2.547,0.771c-0.559-0.577-0.087-1.86,0.622-2.415
		c0.699-0.546,1.766-0.627,2.719-0.208c1.529,0.673,2.57,2.533,2.422,4.327c-0.148,1.794-1.476,3.421-3.09,3.784
		c-0.983,0.221-2.622,0.266-3.857-0.326c-2.859-1.372-7.553-5.543-9.281-6.362c-0.405-0.273-0.806-0.475-1.166-0.604
		c-0.663-0.238-1.329-0.365-1.98-0.387c-2.088-0.071-4.028,0.937-5.25,2.831c-0.984,1.525-1.336,3.333-1.072,5.11
		c-3.619-2.784-8.33-4.551-12.808-4.866c-11.001-0.773-14.702,4.008-14.339,9.187c0.326,4.651,5.016,6.857,9.297,6.868
		c2.428,0.006,4.58-0.884,6.662-1.745c1.427-0.59,2.774-1.147,4.211-1.443c1.612-0.332,3.43-0.267,4.862,0.173
		c1.723,0.529,2.808,1.524,3.226,2.957c0.442,1.516-0.3,2.7-1.104,3.359c-4.422,3.625-6.494-3.303-3.055-3.303
		c0.338,0,0.713,0.525,0.539,1.085c-0.146,0.468-0.456,1.461,0.124,1.904c0.849,0.648,1.85-0.136,2.196-1.434
		c0.301-1.128-0.197-2.628-1.569-3.273c-0.617-0.29-1.369-0.295-2.064-0.015c-0.735,0.297-1.345,0.886-1.717,1.659
		c-0.826,1.716-0.656,3.495,0.709,4.96c2.072,2.224,8.205,1.092,7.334-5.52c-0.275-2.092-1.783-3.532-3.688-4.257
		c-1.657-0.63-4.254-0.687-6.133-0.317c-4.061,0.799-7.252,3.804-10.608,3.804c-2.626,0-7.479-0.877-8.08-4.891
		c-0.249-1.667,0.083-6.34,6.009-7.246c-3.522,3.487-2.442,7.365-1.415,8.682c1.144,1.467,2.985,2.232,4.923,2.044
		c1.947-0.188,3.673-1.266,4.204-3.028c0.249-0.826,0.566-2.84-1.069-4.422c-0.743-0.719-1.758-0.981-2.726-0.976
		c-1.844,0.01-3.957,1.73-2.594,4.589c0.471,0.987,1.952,1.761,3.185,0.831c0.514-0.388,0.813-1.156,0.674-1.561
		c-0.502-1.455-2.797-0.341-2.259-1.605c0.245-0.575,0.812-0.658,1.141-0.695c0.572-0.064,1.181,0.156,1.63,0.591
		c0.778,0.752,0.936,1.843,0.69,2.66c-0.357,1.184-1.613,1.921-3.001,2.055c-1.477,0.143-2.911-0.113-3.754-1.194
		c-0.507-0.65-3.149-4.71,3.025-8.423c7.21-1.325,13.761,1.251,18.845,6.45c0.814,1.124,2.353,2.656,5.111,3.704
		c3.033,1.153,16.276,3.929,30.042-6.584c13.766,10.513,27.008,7.737,30.042,6.584c2.758-1.048,4.297-2.581,5.111-3.704
		c5.085-5.198,11.635-7.775,18.845-6.45c6.174,3.713,3.532,7.773,3.025,8.423c-0.843,1.081-2.277,1.337-3.754,1.194
		c-1.388-0.134-2.644-0.871-3.001-2.055c-0.246-0.817-0.087-1.908,0.69-2.66c0.449-0.434,1.058-0.655,1.63-0.591
		c0.329,0.037,0.896,0.12,1.141,0.695c0.538,1.264-1.757,0.15-2.259,1.605c-0.14,0.405,0.159,1.173,0.674,1.561
		c1.233,0.93,2.714,0.156,3.185-0.831c1.363-2.859-0.751-4.579-2.594-4.589c-0.969-0.005-1.983,0.257-2.726,0.976
		c-1.635,1.581-1.318,3.596-1.069,4.422c0.531,1.762,2.257,2.839,4.204,3.028c1.938,0.188,3.779-0.577,4.923-2.044
		c1.026-1.316,2.107-5.195-1.415-8.682c5.926,0.906,6.258,5.579,6.008,7.246c-0.601,4.014-5.453,4.891-8.08,4.891
		c-3.356,0-6.547-3.005-10.608-3.804c-1.879-0.37-4.476-0.313-6.133,0.317c-1.904,0.724-3.412,2.165-3.688,4.257
		c-0.87,6.612,5.262,7.744,7.334,5.52c1.365-1.465,1.535-3.244,0.709-4.96c-0.372-0.773-0.982-1.362-1.717-1.659
		c-0.695-0.28-1.447-0.275-2.064,0.015c-1.373,0.645-1.87,2.145-1.569,3.273c0.346,1.298,1.347,2.082,2.196,1.434
		c0.58-0.443,0.27-1.435,0.124-1.904c-0.174-0.56,0.201-1.085,0.539-1.085c3.439,0,1.368,6.929-3.055,3.303
		c-0.804-0.659-1.546-1.843-1.104-3.359C111.297,46.532,112.382,45.537,114.105,45.008z M64.722,23.933
		c-0.505-2.489-0.122-8.567,5.834-7.607c1.752,0.282,3.383,1.93,4.488,3.867c0.033,0.058,0.18,0.304,0.291,0.304
		c0.111,0,0.24-0.241,0.273-0.3c1.105-1.937,2.754-3.589,4.506-3.871c5.956-0.96,6.398,5.103,5.844,7.581
		c-1.131,5.059-10.624,12.127-10.624,12.127S65.71,28.798,64.722,23.933z"/>
	<path fill="#00AEEF" d="M112.856,34.874c1.531-0.716,2.612-2.455,2.658-4.274c0.04-1.584-1.04-2.866-2.41-1.839
		C111.474,29.983,113.912,32.949,112.856,34.874z"/>
	<path fill="#00AEEF" d="M110.818,30.654c0.748-1.627,0.549-3.717-0.489-5.141c-0.904-1.238-2.486-1.459-2.927,0.293
		C106.876,27.889,110.49,28.439,110.818,30.654z"/>
	<path fill="#00AEEF" d="M106.375,28.334c-0.632-1.684-2.205-2.893-3.87-2.971c-1.448-0.068-2.638,1.091-1.72,2.605
		C101.878,29.769,104.63,27.151,106.375,28.334z"/>
	<path fill="#00AEEF" d="M122.897,49.942c-0.882,1.193-0.741,2.873,0.866,2.963c1.912,0.107,1.631-3.741,3.478-4.545
		C125.677,47.928,123.911,48.571,122.897,49.942z"/>
	<path fill="#00AEEF" d="M129.627,52.305c-0.185,1.52,0.736,2.874,2.15,2.037c1.683-0.997-0.39-4.122,0.804-5.859
		C131.041,49.004,129.839,50.558,129.627,52.305z"/>
	<path fill="#00AEEF" d="M136.775,46.359c-1.249,1.115-1.828,3.049-1.424,4.755c0.351,1.485,1.671,2.361,2.693,1.004
		C139.262,50.503,136.266,48.459,136.775,46.359z"/>
	<path fill="#00AEEF" d="M139.055,43.612c-0.477,1.683,0.018,3.645,1.218,4.823c1.043,1.025,2.586,0.96,2.753-0.789
		C143.223,45.565,139.692,45.67,139.055,43.612z"/>
	<path fill="#00AEEF" d="M37.813,34.874c-1.056-1.925,1.383-4.891-0.248-6.114c-1.37-1.027-2.45,0.256-2.41,1.839
		C35.201,32.419,36.282,34.157,37.813,34.874z"/>
	<path fill="#00AEEF" d="M43.268,25.806c-0.442-1.751-2.024-1.531-2.927-0.293c-1.038,1.423-1.237,3.514-0.49,5.141
		C40.18,28.439,43.794,27.889,43.268,25.806z"/>
	<path fill="#00AEEF" d="M49.885,27.968c0.919-1.514-0.272-2.673-1.72-2.605c-1.664,0.079-3.238,1.287-3.869,2.971
		C46.04,27.151,48.792,29.769,49.885,27.968z"/>
	<path fill="#00AEEF" d="M23.43,48.36c1.847,0.803,1.565,4.652,3.478,4.545c1.607-0.09,1.748-1.77,0.866-2.963
		C26.759,48.571,24.993,47.928,23.43,48.36z"/>
	<path fill="#00AEEF" d="M18.088,48.483c1.194,1.737-0.879,4.862,0.804,5.859c1.415,0.838,2.335-0.517,2.151-2.037
		C20.83,50.558,19.629,49.004,18.088,48.483z"/>
	<path fill="#00AEEF" d="M13.895,46.359c0.509,2.1-2.487,4.144-1.27,5.759c1.023,1.357,2.342,0.481,2.694-1.004
		C15.722,49.408,15.144,47.474,13.895,46.359z"/>
	<path fill="#00AEEF" d="M7.645,47.646c0.167,1.749,1.709,1.815,2.753,0.789c1.199-1.178,1.694-3.14,1.218-4.823
		C10.978,45.67,7.447,45.565,7.645,47.646z"/>
</g>
</svg>
