<?xml version="1.0" encoding="utf-8"?>
<!-- Generator: Adobe Illustrator 21.0.0, SVG Export Plug-In . SVG Version: 6.00 Build 0)  -->
<svg version="1.1" id="Layer_1" xmlns="http://www.w3.org/2000/svg" xmlns:xlink="http://www.w3.org/1999/xlink" x="0px" y="0px"
	 viewBox="0 0 70 70" enable-background="new 0 0 70 70" xml:space="preserve">
<path fill="#CEE3E9" d="M50.727,63.473H21.273c-9.255,0-16.758-7.503-16.758-16.758V23.285c0-9.255,7.503-16.758,16.758-16.758
	h29.454c9.255,0,16.758,7.503,16.758,16.758v23.429C67.485,55.97,59.982,63.473,50.727,63.473z"/>
<path fill="#3E7C94" d="M49.373,19.644c-9.535,4.526-19.071,9.051-28.606,13.577c-1.794,0.851-1.554,3.477,0.365,3.989
	c3.175,0.847,6.35,1.694,9.526,2.542c0.632,0.169,1.152,0.618,1.411,1.22c1.292,3.012,2.585,6.023,3.877,9.035
	c0.733,1.707,3.146,1.727,3.907,0.032l12.382-27.593C53.046,20.635,51.165,18.793,49.373,19.644z"/>
</svg>
