<?xml version="1.0" encoding="utf-8"?>
<!-- Generator: Adobe Illustrator 21.0.0, SVG Export Plug-In . SVG Version: 6.00 Build 0)  -->
<svg version="1.1" id="Layer_1" xmlns="http://www.w3.org/2000/svg" xmlns:xlink="http://www.w3.org/1999/xlink" x="0px" y="0px"
	 viewBox="0 0 380 50" enable-background="new 0 0 380 50" xml:space="preserve">
<linearGradient id="SVGID_1_" gradientUnits="userSpaceOnUse" x1="232.6423" y1="23.4916" x2="378.8264" y2="23.4916">
	<stop  offset="0" style="stop-color:#1B75BC"/>
	<stop  offset="0.2086" style="stop-color:#0093D6"/>
	<stop  offset="0.3917" style="stop-color:#00AEEF"/>
	<stop  offset="0.5858" style="stop-color:#00AEEF"/>
	<stop  offset="0.6166" style="stop-color:#00A8E9"/>
	<stop  offset="0.798" style="stop-color:#008ED1"/>
	<stop  offset="0.9308" style="stop-color:#007CC2"/>
	<stop  offset="1" style="stop-color:#1B75BC"/>
</linearGradient>
<rect x="232.642" y="23.043" fill="url(#SVGID_1_)" width="146.184" height="0.898"/>
<linearGradient id="SVGID_2_" gradientUnits="userSpaceOnUse" x1="1.2598" y1="23.4916" x2="157.5013" y2="23.4916">
	<stop  offset="0" style="stop-color:#1B75BC"/>
	<stop  offset="0.2086" style="stop-color:#0093D6"/>
	<stop  offset="0.3917" style="stop-color:#00AEEF"/>
	<stop  offset="0.5858" style="stop-color:#00AEEF"/>
	<stop  offset="0.6166" style="stop-color:#00A8E9"/>
	<stop  offset="0.798" style="stop-color:#008ED1"/>
	<stop  offset="0.9308" style="stop-color:#007CC2"/>
	<stop  offset="1" style="stop-color:#1B75BC"/>
</linearGradient>
<rect x="1.26" y="23.043" fill="url(#SVGID_2_)" width="156.241" height="0.898"/>
<g>
	<linearGradient id="SVGID_3_" gradientUnits="userSpaceOnUse" x1="171.3584" y1="16.7763" x2="194.022" y2="16.7763">
		<stop  offset="0" style="stop-color:#1B75BC"/>
		<stop  offset="0.2086" style="stop-color:#0093D6"/>
		<stop  offset="0.3917" style="stop-color:#00AEEF"/>
		<stop  offset="0.5858" style="stop-color:#00AEEF"/>
		<stop  offset="0.6166" style="stop-color:#00A8E9"/>
		<stop  offset="0.798" style="stop-color:#008ED1"/>
		<stop  offset="0.9308" style="stop-color:#007CC2"/>
		<stop  offset="1" style="stop-color:#1B75BC"/>
	</linearGradient>
	<path fill="url(#SVGID_3_)" d="M192.661,25.225c1.746-2.552,1.811-7.565,0.203-10.157c-1.739-2.803-5.566-4.447-7.453-7.198
		c-0.542,1.845,1.312,4.098,2.337,5.573c-2.161-2.23-3.602-3.23-7.533-2.681c-4.178,0.583-5.539,0.217-8.856-1.789
		c0.974,3.942,5.33,6.201,9.754,7.322c5.102,1.293,8.275,3.402,9.815,7.487c1.727-6.319-8.788-7.581-13.424-10.137
		c3.828,0.763,8.445-0.037,11.594,2.176c3.592,2.519,3.738,6.306,3.364,9.863L192.661,25.225z"/>
	<linearGradient id="SVGID_4_" gradientUnits="userSpaceOnUse" x1="190.7744" y1="13.0658" x2="200.3339" y2="13.0658">
		<stop  offset="0" style="stop-color:#1B75BC"/>
		<stop  offset="0.2086" style="stop-color:#0093D6"/>
		<stop  offset="0.3917" style="stop-color:#00AEEF"/>
		<stop  offset="0.5858" style="stop-color:#00AEEF"/>
		<stop  offset="0.6166" style="stop-color:#00A8E9"/>
		<stop  offset="0.798" style="stop-color:#008ED1"/>
		<stop  offset="0.9308" style="stop-color:#007CC2"/>
		<stop  offset="1" style="stop-color:#1B75BC"/>
	</linearGradient>
	<path fill="url(#SVGID_4_)" d="M194.803,25.397c1.002-4.772,2.426-8.084-0.941-12.619c-2.368-3.187-5.301-9.008-0.532-12.043
		c-0.093,3.426,5.229,5.585,6.476,8.756c1.28,3.252-0.031,7.023-1.136,10.295c0.337-4.212-0.507-10.48-4.676-13.654
		c0.121,0.081-0.187-0.291,0.01-0.077c0.014,0.136,0.158,0.091,0.224,0.078c-1.168,3.722,1.123,5.841,2.68,9.166
		c1.665,3.561,0.031,6.152-1.31,8.875L194.803,25.397z"/>
	<linearGradient id="SVGID_5_" gradientUnits="userSpaceOnUse" x1="197.9265" y1="16.5403" x2="213.8687" y2="16.5403">
		<stop  offset="0" style="stop-color:#1B75BC"/>
		<stop  offset="0.2086" style="stop-color:#0093D6"/>
		<stop  offset="0.3917" style="stop-color:#00AEEF"/>
		<stop  offset="0.5858" style="stop-color:#00AEEF"/>
		<stop  offset="0.6166" style="stop-color:#00A8E9"/>
		<stop  offset="0.798" style="stop-color:#008ED1"/>
		<stop  offset="0.9308" style="stop-color:#007CC2"/>
		<stop  offset="1" style="stop-color:#1B75BC"/>
	</linearGradient>
	<path fill="url(#SVGID_5_)" d="M197.927,24.811c4.403-1.994,4.57-6.018,6.576-9.304c1.797-2.948,5.81-4.505,7.482-7.547
		c3.586,2.852,1.271,7.665-0.534,10.992c-1.959,3.618-6.11,5.939-11.089,6.169c2.89-1.789,5.071-3.378,4.97-6.643
		c-1.779,2.787-2.859,5.177-6.626,6.342L197.927,24.811z"/>
	<linearGradient id="SVGID_6_" gradientUnits="userSpaceOnUse" x1="198.3251" y1="35.9049" x2="215.2864" y2="35.9049">
		<stop  offset="0" style="stop-color:#1B75BC"/>
		<stop  offset="0.2086" style="stop-color:#0093D6"/>
		<stop  offset="0.3917" style="stop-color:#00AEEF"/>
		<stop  offset="0.5858" style="stop-color:#00AEEF"/>
		<stop  offset="0.6166" style="stop-color:#00A8E9"/>
		<stop  offset="0.798" style="stop-color:#008ED1"/>
		<stop  offset="0.9308" style="stop-color:#007CC2"/>
		<stop  offset="1" style="stop-color:#1B75BC"/>
	</linearGradient>
	<path fill="url(#SVGID_6_)" d="M198.863,27.428c6.429,0.487,12.863,0.17,15.689,5.818c1.963,3.92-0.511,7.413-1.612,11.135
		c-2.869-3.219-7.989-3.083-10.54-6.638c-2.122-2.959-1.982-6.61-4.075-9.568c4.82,0.316,6.991,2.762,9.721,5.565
		c-0.552-2.127-2.783-5.13-6.077-5.672L198.863,27.428z"/>
	<linearGradient id="SVGID_7_" gradientUnits="userSpaceOnUse" x1="181.0361" y1="35.0176" x2="198.7334" y2="35.0176">
		<stop  offset="0" style="stop-color:#1B75BC"/>
		<stop  offset="0.2086" style="stop-color:#0093D6"/>
		<stop  offset="0.3917" style="stop-color:#00AEEF"/>
		<stop  offset="0.5858" style="stop-color:#00AEEF"/>
		<stop  offset="0.6166" style="stop-color:#00A8E9"/>
		<stop  offset="0.798" style="stop-color:#008ED1"/>
		<stop  offset="0.9308" style="stop-color:#007CC2"/>
		<stop  offset="1" style="stop-color:#1B75BC"/>
	</linearGradient>
	<path fill="url(#SVGID_7_)" d="M196.69,29.401c4.631,3.973,0.723,10.515-5.079,11.719c-5.328,1.104-5.27-2.593-10.575-2.139
		c2.6-2.401,3.163-3.785,5.288-6.76c0.965-1.348,2.389-2.548,4.141-3.174c1.785-0.64,3.29-0.155,5.011-0.273
		c-4.689,1.862-3.518,5.323-4.767,8.506C194.224,35.395,193.509,31.478,196.69,29.401L196.69,29.401z"/>
	<linearGradient id="SVGID_8_" gradientUnits="userSpaceOnUse" x1="168.2532" y1="23.7399" x2="193.2358" y2="23.7399">
		<stop  offset="0" style="stop-color:#1B75BC"/>
		<stop  offset="0.2086" style="stop-color:#0093D6"/>
		<stop  offset="0.3917" style="stop-color:#00AEEF"/>
		<stop  offset="0.5858" style="stop-color:#00AEEF"/>
		<stop  offset="0.6166" style="stop-color:#00A8E9"/>
		<stop  offset="0.798" style="stop-color:#008ED1"/>
		<stop  offset="0.9308" style="stop-color:#007CC2"/>
		<stop  offset="1" style="stop-color:#1B75BC"/>
	</linearGradient>
	<path fill="url(#SVGID_8_)" d="M191.852,27.364c-4.539,1.948-9.68,1.844-13.469-0.857c-3.549-2.521-5.198-5.288-10.129-6.413
		c7.496-3.044,16.638-0.54,20.655,4.964c-1.972-1.525-6.301-3.882-9.743-2.448c2.875,0.84,4.525,2.294,7.059,3.315
		c2.391,0.961,4.455,0.502,7.012,0.072L191.852,27.364z"/>
	<linearGradient id="SVGID_9_" gradientUnits="userSpaceOnUse" x1="192.4373" y1="43.6445" x2="203.7916" y2="43.6445">
		<stop  offset="0" style="stop-color:#1B75BC"/>
		<stop  offset="0.2086" style="stop-color:#0093D6"/>
		<stop  offset="0.3917" style="stop-color:#00AEEF"/>
		<stop  offset="0.5858" style="stop-color:#00AEEF"/>
		<stop  offset="0.6166" style="stop-color:#00A8E9"/>
		<stop  offset="0.798" style="stop-color:#008ED1"/>
		<stop  offset="0.9308" style="stop-color:#007CC2"/>
		<stop  offset="1" style="stop-color:#1B75BC"/>
	</linearGradient>
	<path fill="url(#SVGID_9_)" d="M197.733,49.758c-2.066-1.58-5.732-4.145-5.254-6.758c3.933-1.4,5.615-2.376,7.207-5.548
		c0.627,3.169-3.255,5.517-2.154,8.392c-0.02,0.11-0.029,0.113-0.027,0.002c1.06-2.238,4.744-3.75,4.147-6.413
		c0.748,1.764,2.491,2.883,2.076,4.815C203.562,45.007,198.793,50.568,197.733,49.758z"/>
	<linearGradient id="SVGID_10_" gradientUnits="userSpaceOnUse" x1="204.5297" y1="25.8412" x2="224.7205" y2="25.8412">
		<stop  offset="0" style="stop-color:#1B75BC"/>
		<stop  offset="0.2086" style="stop-color:#0093D6"/>
		<stop  offset="0.3917" style="stop-color:#00AEEF"/>
		<stop  offset="0.5858" style="stop-color:#00AEEF"/>
		<stop  offset="0.6166" style="stop-color:#00A8E9"/>
		<stop  offset="0.798" style="stop-color:#008ED1"/>
		<stop  offset="0.9308" style="stop-color:#007CC2"/>
		<stop  offset="1" style="stop-color:#1B75BC"/>
	</linearGradient>
	<path fill="url(#SVGID_10_)" d="M204.53,26.098c2.066-0.12,3.949-0.462,5.475-1.483c1.384-0.927,1.633-2.279,2.968-3.193
		c2.578-1.767,6.56-1.115,9.359,0.076c3.966,1.686,2.259,3.519,0.14,6.026c-1.645,1.942-4.414,3.591-7.416,3.825
		c-0.801-1.587-1.425-2.528-3.676-2.864c0.536-1.549,2.578-2.684,4.017-3.76C211.498,24.644,208.594,27.558,204.53,26.098
		L204.53,26.098z"/>
</g>
</svg>
