<?xml version="1.0" encoding="utf-8"?>
<!-- Generator: Adobe Illustrator 21.0.0, SVG Export Plug-In . SVG Version: 6.00 Build 0)  -->
<svg version="1.1" id="Layer_1" xmlns="http://www.w3.org/2000/svg" xmlns:xlink="http://www.w3.org/1999/xlink" x="0px" y="0px"
	 viewBox="0 0 350 80" enable-background="new 0 0 350 80" xml:space="preserve">
<g>
	<g>
		
			<linearGradient id="SVGID_1_" gradientUnits="userSpaceOnUse" x1="133.4198" y1="113.7803" x2="137.3622" y2="113.7803" gradientTransform="matrix(2.9385 0 0 3.42 -226.35 -344.1886)">
			<stop  offset="0" style="stop-color:#1B75BC"/>
			<stop  offset="0.2086" style="stop-color:#0093D6"/>
			<stop  offset="0.3917" style="stop-color:#00AEEF"/>
			<stop  offset="0.5858" style="stop-color:#00AEEF"/>
			<stop  offset="0.6166" style="stop-color:#00A8E9"/>
			<stop  offset="0.798" style="stop-color:#008ED1"/>
			<stop  offset="0.9308" style="stop-color:#007CC2"/>
			<stop  offset="1" style="stop-color:#1B75BC"/>
		</linearGradient>
		<path fill="url(#SVGID_1_)" d="M176.947,37.09c-1.946-0.711-5.415,0.013-7.039,1.431c-1.759,1.525-2.494,4.2-4.204,5.823
			c1.334,0.06,2.7-1.464,3.613-2.335c-1.317,1.705-1.857,2.772-1.073,5.185c0.835,2.55,0.723,3.47-0.321,5.876
			c2.626-1.219,3.736-4.325,4.055-7.296c0.365-3.432,1.495-5.766,4.155-7.364c-4.546-0.125-4.33,6.728-5.616,10.058
			c0.135-2.545-0.904-5.345,0.301-7.683c1.372-2.657,3.972-3.326,6.471-3.632L176.947,37.09z"/>
		
			<linearGradient id="SVGID_2_" gradientUnits="userSpaceOnUse" x1="131.4637" y1="111.6644" x2="137.2108" y2="111.6644" gradientTransform="matrix(2.9385 0 0 3.42 -226.35 -344.1886)">
			<stop  offset="0" style="stop-color:#1B75BC"/>
			<stop  offset="0.2086" style="stop-color:#0093D6"/>
			<stop  offset="0.3917" style="stop-color:#00AEEF"/>
			<stop  offset="0.5858" style="stop-color:#00AEEF"/>
			<stop  offset="0.6166" style="stop-color:#00A8E9"/>
			<stop  offset="0.798" style="stop-color:#008ED1"/>
			<stop  offset="0.9308" style="stop-color:#007CC2"/>
			<stop  offset="1" style="stop-color:#1B75BC"/>
		</linearGradient>
		<path fill="url(#SVGID_2_)" d="M176.844,35.707c-3.398,0.098-5.837-0.299-8.623,2.528c-1.957,1.987-5.673,4.741-8.265,2.186
			c2.382-0.473,3.314-4.178,5.383-5.447c2.112-1.304,4.853-1.054,7.229-0.855c-2.944,0.429-7.191,1.925-8.953,5.055
			c0.046-0.094-0.178,0.157-0.052,0c0.092-0.024,0.046-0.112,0.029-0.154c2.695,0.172,3.923-1.608,6.058-3.096
			c2.287-1.607,4.253-0.965,6.273-0.535L176.844,35.707z"/>
		
			<linearGradient id="SVGID_3_" gradientUnits="userSpaceOnUse" x1="132.5058" y1="109.3213" x2="136.9637" y2="109.3213" gradientTransform="matrix(2.9385 0 0 3.42 -226.35 -344.1886)">
			<stop  offset="0" style="stop-color:#1B75BC"/>
			<stop  offset="0.2086" style="stop-color:#0093D6"/>
			<stop  offset="0.3917" style="stop-color:#00AEEF"/>
			<stop  offset="0.5858" style="stop-color:#00AEEF"/>
			<stop  offset="0.6166" style="stop-color:#00A8E9"/>
			<stop  offset="0.798" style="stop-color:#008ED1"/>
			<stop  offset="0.9308" style="stop-color:#007CC2"/>
			<stop  offset="1" style="stop-color:#1B75BC"/>
		</linearGradient>
		<path fill="url(#SVGID_3_)" d="M176.118,33.823c-1.834-2.486-4.629-1.974-7.108-2.745c-2.227-0.688-3.719-2.989-5.992-3.58
			c1.596-2.709,5.162-1.977,7.647-1.349c2.703,0.688,4.741,2.961,5.415,6.08c-1.535-1.556-2.861-2.694-5.108-2.129
			c2.112,0.697,3.877,1.015,5.068,3.225L176.118,33.823z"/>
		
			<linearGradient id="SVGID_4_" gradientUnits="userSpaceOnUse" x1="137.4314" y1="108.5291" x2="141.0369" y2="108.5291" gradientTransform="matrix(2.9385 0 0 3.42 -226.35 -344.1886)">
			<stop  offset="0" style="stop-color:#1B75BC"/>
			<stop  offset="0.2086" style="stop-color:#0093D6"/>
			<stop  offset="0.3917" style="stop-color:#00AEEF"/>
			<stop  offset="0.5858" style="stop-color:#00AEEF"/>
			<stop  offset="0.6166" style="stop-color:#00A8E9"/>
			<stop  offset="0.798" style="stop-color:#008ED1"/>
			<stop  offset="0.9308" style="stop-color:#007CC2"/>
			<stop  offset="1" style="stop-color:#1B75BC"/>
		</linearGradient>
		<path fill="url(#SVGID_4_)" d="M177.828,32.825c-0.324-4.15-1.211-8.172,2.396-10.829c2.508-1.842,5.177-0.81,7.863-0.68
			c-1.925,2.304-1.303,5.526-3.489,7.688c-1.831,1.802-4.367,2.268-6.193,4.051c-0.284-3.104,1.182-4.856,2.835-7.014
			c-1.412,0.675-3.257,2.552-3.289,4.723L177.828,32.825z"/>
		
			<linearGradient id="SVGID_5_" gradientUnits="userSpaceOnUse" x1="137.9823" y1="111.7848" x2="141.1581" y2="111.7848" gradientTransform="matrix(2.9385 0 0 3.42 -226.35 -344.1886)">
			<stop  offset="0" style="stop-color:#1B75BC"/>
			<stop  offset="0.2086" style="stop-color:#0093D6"/>
			<stop  offset="0.3917" style="stop-color:#00AEEF"/>
			<stop  offset="0.5858" style="stop-color:#00AEEF"/>
			<stop  offset="0.6166" style="stop-color:#00A8E9"/>
			<stop  offset="0.798" style="stop-color:#008ED1"/>
			<stop  offset="0.9308" style="stop-color:#007CC2"/>
			<stop  offset="1" style="stop-color:#1B75BC"/>
		</linearGradient>
		<path fill="url(#SVGID_5_)" d="M179.42,33.902c2.261-3.549,7.188-2.071,8.626,1.418c1.314,3.206-1.136,5.761-0.27,9.051
			c-1.931-1.284-3.521-2.822-5.337-4.343c-0.884-0.73-2.003-1.117-2.62-2.124c-0.626-1.04-0.448-2.066-0.709-3.138
			c1.773,2.685,4.046,1.409,6.37,1.713C183.817,34.543,181.182,35.597,179.42,33.902L179.42,33.902z"/>
		
			<linearGradient id="SVGID_6_" gradientUnits="userSpaceOnUse" x1="136.299" y1="113.7905" x2="138.3506" y2="113.7905" gradientTransform="matrix(2.9385 0 0 3.42 -226.35 -344.1886)">
			<stop  offset="0" style="stop-color:#1B75BC"/>
			<stop  offset="0.2086" style="stop-color:#0093D6"/>
			<stop  offset="0.3917" style="stop-color:#00AEEF"/>
			<stop  offset="0.5858" style="stop-color:#00AEEF"/>
			<stop  offset="0.6166" style="stop-color:#00A8E9"/>
			<stop  offset="0.798" style="stop-color:#008ED1"/>
			<stop  offset="0.9308" style="stop-color:#007CC2"/>
			<stop  offset="1" style="stop-color:#1B75BC"/>
		</linearGradient>
		<path fill="url(#SVGID_6_)" d="M178.511,37.273c1.816,2.578,2.279,5.85,0.806,8.664c-1.378,2.633-3.117,4.108-3.383,7.403
			c-2.881-4.288-2.098-10.46,1.289-13.849c-0.852,1.488-2.032,4.584-0.677,6.553c0.276-1.954,1.116-3.221,1.555-4.986
			c0.413-1.658-0.115-2.895-0.677-4.444L178.511,37.273z"/>
		
			<linearGradient id="SVGID_7_" gradientUnits="userSpaceOnUse" x1="138.3873" y1="113.8529" x2="140.3672" y2="113.8529" gradientTransform="matrix(2.9385 0 0 3.42 -226.35 -344.1886)">
			<stop  offset="0" style="stop-color:#1B75BC"/>
			<stop  offset="0.2086" style="stop-color:#0093D6"/>
			<stop  offset="0.3917" style="stop-color:#00AEEF"/>
			<stop  offset="0.5858" style="stop-color:#00AEEF"/>
			<stop  offset="0.6166" style="stop-color:#00A8E9"/>
			<stop  offset="0.798" style="stop-color:#008ED1"/>
			<stop  offset="0.9308" style="stop-color:#007CC2"/>
			<stop  offset="1" style="stop-color:#1B75BC"/>
		</linearGradient>
		<path fill="url(#SVGID_7_)" d="M181.38,40.254c1.49,1.206,3.748,2.421,4.471,4.325c0.551,1.455,0.267,4.394-1.004,5.414
			c-1.145,0.92-2.993-0.628-3.868-1.621c-1.719-1.959,0.364-2.398,0.433-4.647c0.855,0.735,2.442,1.617,2.405,2.809
			c0.373-2.37-1.24-4.754-2.353-6.428L181.38,40.254z"/>
		
			<linearGradient id="SVGID_8_" gradientUnits="userSpaceOnUse" x1="139.8748" y1="109.6524" x2="142.8499" y2="109.6524" gradientTransform="matrix(2.9385 0 0 3.42 -226.35 -344.1886)">
			<stop  offset="0" style="stop-color:#1B75BC"/>
			<stop  offset="0.2086" style="stop-color:#0093D6"/>
			<stop  offset="0.3917" style="stop-color:#00AEEF"/>
			<stop  offset="0.5858" style="stop-color:#00AEEF"/>
			<stop  offset="0.6166" style="stop-color:#00A8E9"/>
			<stop  offset="0.798" style="stop-color:#008ED1"/>
			<stop  offset="0.9308" style="stop-color:#007CC2"/>
			<stop  offset="1" style="stop-color:#1B75BC"/>
		</linearGradient>
		<path fill="url(#SVGID_8_)" d="M193.381,30.118c-0.881,1.551-2.27,4.269-4.129,4.365c-1.377-2.278-2.221-3.188-4.58-3.714
			c2.129-0.886,4.149,1.214,6.021,0.079c0.08-0.005,0.086,0,0.009,0.013c-1.656-0.324-3.088-2.43-4.867-1.64
			c1.145-0.745,1.736-2.024,3.114-2.056C189.49,27.155,193.832,29.323,193.381,30.118z"/>
		
			<linearGradient id="SVGID_9_" gradientUnits="userSpaceOnUse" x1="135.2092" y1="107.4232" x2="137.8983" y2="107.4232" gradientTransform="matrix(2.9385 0 0 3.42 -226.35 -344.1886)">
			<stop  offset="0" style="stop-color:#1B75BC"/>
			<stop  offset="0.2086" style="stop-color:#0093D6"/>
			<stop  offset="0.3917" style="stop-color:#00AEEF"/>
			<stop  offset="0.5858" style="stop-color:#00AEEF"/>
			<stop  offset="0.6166" style="stop-color:#00A8E9"/>
			<stop  offset="0.798" style="stop-color:#008ED1"/>
			<stop  offset="0.9308" style="stop-color:#007CC2"/>
			<stop  offset="1" style="stop-color:#1B75BC"/>
		</linearGradient>
		<path fill="url(#SVGID_9_)" d="M176.321,29.438c-0.295-1.284-0.729-2.43-1.595-3.24c-0.781-0.735-1.742-0.688-2.511-1.389
			c-1.487-1.365-1.449-3.986-0.918-5.943c0.76-2.769,2.201-1.967,4.149-1.01c1.515,0.745,2.941,2.248,3.418,4.111
			c-1.016,0.753-1.601,1.294-1.601,2.767c-1.122-0.097-2.118-1.219-3.016-1.967C174.594,25.247,176.91,26.637,176.321,29.438
			L176.321,29.438z"/>
	</g>
	<g>
		
			<linearGradient id="SVGID_10_" gradientUnits="userSpaceOnUse" x1="140.6122" y1="114.3013" x2="157.4556" y2="114.3013" gradientTransform="matrix(2.9385 0 0 3.42 -226.35 -344.1886)">
			<stop  offset="0" style="stop-color:#1B75BC"/>
			<stop  offset="0.2086" style="stop-color:#0093D6"/>
			<stop  offset="0.3917" style="stop-color:#00AEEF"/>
			<stop  offset="0.5858" style="stop-color:#00AEEF"/>
			<stop  offset="0.6166" style="stop-color:#00A8E9"/>
			<stop  offset="0.798" style="stop-color:#008ED1"/>
			<stop  offset="0.9308" style="stop-color:#007CC2"/>
			<stop  offset="1" style="stop-color:#1B75BC"/>
		</linearGradient>
		<path fill="url(#SVGID_10_)" d="M186.838,46.094c7.057-4.699,14.477-6.256,22.237-2.717c5.55,2.547,9.324,8.378,15.364,9.31
			c4.261,0.653,10.377-1.164,11.631-6.593c1.977-8.552-7.969-4.444-4.348-1.82c0.184-0.559,0.649-1.067,0.858-1.867
			c0.735-0.032,1.219,0.065,1.888,0.476c0.25,4.681-5.814,7.633-9.232,6.987c-3.716-0.698-7.507-3.415-10.887-5.3
			c-7.561-4.208-16.632-5.641-23.869-1.298L186.838,46.094z"/>
		
			<linearGradient id="SVGID_11_" gradientUnits="userSpaceOnUse" x1="140.8885" y1="114.6924" x2="159.2934" y2="114.6924" gradientTransform="matrix(2.9385 0 0 3.42 -226.35 -344.1886)">
			<stop  offset="0" style="stop-color:#1B75BC"/>
			<stop  offset="0.2086" style="stop-color:#0093D6"/>
			<stop  offset="0.3917" style="stop-color:#00AEEF"/>
			<stop  offset="0.5858" style="stop-color:#00AEEF"/>
			<stop  offset="0.6166" style="stop-color:#00A8E9"/>
			<stop  offset="0.798" style="stop-color:#008ED1"/>
			<stop  offset="0.9308" style="stop-color:#007CC2"/>
			<stop  offset="1" style="stop-color:#1B75BC"/>
		</linearGradient>
		<path fill="url(#SVGID_11_)" d="M188.46,47.038c6.135-4.631,11.476-4.131,17.783-1.409c4.629,2,7.952,6.501,12.534,8.468
			c4.172,1.789,10.77,1.697,14.549-1.298c3.148-2.481,8.313-8.967,4.815-13.284c2.924-3.609,4.118,2.727,3.378,5.272
			c-0.674,2.329-3.504,6.26-5.424,7.222c1.423,0.005,3.142-0.638,4.457-1.608c-2.884,3.714-6.655,4.108-10.328,5.461
			c0.878,0.227,1.676,0.828,2.583,1.082c-10.839,3.183-16.454-4.552-25.614-8.53c1.957,1.747,3.303,4.177,4.752,6.436
			c-6.422-7.096-16.104-12.582-24.294-6.87L188.46,47.038z"/>
		
			<linearGradient id="SVGID_12_" gradientUnits="userSpaceOnUse" x1="140.6122" y1="116.7825" x2="147.5047" y2="116.7825" gradientTransform="matrix(2.9385 0 0 3.42 -226.35 -344.1886)">
			<stop  offset="0" style="stop-color:#1B75BC"/>
			<stop  offset="0.2086" style="stop-color:#0093D6"/>
			<stop  offset="0.3917" style="stop-color:#00AEEF"/>
			<stop  offset="0.5858" style="stop-color:#00AEEF"/>
			<stop  offset="0.6166" style="stop-color:#00A8E9"/>
			<stop  offset="0.798" style="stop-color:#008ED1"/>
			<stop  offset="0.9308" style="stop-color:#007CC2"/>
			<stop  offset="1" style="stop-color:#1B75BC"/>
		</linearGradient>
		<path fill="url(#SVGID_12_)" d="M188.865,48.923c2.522-1.987,5.989-2.141,8.181,0.351c1.601,1.825,0.947,3.59,1.811,5.79
			c1.92,4.919,6.299,2.42,8.236,6.561c-0.783,1.135-1.501,1.486-2.815,1.348c0.029-0.11-0.023-1.086-0.046-1.141
			c0.02-0.01-0.235,0.314-0.241,0.295c0.301-0.286,0.844-0.818,1.099-0.957c-2.534-2.715-4.451,2.029-7.332,0.347
			c-2.855-1.655-0.99-5.979-3.891-7.481c1.142,1.987,0.758,4.039,1.016,6.077c-6.058,1.511-0.293-12.6-8.044-10.719L188.865,48.923z
			"/>
		
			<linearGradient id="SVGID_13_" gradientUnits="userSpaceOnUse" x1="144.1044" y1="116.1668" x2="147.9442" y2="116.1668" gradientTransform="matrix(2.9385 0 0 3.42 -226.35 -344.1886)">
			<stop  offset="0" style="stop-color:#1B75BC"/>
			<stop  offset="0.2086" style="stop-color:#0093D6"/>
			<stop  offset="0.3917" style="stop-color:#00AEEF"/>
			<stop  offset="0.5858" style="stop-color:#00AEEF"/>
			<stop  offset="0.6166" style="stop-color:#00A8E9"/>
			<stop  offset="0.798" style="stop-color:#008ED1"/>
			<stop  offset="0.9308" style="stop-color:#007CC2"/>
			<stop  offset="1" style="stop-color:#1B75BC"/>
		</linearGradient>
		<path fill="url(#SVGID_13_)" d="M197.1,47.014c3.51,2.351,2.431,5.322,4.382,8.39c1.805,2.837,4.976,1.6,6.902,3.789
			c-0.485-2.264-0.99-5.434-2.322-7.244c-1.326-1.807-3.745-2.325-5.349-3.716c1.113,1.331,1.966,2.805,2.06,4.644
			c-0.726-1.909-2.634-4.302-4.328-4.611L197.1,47.014z"/>
		
			<linearGradient id="SVGID_14_" gradientUnits="userSpaceOnUse" x1="148.1414" y1="118.7727" x2="150.5485" y2="118.7727" gradientTransform="matrix(2.9385 0 0 3.42 -226.35 -344.1886)">
			<stop  offset="0" style="stop-color:#1B75BC"/>
			<stop  offset="0.2086" style="stop-color:#0093D6"/>
			<stop  offset="0.3917" style="stop-color:#00AEEF"/>
			<stop  offset="0.5858" style="stop-color:#00AEEF"/>
			<stop  offset="0.6166" style="stop-color:#00A8E9"/>
			<stop  offset="0.798" style="stop-color:#008ED1"/>
			<stop  offset="0.9308" style="stop-color:#007CC2"/>
			<stop  offset="1" style="stop-color:#1B75BC"/>
		</linearGradient>
		<path fill="url(#SVGID_14_)" d="M208.963,53.283c2.413,3.504,0.583,7.042,1.685,10.345c0.981,2.958,3.857,4.08,4.522,7.121
			c1.92-5.578,0.448-10.719-2.456-15.15c0.643,1.852,1.217,4.412,0.548,6.347C212.571,58.787,211.313,55.414,208.963,53.283
			L208.963,53.283z"/>
		
			<linearGradient id="SVGID_15_" gradientUnits="userSpaceOnUse" x1="149.6933" y1="118.5506" x2="153.9061" y2="118.5506" gradientTransform="matrix(2.9385 0 0 3.42 -226.35 -344.1886)">
			<stop  offset="0" style="stop-color:#1B75BC"/>
			<stop  offset="0.2086" style="stop-color:#0093D6"/>
			<stop  offset="0.3917" style="stop-color:#00AEEF"/>
			<stop  offset="0.5858" style="stop-color:#00AEEF"/>
			<stop  offset="0.6166" style="stop-color:#00A8E9"/>
			<stop  offset="0.798" style="stop-color:#008ED1"/>
			<stop  offset="0.9308" style="stop-color:#007CC2"/>
			<stop  offset="1" style="stop-color:#1B75BC"/>
		</linearGradient>
		<path fill="url(#SVGID_15_)" d="M214.625,53.594c2.761,1.773,5.82,3.931,8.276,6.044c2.927,2.508,2.577,5.526,3.002,9.281
			c-6.629-1.279-8.821-9.239-12.38-15.205c2.058,2.522,4.853,4.542,6.635,7.142c-1.056-2.218-2.795-3.863-3.917-6.007
			L214.625,53.594z"/>
		
			<linearGradient id="SVGID_16_" gradientUnits="userSpaceOnUse" x1="153.0927" y1="118.7729" x2="158.7889" y2="118.7729" gradientTransform="matrix(2.9385 0 0 3.42 -226.35 -344.1886)">
			<stop  offset="0" style="stop-color:#1B75BC"/>
			<stop  offset="0.2086" style="stop-color:#0093D6"/>
			<stop  offset="0.3917" style="stop-color:#00AEEF"/>
			<stop  offset="0.5858" style="stop-color:#00AEEF"/>
			<stop  offset="0.6166" style="stop-color:#00A8E9"/>
			<stop  offset="0.798" style="stop-color:#008ED1"/>
			<stop  offset="0.9308" style="stop-color:#007CC2"/>
			<stop  offset="1" style="stop-color:#1B75BC"/>
		</linearGradient>
		<path fill="url(#SVGID_16_)" d="M225.404,57.987c6.503,0,10.09,2.056,14.847,7.061c-6.313,3.261-11.507-2.154-16.159-6.381
			c1.851,0.882,4.244,0.434,6.052,1.551c-1.922-1.455-5.111-1.538-6.632-2.231H225.404z"/>
		
			<linearGradient id="SVGID_17_" gradientUnits="userSpaceOnUse" x1="156.2108" y1="117.1054" x2="160.2381" y2="117.1054" gradientTransform="matrix(2.9385 0 0 3.42 -226.35 -344.1886)">
			<stop  offset="0" style="stop-color:#1B75BC"/>
			<stop  offset="0.2086" style="stop-color:#0093D6"/>
			<stop  offset="0.3917" style="stop-color:#00AEEF"/>
			<stop  offset="0.5858" style="stop-color:#00AEEF"/>
			<stop  offset="0.6166" style="stop-color:#00A8E9"/>
			<stop  offset="0.798" style="stop-color:#008ED1"/>
			<stop  offset="0.9308" style="stop-color:#007CC2"/>
			<stop  offset="1" style="stop-color:#1B75BC"/>
		</linearGradient>
		<path fill="url(#SVGID_17_)" d="M234.563,55.482c3.974-3.109,6.043-0.633,9.946,0.371c-3.997,4.103-6.508,2.647-11.065,2.134
			c0.723-0.295,2.416-1.474,3.449-2.218c-1.245,0.458-3.311,0.596-4.218,0.332L234.563,55.482z"/>
		
			<linearGradient id="SVGID_18_" gradientUnits="userSpaceOnUse" x1="158.6064" y1="115.0698" x2="162.3221" y2="115.0698" gradientTransform="matrix(2.9385 0 0 3.42 -226.35 -344.1886)">
			<stop  offset="0" style="stop-color:#1B75BC"/>
			<stop  offset="0.2086" style="stop-color:#0093D6"/>
			<stop  offset="0.3917" style="stop-color:#00AEEF"/>
			<stop  offset="0.5858" style="stop-color:#00AEEF"/>
			<stop  offset="0.6166" style="stop-color:#00A8E9"/>
			<stop  offset="0.798" style="stop-color:#008ED1"/>
			<stop  offset="0.9308" style="stop-color:#007CC2"/>
			<stop  offset="1" style="stop-color:#1B75BC"/>
		</linearGradient>
		<path fill="url(#SVGID_18_)" d="M250.633,46.69c-2.984,3.711-5.877,4.911-10.101,5.604c0.683-0.656,1.578-1.58,2.298-2.393
			c-0.993-0.596-2.247-0.309-3.116,0.19c1.438-1.406,3.125-2.879,4.918-3.577C245.445,46.201,250.633,46.69,250.633,46.69z"/>
	</g>
	<g>
		
			<linearGradient id="SVGID_19_" gradientUnits="userSpaceOnUse" x1="117.0374" y1="114.3013" x2="133.8808" y2="114.3013" gradientTransform="matrix(2.9385 0 0 3.42 -226.35 -344.1886)">
			<stop  offset="0" style="stop-color:#1B75BC"/>
			<stop  offset="0.2086" style="stop-color:#0093D6"/>
			<stop  offset="0.3917" style="stop-color:#00AEEF"/>
			<stop  offset="0.5858" style="stop-color:#00AEEF"/>
			<stop  offset="0.6166" style="stop-color:#00A8E9"/>
			<stop  offset="0.798" style="stop-color:#008ED1"/>
			<stop  offset="0.9308" style="stop-color:#007CC2"/>
			<stop  offset="1" style="stop-color:#1B75BC"/>
		</linearGradient>
		<path fill="url(#SVGID_19_)" d="M167.058,46.094c-7.054-4.699-14.483-6.256-22.237-2.717c-5.55,2.547-9.323,8.378-15.361,9.31
			c-4.264,0.653-10.379-1.164-11.634-6.593c-1.977-8.552,7.966-4.444,4.348-1.82c-0.184-0.559-0.646-1.067-0.852-1.867
			c-0.735-0.032-1.228,0.065-1.894,0.476c-0.252,4.681,5.814,7.633,9.237,6.987c3.708-0.698,7.507-3.415,10.882-5.3
			c7.561-4.208,16.63-5.641,23.872-1.298L167.058,46.094z"/>
		
			<linearGradient id="SVGID_20_" gradientUnits="userSpaceOnUse" x1="115.1984" y1="114.6924" x2="133.6053" y2="114.6924" gradientTransform="matrix(2.9385 0 0 3.42 -226.35 -344.1886)">
			<stop  offset="0" style="stop-color:#1B75BC"/>
			<stop  offset="0.2086" style="stop-color:#0093D6"/>
			<stop  offset="0.3917" style="stop-color:#00AEEF"/>
			<stop  offset="0.5858" style="stop-color:#00AEEF"/>
			<stop  offset="0.6166" style="stop-color:#00A8E9"/>
			<stop  offset="0.798" style="stop-color:#008ED1"/>
			<stop  offset="0.9308" style="stop-color:#007CC2"/>
			<stop  offset="1" style="stop-color:#1B75BC"/>
		</linearGradient>
		<path fill="url(#SVGID_20_)" d="M165.443,47.038c-6.138-4.631-11.481-4.131-17.789-1.409c-4.635,2-7.952,6.501-12.534,8.468
			c-4.175,1.789-10.77,1.697-14.549-1.298c-3.148-2.481-8.31-8.967-4.815-13.284c-2.927-3.609-4.118,2.727-3.383,5.272
			c0.674,2.329,3.51,6.26,5.427,7.222c-1.42,0.005-3.139-0.638-4.454-1.608c2.878,3.714,6.657,4.108,10.325,5.461
			c-0.875,0.227-1.673,0.828-2.577,1.082c10.836,3.183,16.454-4.552,25.611-8.53c-1.957,1.747-3.308,4.177-4.749,6.436
			c6.425-7.096,16.104-12.582,24.294-6.87L165.443,47.038z"/>
		
			<linearGradient id="SVGID_21_" gradientUnits="userSpaceOnUse" x1="126.9881" y1="116.7825" x2="133.8808" y2="116.7825" gradientTransform="matrix(2.9385 0 0 3.42 -226.35 -344.1886)">
			<stop  offset="0" style="stop-color:#1B75BC"/>
			<stop  offset="0.2086" style="stop-color:#0093D6"/>
			<stop  offset="0.3917" style="stop-color:#00AEEF"/>
			<stop  offset="0.5858" style="stop-color:#00AEEF"/>
			<stop  offset="0.6166" style="stop-color:#00A8E9"/>
			<stop  offset="0.798" style="stop-color:#008ED1"/>
			<stop  offset="0.9308" style="stop-color:#007CC2"/>
			<stop  offset="1" style="stop-color:#1B75BC"/>
		</linearGradient>
		<path fill="url(#SVGID_21_)" d="M165.038,48.923c-2.534-1.987-6-2.141-8.187,0.351c-1.604,1.825-0.953,3.59-1.811,5.79
			c-1.923,4.919-6.299,2.42-8.236,6.561c0.786,1.135,1.504,1.486,2.809,1.348c-0.029-0.11,0.029-1.086,0.052-1.141
			c-0.02-0.01,0.232,0.314,0.244,0.295c-0.307-0.286-0.847-0.818-1.102-0.957c2.534-2.715,4.451,2.029,7.332,0.347
			c2.855-1.655,0.993-5.979,3.894-7.481c-1.151,1.987-0.758,4.039-1.019,6.077c6.058,1.511,0.293-12.6,8.044-10.719L165.038,48.923z
			"/>
		
			<linearGradient id="SVGID_22_" gradientUnits="userSpaceOnUse" x1="126.5487" y1="116.1668" x2="130.3885" y2="116.1668" gradientTransform="matrix(2.9385 0 0 3.42 -226.35 -344.1886)">
			<stop  offset="0" style="stop-color:#1B75BC"/>
			<stop  offset="0.2086" style="stop-color:#0093D6"/>
			<stop  offset="0.3917" style="stop-color:#00AEEF"/>
			<stop  offset="0.5858" style="stop-color:#00AEEF"/>
			<stop  offset="0.6166" style="stop-color:#00A8E9"/>
			<stop  offset="0.798" style="stop-color:#008ED1"/>
			<stop  offset="0.9308" style="stop-color:#007CC2"/>
			<stop  offset="1" style="stop-color:#1B75BC"/>
		</linearGradient>
		<path fill="url(#SVGID_22_)" d="M156.796,47.014c-3.509,2.351-2.433,5.322-4.385,8.39c-1.805,2.837-4.973,1.6-6.898,3.789
			c0.485-2.264,0.987-5.434,2.321-7.244c1.331-1.807,3.748-2.325,5.352-3.716c-1.116,1.331-1.966,2.805-2.063,4.644
			c0.721-1.909,2.632-4.302,4.325-4.611L156.796,47.014z"/>
		
			<linearGradient id="SVGID_23_" gradientUnits="userSpaceOnUse" x1="123.9452" y1="118.7727" x2="126.3514" y2="118.7727" gradientTransform="matrix(2.9385 0 0 3.42 -226.35 -344.1886)">
			<stop  offset="0" style="stop-color:#1B75BC"/>
			<stop  offset="0.2086" style="stop-color:#0093D6"/>
			<stop  offset="0.3917" style="stop-color:#00AEEF"/>
			<stop  offset="0.5858" style="stop-color:#00AEEF"/>
			<stop  offset="0.6166" style="stop-color:#00A8E9"/>
			<stop  offset="0.798" style="stop-color:#008ED1"/>
			<stop  offset="0.9308" style="stop-color:#007CC2"/>
			<stop  offset="1" style="stop-color:#1B75BC"/>
		</linearGradient>
		<path fill="url(#SVGID_23_)" d="M144.933,53.283c-2.413,3.504-0.585,7.042-1.682,10.345c-0.981,2.958-3.859,4.08-4.522,7.121
			c-1.923-5.578-0.445-10.719,2.453-15.15c-0.646,1.852-1.217,4.412-0.554,6.347C141.321,58.787,142.586,55.414,144.933,53.283
			L144.933,53.283z"/>
		
			<linearGradient id="SVGID_24_" gradientUnits="userSpaceOnUse" x1="120.5877" y1="118.5506" x2="124.8006" y2="118.5506" gradientTransform="matrix(2.9385 0 0 3.42 -226.35 -344.1886)">
			<stop  offset="0" style="stop-color:#1B75BC"/>
			<stop  offset="0.2086" style="stop-color:#0093D6"/>
			<stop  offset="0.3917" style="stop-color:#00AEEF"/>
			<stop  offset="0.5858" style="stop-color:#00AEEF"/>
			<stop  offset="0.6166" style="stop-color:#00A8E9"/>
			<stop  offset="0.798" style="stop-color:#008ED1"/>
			<stop  offset="0.9308" style="stop-color:#007CC2"/>
			<stop  offset="1" style="stop-color:#1B75BC"/>
		</linearGradient>
		<path fill="url(#SVGID_24_)" d="M139.274,53.594c-2.766,1.773-5.822,3.931-8.279,6.044c-2.927,2.508-2.577,5.526-2.999,9.281
			c6.626-1.279,8.818-9.239,12.38-15.205c-2.06,2.522-4.855,4.542-6.637,7.142c1.056-2.218,2.795-3.863,3.923-6.007L139.274,53.594z
			"/>
		
			<linearGradient id="SVGID_25_" gradientUnits="userSpaceOnUse" x1="115.703" y1="118.7729" x2="121.3983" y2="118.7729" gradientTransform="matrix(2.9385 0 0 3.42 -226.35 -344.1886)">
			<stop  offset="0" style="stop-color:#1B75BC"/>
			<stop  offset="0.2086" style="stop-color:#0093D6"/>
			<stop  offset="0.3917" style="stop-color:#00AEEF"/>
			<stop  offset="0.5858" style="stop-color:#00AEEF"/>
			<stop  offset="0.6166" style="stop-color:#00A8E9"/>
			<stop  offset="0.798" style="stop-color:#008ED1"/>
			<stop  offset="0.9308" style="stop-color:#007CC2"/>
			<stop  offset="1" style="stop-color:#1B75BC"/>
		</linearGradient>
		<path fill="url(#SVGID_25_)" d="M128.493,57.987c-6.497,0-10.087,2.056-14.85,7.061c6.319,3.261,11.504-2.154,16.164-6.381
			c-1.854,0.882-4.244,0.434-6.052,1.551c1.923-1.455,5.111-1.538,6.623-2.231H128.493z"/>
		
			<linearGradient id="SVGID_26_" gradientUnits="userSpaceOnUse" x1="114.2547" y1="117.1054" x2="118.2812" y2="117.1054" gradientTransform="matrix(2.9385 0 0 3.42 -226.35 -344.1886)">
			<stop  offset="0" style="stop-color:#1B75BC"/>
			<stop  offset="0.2086" style="stop-color:#0093D6"/>
			<stop  offset="0.3917" style="stop-color:#00AEEF"/>
			<stop  offset="0.5858" style="stop-color:#00AEEF"/>
			<stop  offset="0.6166" style="stop-color:#00A8E9"/>
			<stop  offset="0.798" style="stop-color:#008ED1"/>
			<stop  offset="0.9308" style="stop-color:#007CC2"/>
			<stop  offset="1" style="stop-color:#1B75BC"/>
		</linearGradient>
		<path fill="url(#SVGID_26_)" d="M119.331,55.482c-3.972-3.109-6.041-0.633-9.943,0.371c4.003,4.103,6.511,2.647,11.063,2.134
			c-0.72-0.295-2.41-1.474-3.444-2.218c1.242,0.458,3.311,0.596,4.213,0.332L119.331,55.482z"/>
		
			<linearGradient id="SVGID_27_" gradientUnits="userSpaceOnUse" x1="112.1688" y1="115.0698" x2="115.8867" y2="115.0698" gradientTransform="matrix(2.9385 0 0 3.42 -226.35 -344.1886)">
			<stop  offset="0" style="stop-color:#1B75BC"/>
			<stop  offset="0.2086" style="stop-color:#0093D6"/>
			<stop  offset="0.3917" style="stop-color:#00AEEF"/>
			<stop  offset="0.5858" style="stop-color:#00AEEF"/>
			<stop  offset="0.6166" style="stop-color:#00A8E9"/>
			<stop  offset="0.798" style="stop-color:#008ED1"/>
			<stop  offset="0.9308" style="stop-color:#007CC2"/>
			<stop  offset="1" style="stop-color:#1B75BC"/>
		</linearGradient>
		<path fill="url(#SVGID_27_)" d="M103.258,46.69c2.99,3.711,5.883,4.911,10.107,5.604c-0.683-0.656-1.584-1.58-2.301-2.393
			c0.999-0.596,2.25-0.309,3.12,0.19c-1.441-1.406-3.125-2.879-4.919-3.577C108.446,46.201,103.266,46.69,103.258,46.69z"/>
	</g>
</g>
<linearGradient id="SVGID_28_" gradientUnits="userSpaceOnUse" x1="24.3573" y1="6.2819" x2="329.5338" y2="6.2819">
	<stop  offset="0" style="stop-color:#1B75BC"/>
	<stop  offset="0.2086" style="stop-color:#0093D6"/>
	<stop  offset="0.3917" style="stop-color:#00AEEF"/>
	<stop  offset="0.5858" style="stop-color:#00AEEF"/>
	<stop  offset="0.6166" style="stop-color:#00A8E9"/>
	<stop  offset="0.798" style="stop-color:#008ED1"/>
	<stop  offset="0.9308" style="stop-color:#007CC2"/>
	<stop  offset="1" style="stop-color:#1B75BC"/>
</linearGradient>
<rect x="24.357" y="6.16" fill="url(#SVGID_28_)" width="305.176" height="0.245"/>
</svg>
