<?xml version="1.0" encoding="utf-8"?>
<!-- Generator: Adobe Illustrator 21.0.0, SVG Export Plug-In . SVG Version: 6.00 Build 0)  -->
<svg version="1.1" id="Layer_1" xmlns="http://www.w3.org/2000/svg" xmlns:xlink="http://www.w3.org/1999/xlink" x="0px" y="0px"
	 viewBox="0 0 220 180" enable-background="new 0 0 220 180" xml:space="preserve">
<g>
	<linearGradient id="SVGID_1_" gradientUnits="userSpaceOnUse" x1="125.9846" y1="85.4853" x2="156.5295" y2="85.4853">
		<stop  offset="0" style="stop-color:#1B75BC"/>
		<stop  offset="0.2086" style="stop-color:#0093D6"/>
		<stop  offset="0.3917" style="stop-color:#00AEEF"/>
		<stop  offset="0.5858" style="stop-color:#00AEEF"/>
		<stop  offset="0.6166" style="stop-color:#00A8E9"/>
		<stop  offset="0.798" style="stop-color:#008ED1"/>
		<stop  offset="0.9308" style="stop-color:#007CC2"/>
		<stop  offset="1" style="stop-color:#1B75BC"/>
	</linearGradient>
	<path fill="url(#SVGID_1_)" d="M149.419,82.41c0.557,0,0.835,0.329,0.835,0.985c0,0.703-0.303,1.36-0.907,1.971
		c-1.064,1.11-2.044,2.504-2.938,4.18c-1.354,2.538-2.031,4.826-2.031,6.865c0,0.793,0.15,1.371,0.453,1.733
		c0.302,0.362,0.646,0.543,1.034,0.543c1.16,0,2.515-0.883,4.063-2.651c1.379-1.653,2.431-3.262,3.156-4.826
		c0.193-0.362,0.387-0.521,0.58-0.476s0.206,0.25,0.037,0.611c-0.992,2.062-2.117,3.875-3.374,5.438
		c-0.653,0.838-1.464,1.535-2.431,2.09c-0.968,0.555-1.929,0.833-2.884,0.833c-0.956,0-1.675-0.357-2.158-1.071
		c-0.484-0.714-0.726-1.558-0.726-2.532s0.127-1.938,0.381-2.889c0.254-0.952,0.586-1.688,0.997-2.209
		c-2.442,2.742-5.042,4.94-7.8,6.593c-1.45,0.838-3.06,1.337-4.824,1.496c-0.17,0.022-0.454,0.034-0.853,0.034
		c-0.399,0-0.877-0.136-1.433-0.408c-1.742-0.68-2.612-2.339-2.612-4.979c0-2.639,0.919-5.5,2.757-8.581
		c0.967-1.631,2.031-3.07,3.192-4.316c-1.62-0.725-2.829-1.506-3.628-2.345c-0.58-0.612-0.87-1.348-0.87-2.209
		c0-0.861,0.182-1.405,0.544-1.631c0.241-0.294,0.459-0.351,0.653-0.17c0.145,0.204,0.15,0.453,0.018,0.748s-0.199,0.578-0.199,0.85
		c0,0.612,0.351,1.292,1.052,2.039s1.729,1.417,3.084,2.005c5.683-5.914,11.584-8.871,17.703-8.871c1.91,0,3.428,0.403,4.554,1.207
		c1.123,0.805,1.686,1.841,1.686,3.11c0,1.382-0.822,2.719-2.467,4.01c-0.822,0.68-1.995,1.269-3.519,1.767
		c-2.322,0.771-5.085,1.156-8.289,1.156c-3.205,0-5.859-0.317-7.963-0.952c-2.443,3.24-4.124,5.931-5.043,8.071
		c-0.919,2.141-1.378,3.801-1.378,4.979c0,0.25,0.012,0.476,0.036,0.68c0.29,1.881,1.306,2.821,3.047,2.821
		c1.959,0,4.232-0.997,6.82-2.991c1.838-1.45,3.64-3.172,5.405-5.166c1.765-1.994,3.077-3.75,3.936-5.268
		C147.974,83.169,148.742,82.41,149.419,82.41z M155.043,75.171c0-0.974-0.43-1.722-1.289-2.243
		c-0.858-0.521-2.037-0.782-3.537-0.782c-1.499,0-2.992,0.227-4.479,0.68c-1.487,0.454-2.879,1.122-4.172,2.005
		c-1.294,0.883-2.443,1.79-3.446,2.719c-1.004,0.929-2.086,2.039-3.247,3.331c1.813,0.543,4.039,0.815,6.675,0.815
		c4.958,0,8.573-0.748,10.847-2.243C154.159,78.297,155.043,76.87,155.043,75.171z"/>
	<linearGradient id="SVGID_2_" gradientUnits="userSpaceOnUse" x1="149.7453" y1="91.9426" x2="166.0334" y2="91.9426">
		<stop  offset="0" style="stop-color:#1B75BC"/>
		<stop  offset="0.2086" style="stop-color:#0093D6"/>
		<stop  offset="0.3917" style="stop-color:#00AEEF"/>
		<stop  offset="0.5858" style="stop-color:#00AEEF"/>
		<stop  offset="0.6166" style="stop-color:#00A8E9"/>
		<stop  offset="0.798" style="stop-color:#008ED1"/>
		<stop  offset="0.9308" style="stop-color:#007CC2"/>
		<stop  offset="1" style="stop-color:#1B75BC"/>
	</linearGradient>
	<path fill="url(#SVGID_2_)" d="M164.184,86.386c-2.975,4.894-4.462,8.089-4.462,9.584c0,0.589,0.229,0.884,0.689,0.884
		c1.233,0,2.89-1.959,4.97-5.879c0.145-0.317,0.29-0.442,0.436-0.374c0.145,0.068,0.217,0.159,0.217,0.272
		c0,0.114-0.048,0.25-0.145,0.408c-1.282,2.425-2.364,4.095-3.247,5.013c-0.883,0.917-1.766,1.376-2.648,1.376
		s-1.554-0.317-2.013-0.951c-0.242-0.294-0.363-0.697-0.363-1.207s0.121-1.127,0.363-1.853c0.241-0.725,0.906-1.903,1.995-3.534
		c0.266-0.408,0.398-0.731,0.398-0.969s-0.205-0.357-0.616-0.357s-1.197,0.51-2.358,1.529c-1.741,1.496-3.423,3.739-5.042,6.729
		c-0.146,0.227-0.309,0.368-0.49,0.425c-0.182,0.056-0.538,0.096-1.07,0.119c-0.531,0.022-0.882,0.079-1.052,0.17
		c0.387-0.725,1.149-2.209,2.285-4.452c2.032-3.964,3.361-6.23,3.991-6.797c0.29-0.272,0.689-0.408,1.197-0.408
		c0.096,0,0.345,0.034,0.743,0.102c0.399,0.068,0.695,0.08,0.889,0.034c-0.895,0.454-2.357,2.583-4.39,6.389
		c1.137-1.313,2.171-2.362,3.103-3.144c0.931-0.782,2.049-1.506,3.355-2.175c1.306-0.668,2.261-1.002,2.865-1.002
		C163.93,86.318,164.063,86.341,164.184,86.386z"/>
	<linearGradient id="SVGID_3_" gradientUnits="userSpaceOnUse" x1="164.2922" y1="86.8957" x2="183.3371" y2="86.8957">
		<stop  offset="0" style="stop-color:#1B75BC"/>
		<stop  offset="0.2086" style="stop-color:#0093D6"/>
		<stop  offset="0.3917" style="stop-color:#00AEEF"/>
		<stop  offset="0.5858" style="stop-color:#00AEEF"/>
		<stop  offset="0.6166" style="stop-color:#00A8E9"/>
		<stop  offset="0.798" style="stop-color:#008ED1"/>
		<stop  offset="0.9308" style="stop-color:#007CC2"/>
		<stop  offset="1" style="stop-color:#1B75BC"/>
	</linearGradient>
	<path fill="url(#SVGID_3_)" d="M173.035,95.562c0,0.726,0.313,1.087,0.942,1.087c1.137,0,2.648-1.778,4.535-5.335
		c0.072-0.136,0.139-0.272,0.199-0.408c0.061-0.136,0.157-0.227,0.29-0.272s0.224-0.017,0.272,0.085
		c0.048,0.102,0.023,0.267-0.072,0.493c-1.936,4.214-3.895,6.321-5.877,6.321c-0.653,0-1.174-0.272-1.561-0.815
		c-0.387-0.544-0.58-1.082-0.58-1.615c0-0.532,0.061-1.025,0.182-1.478c-1.403,2.175-2.612,3.41-3.628,3.704
		c-0.29,0.114-0.575,0.17-0.853,0.17c-0.278,0-0.551-0.034-0.816-0.102c-1.185-0.294-1.777-1.178-1.777-2.651
		c0-0.997,0.272-2.102,0.816-3.314c0.544-1.211,1.312-2.373,2.304-3.483c0.991-1.11,2.188-1.857,3.591-2.243
		c0.508-0.158,1.106-0.238,1.796-0.238s1.457,0.204,2.304,0.612c1.645-2.9,3.047-5.585,4.208-8.055
		c0.339-0.748,0.671-1.229,0.998-1.444c0.326-0.215,0.628-0.323,0.906-0.323s0.447,0,0.508,0s0.291,0.029,0.689,0.085
		c0.399,0.057,0.708,0.074,0.925,0.051c-0.557,0.476-2.031,2.787-4.426,6.933c-3.047,5.302-4.885,8.836-5.514,10.604
		C173.155,94.588,173.035,95.132,173.035,95.562z M174.813,86.624c-0.314-0.294-0.757-0.442-1.324-0.442
		c-0.568,0-1.36,0.396-2.376,1.189c-1.621,1.269-2.963,2.833-4.027,4.69c-0.701,1.224-1.052,2.232-1.052,3.025
		c0,0.362,0.078,0.691,0.236,0.985c0.156,0.295,0.404,0.442,0.743,0.442c0.822,0,1.838-0.793,3.047-2.379
		C171.27,92.549,172.854,90.045,174.813,86.624z"/>
</g>
<g>
	<linearGradient id="SVGID_4_" gradientUnits="userSpaceOnUse" x1="5.9593" y1="48.5854" x2="63.8157" y2="48.5854">
		<stop  offset="0" style="stop-color:#1B75BC"/>
		<stop  offset="0.2086" style="stop-color:#0093D6"/>
		<stop  offset="0.3917" style="stop-color:#00AEEF"/>
		<stop  offset="0.5858" style="stop-color:#00AEEF"/>
		<stop  offset="0.6166" style="stop-color:#00A8E9"/>
		<stop  offset="0.798" style="stop-color:#008ED1"/>
		<stop  offset="0.9308" style="stop-color:#007CC2"/>
		<stop  offset="1" style="stop-color:#1B75BC"/>
	</linearGradient>
	<path fill="url(#SVGID_4_)" d="M20.097,33.154c-2.196,4.458-3.294,8.445-3.294,11.959c0,7.245,2.653,11.681,7.961,13.31
		c1.555,0.386,3.145,0.579,4.77,0.579c1.624,0,3.26-0.193,4.907-0.579c3.294-0.814,6.246-2.035,8.854-3.665
		c2.608-1.628,4.255-3.192,4.942-4.693c1.829-3.987,3.797-5.98,5.902-5.98c1.052,0,1.761,0.558,2.127,1.672
		c0.182,0.429,0.229,0.9,0.137,1.415c-0.458,3.343-1.441,6.655-2.951,9.934c-1.51,3.279-3.637,7.041-6.383,11.284
		c5.491,0.042,10.501,0.6,15.03,1.672c0.961,0.214,1.441,0.515,1.441,0.9c0,0.471-0.664,0.557-1.99,0.257
		c-3.157-0.771-7.71-1.157-13.658-1.157c-0.549,0-1.144,0-1.785,0c-2.791,3.771-6.509,7.105-11.152,9.998
		c-4.645,2.894-9.163,4.875-13.555,5.948c-2.425,0.6-4.484,0.9-6.177,0.9c-1.693,0-3.112-0.193-4.255-0.579
		c-3.34-1.157-5.01-2.679-5.01-4.565c0-0.558,0.161-1.157,0.48-1.8c1.235-2.572,4.483-4.951,9.746-7.137
		c3.98-1.671,8.178-2.808,12.594-3.408c4.415-0.601,9.369-0.943,14.859-1.029c3.386-5.358,5.697-10.63,6.932-15.817l0.274-1.093
		c-2.196,1.972-4.679,3.719-7.447,5.24c-2.769,1.522-5.182,2.583-7.241,3.183c-3.294,0.986-6.005,1.479-8.133,1.479
		c-2.127,0-3.992-0.278-5.593-0.835c-2.929-0.942-5.309-2.829-7.138-5.658c-1.968-3-2.951-6.58-2.951-10.738
		c0-4.157,1.167-8.616,3.5-13.374c-3.02-2.915-4.53-6.012-4.53-9.291s1.418-6.397,4.255-9.355c0.549-0.556,0.949-0.76,1.201-0.611
		c0.251,0.151,0.148,0.526-0.309,1.125c-2.059,2.572-3.088,5.166-3.088,7.78c0,3.001,1.189,5.809,3.569,8.423
		c0.274-0.557,0.777-1.392,1.51-2.507c3.569-5.486,8.418-9.687,14.55-12.603c4.804-2.314,9.447-3.472,13.932-3.472
		c1.235,0,2.471,0.086,3.706,0.257c5.902,0.858,9.883,3.13,11.942,6.815c0.824,1.458,1.235,3.033,1.235,4.726
		c0,1.694-0.572,3.504-1.716,5.433c-2.563,4.158-7.046,7.073-13.452,8.744c-3.387,0.9-6.841,1.351-10.363,1.351
		C30.872,37.591,24.809,36.112,20.097,33.154z M9.459,82.213c0,1.199,1.098,2.014,3.294,2.443c0.731,0.17,1.532,0.257,2.402,0.257
		c3.248,0,7.366-1.093,12.354-3.279c6.314-2.701,11.324-6.538,15.03-11.509c-4.804,0.128-9.014,0.471-12.628,1.029
		c-5.216,0.728-10.181,2.507-14.894,5.336C11.312,78.719,9.459,80.626,9.459,82.213z M48.511,12.258
		c-3.936,0-8.099,1.244-12.491,3.729c-6.451,3.601-11.461,8.767-15.03,15.496c2.15,1.543,4.633,2.636,7.447,3.279
		c2.813,0.643,5.067,0.964,6.76,0.964c9.653,0,16.952-2.421,21.894-7.266c2.471-2.485,3.706-4.972,3.706-7.458
		c0-3.943-2.357-6.601-7.069-7.973C51.988,12.515,50.249,12.258,48.511,12.258z"/>
	<linearGradient id="SVGID_5_" gradientUnits="userSpaceOnUse" x1="58.4622" y1="48.1032" x2="74.0413" y2="48.1032">
		<stop  offset="0" style="stop-color:#1B75BC"/>
		<stop  offset="0.2086" style="stop-color:#0093D6"/>
		<stop  offset="0.3917" style="stop-color:#00AEEF"/>
		<stop  offset="0.5858" style="stop-color:#00AEEF"/>
		<stop  offset="0.6166" style="stop-color:#00A8E9"/>
		<stop  offset="0.798" style="stop-color:#008ED1"/>
		<stop  offset="0.9308" style="stop-color:#007CC2"/>
		<stop  offset="1" style="stop-color:#1B75BC"/>
	</linearGradient>
	<path fill="url(#SVGID_5_)" d="M63.747,61.445c0.869,0,1.784-0.407,2.745-1.222c1.692-1.585,3.843-4.822,6.451-9.709
		c0.32-0.643,0.641-0.835,0.961-0.579c0.091,0.086,0.137,0.225,0.137,0.418s-0.183,0.665-0.549,1.415
		c-0.367,0.75-0.698,1.426-0.995,2.025c-0.298,0.601-0.87,1.575-1.716,2.926c-0.847,1.35-1.613,2.39-2.299,3.118
		c-1.876,2.015-3.649,3.022-5.319,3.022c-1.671,0-2.872-0.471-3.603-1.415c-0.732-0.942-1.098-1.993-1.098-3.15
		c0-1.158,0.297-2.421,0.892-3.793l4.393-10.48c0.091-0.257,0.137-0.6,0.137-1.029c0-0.428-0.275-0.986-0.824-1.672l3.775-0.064
		c1.052,0,1.669,0.183,1.853,0.547c0.182,0.365,0.045,0.932-0.412,1.704l-5.49,12.023c-0.779,1.586-1.167,2.937-1.167,4.051
		C61.619,60.824,62.328,61.445,63.747,61.445z M70.472,37.848c-0.641,0.515-1.35,0.772-2.127,0.772
		c-0.778,0-1.396-0.257-1.853-0.772c-0.458-0.514-0.641-1.135-0.549-1.864c0.138-0.729,0.526-1.351,1.167-1.865
		c0.64-0.514,1.349-0.771,2.127-0.771c0.778,0,1.407,0.257,1.888,0.771s0.652,1.136,0.515,1.865
		C71.502,36.712,71.113,37.333,70.472,37.848z"/>
	<linearGradient id="SVGID_6_" gradientUnits="userSpaceOnUse" x1="66.4226" y1="52.2824" x2="97.2386" y2="52.2824">
		<stop  offset="0" style="stop-color:#1B75BC"/>
		<stop  offset="0.2086" style="stop-color:#0093D6"/>
		<stop  offset="0.3917" style="stop-color:#00AEEF"/>
		<stop  offset="0.5858" style="stop-color:#00AEEF"/>
		<stop  offset="0.6166" style="stop-color:#00A8E9"/>
		<stop  offset="0.798" style="stop-color:#008ED1"/>
		<stop  offset="0.9308" style="stop-color:#007CC2"/>
		<stop  offset="1" style="stop-color:#1B75BC"/>
	</linearGradient>
	<path fill="url(#SVGID_6_)" d="M93.738,41.77c-5.627,9.259-8.441,15.303-8.441,18.132c0,1.115,0.434,1.671,1.304,1.671
		c2.333,0,5.467-3.707,9.403-11.123c0.274-0.6,0.549-0.836,0.824-0.708c0.274,0.129,0.412,0.3,0.412,0.515
		c0,0.215-0.092,0.472-0.274,0.771c-2.426,4.587-4.473,7.748-6.143,9.484c-1.671,1.736-3.341,2.604-5.01,2.604
		c-1.671,0-2.94-0.6-3.809-1.8c-0.458-0.557-0.687-1.318-0.687-2.283s0.229-2.132,0.687-3.504c0.457-1.371,1.716-3.601,3.775-6.687
		c0.503-0.771,0.755-1.382,0.755-1.833s-0.389-0.675-1.167-0.675c-0.778,0-2.265,0.964-4.461,2.894
		c-3.294,2.829-6.475,7.073-9.54,12.73c-0.274,0.429-0.583,0.697-0.926,0.804c-0.343,0.107-1.019,0.182-2.025,0.225
		c-1.006,0.042-1.669,0.15-1.99,0.322c0.732-1.372,2.174-4.179,4.324-8.423c3.844-7.501,6.359-11.788,7.55-12.859
		c0.549-0.515,1.304-0.772,2.265-0.772c0.183,0,0.652,0.064,1.407,0.193c0.755,0.128,1.314,0.15,1.681,0.064
		c-1.693,0.858-4.461,4.887-8.304,12.088c2.15-2.485,4.106-4.469,5.868-5.947c1.761-1.479,3.877-2.85,6.348-4.115
		c2.471-1.264,4.278-1.896,5.422-1.896C93.258,41.642,93.509,41.685,93.738,41.77z"/>
	<linearGradient id="SVGID_7_" gradientUnits="userSpaceOnUse" x1="94.0808" y1="51.6074" x2="120.2298" y2="51.6074">
		<stop  offset="0" style="stop-color:#1B75BC"/>
		<stop  offset="0.2086" style="stop-color:#0093D6"/>
		<stop  offset="0.3917" style="stop-color:#00AEEF"/>
		<stop  offset="0.5858" style="stop-color:#00AEEF"/>
		<stop  offset="0.6166" style="stop-color:#00A8E9"/>
		<stop  offset="0.798" style="stop-color:#008ED1"/>
		<stop  offset="0.9308" style="stop-color:#007CC2"/>
		<stop  offset="1" style="stop-color:#1B75BC"/>
	</linearGradient>
	<path fill="url(#SVGID_7_)" d="M108.493,40.355c3.339,0,5.01,1.972,5.01,5.916c0,1.8-0.504,3.729-1.51,5.787
		c-1.282,2.787-3.203,5.315-5.765,7.587c0.594,1.072,1.67,1.607,3.226,1.607c1.235,0,2.402-0.579,3.5-1.736
		c1.373-1.328,2.356-2.497,2.951-3.504c0.594-1.007,1.029-1.746,1.304-2.218c0.275-0.471,0.628-1.146,1.064-2.025
		c0.434-0.878,0.697-1.415,0.789-1.607c0.091-0.193,0.251-0.289,0.48-0.289c0.457-0.042,0.687,0.107,0.687,0.45
		c0,0.129-0.046,0.279-0.137,0.45l-0.412,0.9c-0.274,0.601-0.48,1.029-0.618,1.286c-0.137,0.257-0.377,0.718-0.72,1.382
		c-0.343,0.665-0.642,1.189-0.893,1.576c-0.252,0.386-0.595,0.9-1.029,1.543c-0.436,0.643-0.824,1.157-1.167,1.543
		c-0.343,0.386-0.767,0.815-1.27,1.286c-0.504,0.472-0.984,0.836-1.441,1.093c-1.144,0.643-2.22,0.965-3.226,0.965
		c-1.876,0-3.34-0.557-4.393-1.672c-2.105,1.458-4.049,2.186-5.833,2.186c-3.34,0-5.01-1.971-5.01-5.916
		c0-1.8,0.503-3.729,1.51-5.787c1.373-3,3.305-5.55,5.8-7.651C103.884,41.406,106.251,40.355,108.493,40.355z M109.249,42.349
		c-1.235,0-2.701,0.771-4.393,2.315c-1.693,1.543-3.203,3.644-4.53,6.301c-1.602,3.086-2.402,5.616-2.402,7.587
		c0,1.972,0.8,2.958,2.402,2.958c1.143,0,2.425-0.579,3.843-1.736c-0.732-0.985-1.098-2.035-1.098-3.15
		c0.091-1.842,0.893-2.765,2.402-2.765c0.594,0,1.086,0.193,1.476,0.579c0.388,0.386,0.583,0.739,0.583,1.061
		c0,0.321-0.046,0.654-0.138,0.997c0.778-1.071,1.67-2.593,2.677-4.565c1.143-2.186,1.716-4.329,1.716-6.43
		C111.788,43.399,110.941,42.349,109.249,42.349z"/>
</g>
<g>
	<linearGradient id="SVGID_8_" gradientUnits="userSpaceOnUse" x1="66.6213" y1="139.741" x2="162.6374" y2="139.741">
		<stop  offset="0" style="stop-color:#1B75BC"/>
		<stop  offset="0.2086" style="stop-color:#0093D6"/>
		<stop  offset="0.3917" style="stop-color:#00AEEF"/>
		<stop  offset="0.5858" style="stop-color:#00AEEF"/>
		<stop  offset="0.6166" style="stop-color:#00A8E9"/>
		<stop  offset="0.798" style="stop-color:#008ED1"/>
		<stop  offset="0.9308" style="stop-color:#007CC2"/>
		<stop  offset="1" style="stop-color:#1B75BC"/>
	</linearGradient>
	<path fill="url(#SVGID_8_)" d="M127.498,158.741c0,4.072,1.761,6.108,5.285,6.108c3.294,0,7.366-1.823,12.216-5.465
		c5.307-3.943,8.945-8.102,10.913-12.474c2.241-4.929,3.363-9.13,3.363-12.602c0-3.472-0.744-6.086-2.23-7.844
		c-1.487-1.757-3.535-2.636-6.143-2.636c-0.595,0-1.213,0.043-1.853,0.128c-1.098,0.257-1.911,0.386-2.437,0.386
		c-0.526,0-0.789-0.128-0.789-0.386c0-0.386,0.422-0.75,1.27-1.093c0.846-0.343,1.486-0.515,1.922-0.515c0.434,0,0.789,0,1.063,0
		c0.275,0,0.594,0,0.961,0c2.608,0,4.999,0.964,7.172,2.894c2.172,1.929,3.58,4.758,4.221,8.487c0.137,0.9,0.206,1.823,0.206,2.765
		c0,3.172-0.801,6.773-2.402,10.802c-2.242,5.315-6.098,9.837-11.564,13.566c-5.468,3.729-10.49,5.594-15.065,5.594
		c-4.759,0-7.687-2.058-8.785-6.173c-0.321-1.071-0.48-2.528-0.48-4.372c0-1.842,0.48-4.244,1.441-7.201
		c-2.471,3.858-5.674,8.037-9.608,12.538c-2.151,2.4-4.348,4.393-6.589,5.979c-2.379,1.671-4.393,2.507-6.04,2.507
		c-3.25,0-4.873-1.843-4.873-5.529c0-4.329,2.996-13.159,8.991-26.49c3.751-8.487,5.628-14.853,5.628-19.096
		c0-2.743-0.881-4.64-2.642-5.69c-1.762-1.05-3.855-1.575-6.28-1.575c-1.053,0-2.151,0.107-3.294,0.321
		c-8.099,1.543-15.283,5.637-21.551,12.281c-3.112,3.343-5.262,6.548-6.451,9.612c-1.19,3.065-1.865,5.337-2.024,6.815
		c-0.161,1.479-0.24,2.701-0.24,3.665s0.194,2.069,0.583,3.312c0.388,1.244,1.064,2.401,2.025,3.472
		c1.784,1.929,4.278,2.894,7.481,2.894c5.307,0,9.516-2.593,12.628-7.78c1.601-2.657,2.402-5.058,2.402-7.201
		c0-3.515-1.671-5.272-5.01-5.272c-0.549,0-1.235,0.064-2.059,0.193c-0.823,0.128-1.213,0.043-1.167-0.257
		c0.045-0.299,0.663-0.621,1.853-0.964c1.189-0.343,2.378-0.515,3.569-0.515c2.378,0,4.118,0.858,5.216,2.572
		c0.687,1.072,1.03,2.336,1.03,3.793c0,1.458-0.436,3.15-1.304,5.079c-2.333,5.016-6.52,8.703-12.56,11.059
		c-1.602,0.643-3.088,0.965-4.461,0.965c-4.485,0-8.054-1.5-10.707-4.501c-1.877-2.058-3.065-4.715-3.569-7.973
		c-0.091-0.643-0.137-1.307-0.137-1.993c0-2.743,0.744-5.711,2.23-8.905c1.486-3.193,3.511-6.162,6.074-8.905
		c2.562-2.743,5.354-5.036,8.373-6.88c3.02-1.842,6.2-3.385,9.54-4.629c3.477-1.243,6.702-1.865,9.677-1.865
		c2.974,0,5.673,0.429,8.099,1.286c4.393,1.8,6.589,5.251,6.589,10.352c0,4.201-1.534,9.559-4.598,16.074
		c-2.105,4.416-4.118,9.152-6.04,14.209c-2.745,7.201-4.118,11.895-4.118,14.081c0,1.543,0.572,2.315,1.716,2.315
		c0.594,0,1.304-0.257,2.127-0.772c2.471-1.372,5.17-3.965,8.099-7.78c2.928-3.814,5.971-8.251,9.128-13.31
		c3.157-5.057,5.398-8.444,6.726-10.159c1.327-1.714,2.471-2.572,3.432-2.572c0.229,0,0.457,0.043,0.687,0.128
		c0.594,0.3,0.892,0.879,0.892,1.736c0,0.858-0.126,1.63-0.377,2.315c-0.252,0.686-1.431,3.419-3.535,8.198
		c-2.105,4.78-3.272,7.931-3.5,9.452C127.612,156.823,127.498,157.969,127.498,158.741z"/>
	<linearGradient id="SVGID_9_" gradientUnits="userSpaceOnUse" x1="161.3327" y1="147.0067" x2="176.9118" y2="147.0067">
		<stop  offset="0" style="stop-color:#1B75BC"/>
		<stop  offset="0.2086" style="stop-color:#0093D6"/>
		<stop  offset="0.3917" style="stop-color:#00AEEF"/>
		<stop  offset="0.5858" style="stop-color:#00AEEF"/>
		<stop  offset="0.6166" style="stop-color:#00A8E9"/>
		<stop  offset="0.798" style="stop-color:#008ED1"/>
		<stop  offset="0.9308" style="stop-color:#007CC2"/>
		<stop  offset="1" style="stop-color:#1B75BC"/>
	</linearGradient>
	<path fill="url(#SVGID_9_)" d="M166.617,160.348c0.869,0,1.784-0.407,2.745-1.222c1.692-1.585,3.843-4.822,6.451-9.709
		c0.32-0.643,0.641-0.835,0.961-0.579c0.091,0.086,0.137,0.225,0.137,0.418s-0.183,0.665-0.549,1.415
		c-0.367,0.75-0.698,1.426-0.995,2.025c-0.298,0.601-0.87,1.575-1.716,2.926c-0.847,1.35-1.613,2.39-2.299,3.118
		c-1.876,2.015-3.649,3.022-5.319,3.022c-1.671,0-2.872-0.471-3.603-1.415c-0.732-0.942-1.098-1.993-1.098-3.15
		c0-1.158,0.297-2.421,0.892-3.793l4.393-10.48c0.091-0.257,0.137-0.6,0.137-1.029c0-0.428-0.275-0.986-0.824-1.672l3.775-0.064
		c1.052,0,1.669,0.183,1.853,0.547c0.182,0.365,0.045,0.932-0.412,1.704l-5.49,12.023c-0.779,1.586-1.167,2.937-1.167,4.051
		C164.489,159.728,165.198,160.348,166.617,160.348z M173.343,136.751c-0.641,0.515-1.35,0.772-2.127,0.772
		c-0.778,0-1.396-0.257-1.853-0.772c-0.458-0.514-0.641-1.135-0.549-1.864c0.138-0.729,0.526-1.351,1.167-1.865
		c0.64-0.514,1.349-0.771,2.127-0.771c0.778,0,1.407,0.257,1.888,0.771s0.652,1.136,0.515,1.865
		C174.373,135.616,173.983,136.237,173.343,136.751z"/>
	<linearGradient id="SVGID_10_" gradientUnits="userSpaceOnUse" x1="173.8235" y1="141.6378" x2="209.8552" y2="141.6378">
		<stop  offset="0" style="stop-color:#1B75BC"/>
		<stop  offset="0.2086" style="stop-color:#0093D6"/>
		<stop  offset="0.3917" style="stop-color:#00AEEF"/>
		<stop  offset="0.5858" style="stop-color:#00AEEF"/>
		<stop  offset="0.6166" style="stop-color:#00A8E9"/>
		<stop  offset="0.798" style="stop-color:#008ED1"/>
		<stop  offset="0.9308" style="stop-color:#007CC2"/>
		<stop  offset="1" style="stop-color:#1B75BC"/>
	</linearGradient>
	<path fill="url(#SVGID_10_)" d="M190.364,158.034c0,1.372,0.594,2.057,1.784,2.057c2.15,0,5.01-3.364,8.579-10.094
		c0.137-0.257,0.263-0.515,0.377-0.772c0.114-0.257,0.297-0.428,0.549-0.514c0.251-0.085,0.423-0.032,0.515,0.161
		c0.091,0.193,0.045,0.504-0.137,0.932c-3.661,7.973-7.368,11.959-11.119,11.959c-1.235,0-2.22-0.514-2.951-1.543
		c-0.732-1.029-1.098-2.046-1.098-3.054c0-1.007,0.114-1.939,0.343-2.797c-2.654,4.115-4.941,6.452-6.863,7.008
		c-0.549,0.215-1.087,0.321-1.613,0.321c-0.526,0-1.042-0.064-1.544-0.193c-2.242-0.557-3.363-2.228-3.363-5.015
		c0-1.886,0.515-3.975,1.544-6.269c1.029-2.292,2.481-4.49,4.358-6.59c1.875-2.1,4.141-3.514,6.794-4.244
		c0.961-0.299,2.093-0.45,3.397-0.45s2.756,0.386,4.358,1.157c3.111-5.486,5.765-10.566,7.961-15.238
		c0.64-1.415,1.27-2.325,1.888-2.733c0.618-0.407,1.189-0.611,1.716-0.611c0.525,0,0.846,0,0.96,0c0.114,0,0.549,0.054,1.304,0.161
		c0.755,0.108,1.338,0.14,1.75,0.097c-1.053,0.9-3.843,5.272-8.373,13.117c-5.765,10.03-9.243,16.717-10.432,20.061
		C190.592,156.191,190.364,157.22,190.364,158.034z M193.727,141.124c-0.595-0.557-1.431-0.836-2.505-0.836
		c-1.076,0-2.574,0.75-4.496,2.25c-3.066,2.401-5.605,5.358-7.618,8.873c-1.328,2.314-1.99,4.222-1.99,5.722
		c0,0.686,0.148,1.308,0.446,1.865c0.297,0.558,0.766,0.836,1.407,0.836c1.555,0,3.477-1.5,5.765-4.501
		C187.023,152.333,190.021,147.596,193.727,141.124z"/>
	<linearGradient id="SVGID_11_" gradientUnits="userSpaceOnUse" x1="198.4616" y1="147.0067" x2="214.0407" y2="147.0067">
		<stop  offset="0" style="stop-color:#1B75BC"/>
		<stop  offset="0.2086" style="stop-color:#0093D6"/>
		<stop  offset="0.3917" style="stop-color:#00AEEF"/>
		<stop  offset="0.5858" style="stop-color:#00AEEF"/>
		<stop  offset="0.6166" style="stop-color:#00A8E9"/>
		<stop  offset="0.798" style="stop-color:#008ED1"/>
		<stop  offset="0.9308" style="stop-color:#007CC2"/>
		<stop  offset="1" style="stop-color:#1B75BC"/>
	</linearGradient>
	<path fill="url(#SVGID_11_)" d="M203.746,160.348c0.869,0,1.784-0.407,2.745-1.222c1.692-1.585,3.843-4.822,6.451-9.709
		c0.32-0.643,0.641-0.835,0.961-0.579c0.091,0.086,0.137,0.225,0.137,0.418s-0.183,0.665-0.549,1.415
		c-0.367,0.75-0.698,1.426-0.995,2.025c-0.298,0.601-0.87,1.575-1.716,2.926c-0.847,1.35-1.613,2.39-2.299,3.118
		c-1.876,2.015-3.649,3.022-5.319,3.022c-1.671,0-2.872-0.471-3.603-1.415c-0.732-0.942-1.098-1.993-1.098-3.15
		c0-1.158,0.297-2.421,0.892-3.793l4.393-10.48c0.091-0.257,0.137-0.6,0.137-1.029c0-0.428-0.275-0.986-0.824-1.672l3.775-0.064
		c1.052,0,1.669,0.183,1.853,0.547c0.182,0.365,0.045,0.932-0.412,1.704l-5.49,12.023c-0.779,1.586-1.167,2.937-1.167,4.051
		C201.618,159.728,202.327,160.348,203.746,160.348z M210.472,136.751c-0.641,0.515-1.35,0.772-2.127,0.772
		c-0.778,0-1.396-0.257-1.853-0.772c-0.458-0.514-0.641-1.135-0.549-1.864c0.138-0.729,0.526-1.351,1.167-1.865
		c0.64-0.514,1.349-0.771,2.127-0.771c0.778,0,1.407,0.257,1.888,0.771s0.652,1.136,0.515,1.865
		C211.502,135.616,211.112,136.237,210.472,136.751z"/>
</g>
</svg>
