<?xml version="1.0" encoding="utf-8"?>
<!-- Generator: Adobe Illustrator 21.0.0, SVG Export Plug-In . SVG Version: 6.00 Build 0)  -->
<svg version="1.1" id="Layer_1" xmlns="http://www.w3.org/2000/svg" xmlns:xlink="http://www.w3.org/1999/xlink" x="0px" y="0px"
	 viewBox="0 0 390 100" enable-background="new 0 0 390 100" xml:space="preserve">
<g>
	<linearGradient id="SVGID_1_" gradientUnits="userSpaceOnUse" x1="6.2167" y1="49.9998" x2="161.0444" y2="49.9998">
		<stop  offset="0" style="stop-color:#1B75BC"/>
		<stop  offset="0.2086" style="stop-color:#0093D6"/>
		<stop  offset="0.3917" style="stop-color:#00AEEF"/>
		<stop  offset="0.5858" style="stop-color:#00AEEF"/>
		<stop  offset="0.6166" style="stop-color:#00A8E9"/>
		<stop  offset="0.798" style="stop-color:#008ED1"/>
		<stop  offset="0.9308" style="stop-color:#007CC2"/>
		<stop  offset="1" style="stop-color:#1B75BC"/>
	</linearGradient>
	<path fill="url(#SVGID_1_)" d="M149.507,33.785c-5.26-2.698-11.295-3.058-16.138-0.974c-3.96,1.702-6.806,4.918-8.016,9.051
		c-0.847,2.89-0.557,5.567,0.862,7.953c3.306,5.565,11.62,7.618,13.253,7.973l0.359-1.648c-1.515-0.329-9.212-2.221-12.162-7.186
		c-1.168-1.968-1.402-4.194-0.694-6.617c1.081-3.695,3.525-6.453,7.063-7.976c4.392-1.887,9.886-1.541,14.703,0.928
		c5.053,2.589,8.838,7.33,10.127,12.68c1.331,5.532-0.039,11.335-3.963,16.779c-9.893,13.719-31.753,14.726-54.391,2.507
		c-11.005-5.938-24.15-17.097-34.307-29.124C53.188,22.714,36.056,18.424,20.362,26.667C8.875,32.704,5.116,44.531,6.485,53.577
		c1.348,8.895,7.262,15.362,15.436,16.875c10.181,1.897,16.194-2.653,17.644-7.989c1.274-4.689-0.891-10.689-7.495-13.08
		l-0.573,1.585c5.906,2.141,7.478,7.23,6.438,11.053c-1.155,4.252-5.97,8.569-15.708,6.773c-7.444-1.379-12.836-7.307-14.073-15.471
		c-1.28-8.452,2.24-19.512,12.992-25.163c15.156-7.961,31.11-3.935,43.768,11.056C75.353,51.579,88.36,62.616,99.709,68.739
		c10.801,5.829,21.451,8.713,30.818,8.711c10.944,0,20.133-3.939,25.741-11.719c5.335-7.398,5.247-13.958,4.235-18.159
		C159.103,41.751,154.992,36.596,149.507,33.785z"/>
	<linearGradient id="SVGID_2_" gradientUnits="userSpaceOnUse" x1="228.9567" y1="50" x2="383.7833" y2="50">
		<stop  offset="0" style="stop-color:#1B75BC"/>
		<stop  offset="0.2086" style="stop-color:#0093D6"/>
		<stop  offset="0.3917" style="stop-color:#00AEEF"/>
		<stop  offset="0.5858" style="stop-color:#00AEEF"/>
		<stop  offset="0.6166" style="stop-color:#00A8E9"/>
		<stop  offset="0.798" style="stop-color:#008ED1"/>
		<stop  offset="0.9308" style="stop-color:#007CC2"/>
		<stop  offset="1" style="stop-color:#1B75BC"/>
	</linearGradient>
	<path fill="url(#SVGID_2_)" d="M369.638,26.667c-15.685-8.246-32.827-3.953-45.843,11.462
		c-10.151,12.023-23.295,23.184-34.307,29.124c-22.636,12.218-44.498,11.214-54.389-2.507c-3.925-5.445-5.293-11.247-3.962-16.781
		c1.289-5.349,5.073-10.089,10.125-12.678c4.815-2.467,10.313-2.813,14.703-0.928c3.54,1.523,5.982,4.282,7.063,7.976
		c0.709,2.421,0.475,4.647-0.692,6.617c-2.95,4.965-10.649,6.857-12.162,7.186l0.356,1.648c1.635-0.354,9.947-2.408,13.256-7.973
		c1.417-2.388,1.707-5.063,0.863-7.953c-1.213-4.133-4.06-7.348-8.019-9.052c-4.845-2.083-10.88-1.719-16.14,0.976
		c-5.481,2.811-9.594,7.965-10.995,13.787c-1.012,4.201-1.098,10.763,4.232,18.16c5.61,7.782,14.799,11.72,25.744,11.72
		c9.364,0,20.02-2.886,30.82-8.713c11.351-6.127,24.36-17.163,34.795-29.523c12.65-14.99,28.605-19.019,43.766-11.056
		c10.751,5.651,14.275,16.709,12.992,25.161c-1.236,8.165-6.628,14.093-14.073,15.473c-9.723,1.803-14.555-2.521-15.708-6.773
		c-1.038-3.823,0.534-8.912,6.44-11.053l-0.573-1.585c-6.605,2.391-8.77,8.39-7.495,13.08c1.447,5.334,7.445,9.889,17.646,7.989
		c8.171-1.513,14.084-7.98,15.432-16.877C384.885,44.531,381.125,32.704,369.638,26.667z"/>
	<linearGradient id="SVGID_3_" gradientUnits="userSpaceOnUse" x1="179.6552" y1="59.5896" x2="210.3457" y2="59.5896">
		<stop  offset="0" style="stop-color:#1B75BC"/>
		<stop  offset="0.2086" style="stop-color:#0093D6"/>
		<stop  offset="0.3917" style="stop-color:#00AEEF"/>
		<stop  offset="0.5858" style="stop-color:#00AEEF"/>
		<stop  offset="0.6166" style="stop-color:#00A8E9"/>
		<stop  offset="0.798" style="stop-color:#008ED1"/>
		<stop  offset="0.9308" style="stop-color:#007CC2"/>
		<stop  offset="1" style="stop-color:#1B75BC"/>
	</linearGradient>
	<path fill="url(#SVGID_3_)" d="M205.166,44.085c-3.992-1.143-8.432,2.063-10.165,7.214c-1.734-5.151-6.174-8.357-10.165-7.214
		c-4.147,1.188-6.23,6.613-4.653,12.118c0.188,0.656,0.422,1.281,0.691,1.876l0.001,0.002c0.019,0.041,0.036,0.084,0.055,0.125
		c0.49,1.092,4.453,9.462,14.072,17.12c9.619-7.658,13.582-16.028,14.072-17.12c0.019-0.041,0.036-0.083,0.055-0.125l0.001-0.002
		c0.269-0.595,0.503-1.22,0.691-1.876C211.396,50.698,209.313,45.273,205.166,44.085z"/>
</g>
</svg>
