<?xml version="1.0" encoding="utf-8"?>
<!-- Generator: Adobe Illustrator 21.0.0, SVG Export Plug-In . SVG Version: 6.00 Build 0)  -->
<svg version="1.1" id="Layer_1" xmlns="http://www.w3.org/2000/svg" xmlns:xlink="http://www.w3.org/1999/xlink" x="0px" y="0px"
	 viewBox="0 0 340 70" enable-background="new 0 0 340 70" xml:space="preserve">
<g>
	<g>
		
			<linearGradient id="SVGID_1_" gradientUnits="userSpaceOnUse" x1="119.75" y1="-259.4341" x2="131.582" y2="-259.4341" gradientTransform="matrix(2.9325 0 0 2.768 -226.3437 757.5747)">
			<stop  offset="0" style="stop-color:#1B75BC"/>
			<stop  offset="0.2086" style="stop-color:#0093D6"/>
			<stop  offset="0.3917" style="stop-color:#00AEEF"/>
			<stop  offset="0.5858" style="stop-color:#00AEEF"/>
			<stop  offset="0.6166" style="stop-color:#00A8E9"/>
			<stop  offset="0.798" style="stop-color:#008ED1"/>
			<stop  offset="0.9308" style="stop-color:#007CC2"/>
			<stop  offset="1" style="stop-color:#1B75BC"/>
		</linearGradient>
		<rect x="124.829" y="39.199" fill="url(#SVGID_1_)" width="34.698" height="0.531"/>
		
			<linearGradient id="SVGID_2_" gradientUnits="userSpaceOnUse" x1="139.5772" y1="-259.4341" x2="150.4209" y2="-259.4341" gradientTransform="matrix(2.9325 0 0 2.768 -226.3437 757.5747)">
			<stop  offset="0" style="stop-color:#1B75BC"/>
			<stop  offset="0.2086" style="stop-color:#0093D6"/>
			<stop  offset="0.3917" style="stop-color:#00AEEF"/>
			<stop  offset="0.5858" style="stop-color:#00AEEF"/>
			<stop  offset="0.6166" style="stop-color:#00A8E9"/>
			<stop  offset="0.798" style="stop-color:#008ED1"/>
			<stop  offset="0.9308" style="stop-color:#007CC2"/>
			<stop  offset="1" style="stop-color:#1B75BC"/>
		</linearGradient>
		<rect x="182.973" y="39.199" fill="url(#SVGID_2_)" width="31.8" height="0.531"/>
		
			<linearGradient id="SVGID_3_" gradientUnits="userSpaceOnUse" x1="149.8701" y1="-260.2755" x2="168.1442" y2="-260.2755" gradientTransform="matrix(2.9325 0 0 2.768 -226.3437 757.5747)">
			<stop  offset="0" style="stop-color:#1B75BC"/>
			<stop  offset="0.2086" style="stop-color:#0093D6"/>
			<stop  offset="0.3917" style="stop-color:#00AEEF"/>
			<stop  offset="0.5858" style="stop-color:#00AEEF"/>
			<stop  offset="0.6166" style="stop-color:#00A8E9"/>
			<stop  offset="0.798" style="stop-color:#008ED1"/>
			<stop  offset="0.9308" style="stop-color:#007CC2"/>
			<stop  offset="1" style="stop-color:#1B75BC"/>
		</linearGradient>
		<path fill="url(#SVGID_3_)" d="M213.157,39.73c1.965-4.801,2.566-7.903,7.432-10.216c3.986-1.892,8.886-1.283,13.025-1.387
			c-3.689,0.396-7.509,2.555-7.976,6.102c3.755-2.771,9.611-2.903,14.196-1.522c5.244,1.583,8.228,7.047,13.935,8.181
			c5.212,1.034,11.624-1.577,10.032-7.244c-2.237-7.961-12.008-1.288-6.18,1.272c2.368-2.564,4.155,1.76,0.902,2.349
			c-3.448,0.626-6.22-3.69-5.455-6.027c2.185-6.733,13.285-1.7,13.669,3.781c0.358,5.194-8.431,9.353-13.32,9.132
			c-6.95-0.316-11.472-7.188-18.684-6.193c3.402,0.604,7.924,5.667,12.014,7.227c-5.487,2.753-10.393-0.32-14.852-2.917
			c-6.203-3.616-12.12-2.396-16.828-2.538H213.157z"/>
		
			<linearGradient id="SVGID_4_" gradientUnits="userSpaceOnUse" x1="150.4209" y1="-257.033" x2="156.1823" y2="-257.033" gradientTransform="matrix(2.9325 0 0 2.768 -226.3437 757.5747)">
			<stop  offset="0" style="stop-color:#1B75BC"/>
			<stop  offset="0.2086" style="stop-color:#0093D6"/>
			<stop  offset="0.3917" style="stop-color:#00AEEF"/>
			<stop  offset="0.5858" style="stop-color:#00AEEF"/>
			<stop  offset="0.6166" style="stop-color:#00A8E9"/>
			<stop  offset="0.798" style="stop-color:#008ED1"/>
			<stop  offset="0.9308" style="stop-color:#007CC2"/>
			<stop  offset="1" style="stop-color:#1B75BC"/>
		</linearGradient>
		<path fill="url(#SVGID_4_)" d="M214.772,41.601c4.8-4.114,18.678,0.98,16.705,7.52c-0.739,2.441-5.413,3.917-7.589,2.307
			c-3.394-2.515,0.481-6.128,2.045-2.717c0.389,0.956-0.836,1.129-1.186,0.802c0.475,0.384,0.859,0.7,1.214,0.8
			c3.815,0,1.269-4.725-0.979-6.644C222.158,41.251,217.539,39.471,214.772,41.601L214.772,41.601z"/>
		
			<linearGradient id="SVGID_5_" gradientUnits="userSpaceOnUse" x1="102.1458" y1="-260.2755" x2="120.4199" y2="-260.2755" gradientTransform="matrix(2.9325 0 0 2.768 -226.3437 757.5747)">
			<stop  offset="0" style="stop-color:#1B75BC"/>
			<stop  offset="0.2086" style="stop-color:#0093D6"/>
			<stop  offset="0.3917" style="stop-color:#00AEEF"/>
			<stop  offset="0.5858" style="stop-color:#00AEEF"/>
			<stop  offset="0.6166" style="stop-color:#00A8E9"/>
			<stop  offset="0.798" style="stop-color:#008ED1"/>
			<stop  offset="0.9308" style="stop-color:#007CC2"/>
			<stop  offset="1" style="stop-color:#1B75BC"/>
		</linearGradient>
		<path fill="url(#SVGID_5_)" d="M126.793,39.73c-1.962-4.801-2.572-7.903-7.432-10.216c-3.984-1.892-8.886-1.283-13.022-1.387
			c3.689,0.396,7.506,2.555,7.97,6.102c-3.749-2.771-9.608-2.903-14.196-1.522c-5.241,1.583-8.219,7.047-13.933,8.181
			c-5.209,1.034-11.621-1.577-10.032-7.244c2.24-7.961,12.011-1.288,6.18,1.272c-2.368-2.564-4.155,1.76-0.905,2.349
			c3.457,0.626,6.22-3.69,5.461-6.027c-2.188-6.733-13.288-1.7-13.672,3.781c-0.358,5.194,8.431,9.353,13.323,9.132
			c6.945-0.316,11.469-7.188,18.684-6.193c-3.405,0.604-7.93,5.667-12.011,7.227c5.484,2.753,10.387-0.32,14.849-2.917
			c6.203-3.616,12.114-2.396,16.828-2.538H126.793z"/>
		
			<linearGradient id="SVGID_6_" gradientUnits="userSpaceOnUse" x1="114.1079" y1="-257.033" x2="119.8672" y2="-257.033" gradientTransform="matrix(2.9325 0 0 2.768 -226.3437 757.5747)">
			<stop  offset="0" style="stop-color:#1B75BC"/>
			<stop  offset="0.2086" style="stop-color:#0093D6"/>
			<stop  offset="0.3917" style="stop-color:#00AEEF"/>
			<stop  offset="0.5858" style="stop-color:#00AEEF"/>
			<stop  offset="0.6166" style="stop-color:#00A8E9"/>
			<stop  offset="0.798" style="stop-color:#008ED1"/>
			<stop  offset="0.9308" style="stop-color:#007CC2"/>
			<stop  offset="1" style="stop-color:#1B75BC"/>
		</linearGradient>
		<path fill="url(#SVGID_6_)" d="M125.172,41.601c-4.794-4.114-18.672,0.98-16.699,7.52c0.736,2.441,5.413,3.917,7.583,2.307
			c3.399-2.515-0.478-6.128-2.042-2.717c-0.387,0.956,0.842,1.129,1.186,0.802c-0.47,0.384-0.856,0.7-1.211,0.8
			c-3.812,0-1.269-4.725,0.977-6.644C117.792,41.251,122.412,39.471,125.172,41.601L125.172,41.601z"/>
		<g>
			
				<linearGradient id="SVGID_7_" gradientUnits="userSpaceOnUse" x1="120.2365" y1="-263.1731" x2="130.3213" y2="-263.1731" gradientTransform="matrix(2.9325 0 0 2.768 -226.3437 757.5747)">
				<stop  offset="0" style="stop-color:#1B75BC"/>
				<stop  offset="0.2086" style="stop-color:#0093D6"/>
				<stop  offset="0.3917" style="stop-color:#00AEEF"/>
				<stop  offset="0.5858" style="stop-color:#00AEEF"/>
				<stop  offset="0.6166" style="stop-color:#00A8E9"/>
				<stop  offset="0.798" style="stop-color:#008ED1"/>
				<stop  offset="0.9308" style="stop-color:#007CC2"/>
				<stop  offset="1" style="stop-color:#1B75BC"/>
			</linearGradient>
			<path fill="url(#SVGID_7_)" d="M155.829,36.158c-3.159,2.118-7.996,0.518-9.855-2.411c-2.019-3.181-1.638-6.477-5.046-8.949
				c-2.274-1.645-6.558-3.075-8.763-0.439c-2.016,2.413,0.618,6.124,3.752,4.809c-0.407,1.204-1.475,1.889-2.741,1.553
				c-0.069,0.112-0.18,0.17-0.338,0.172c0.667,0.523,2.675,1.166,4.007,0.626c-2.532,4.328-9.906-0.346-10.51-3.844
				c-0.916-5.205,6.266-7.043,10.564-6.471c4.316,0.57,7.893,3.091,8.987,7.043c1.223,4.452,2.311,8.493,8.079,8.29L155.829,36.158z
				"/>
			
				<linearGradient id="SVGID_8_" gradientUnits="userSpaceOnUse" x1="125.2333" y1="-264.7871" x2="129.6855" y2="-264.7871" gradientTransform="matrix(2.9325 0 0 2.768 -226.3437 757.5747)">
				<stop  offset="0" style="stop-color:#1B75BC"/>
				<stop  offset="0.2086" style="stop-color:#0093D6"/>
				<stop  offset="0.3917" style="stop-color:#00AEEF"/>
				<stop  offset="0.5858" style="stop-color:#00AEEF"/>
				<stop  offset="0.6166" style="stop-color:#00A8E9"/>
				<stop  offset="0.798" style="stop-color:#008ED1"/>
				<stop  offset="0.9308" style="stop-color:#007CC2"/>
				<stop  offset="1" style="stop-color:#1B75BC"/>
			</linearGradient>
			<path fill="url(#SVGID_8_)" d="M153.965,34.692c-5.258,0.157-7.486-5.204-7.446-9.374c0.02-2.141,1.054-4.075,0.326-6.167
				c-0.461-1.337-1.976-3.764-3.145-1.572c2.621,1.626-4.548,2.996-2.377-0.968c1.979-3.633,5.43-1.703,6.661,0.774
				c0.206-0.673,0.567-0.942,0.687-1.633c0.808,1.05,0.873,2.494,0.372,3.662c0.275-0.301,0.874-0.611,1.197-1.01
				c1.535,3.31-2.431,7.099-0.822,10.391c-0.93-0.843-1.698-1.895-1.661-3.096c-0.432,3.364,1.893,7.267,5.092,8.74L153.965,34.692z
				"/>
			
				<linearGradient id="SVGID_9_" gradientUnits="userSpaceOnUse" x1="128.1575" y1="-263.3164" x2="131.5478" y2="-263.3164" gradientTransform="matrix(2.9325 0 0 2.768 -226.3437 757.5747)">
				<stop  offset="0" style="stop-color:#1B75BC"/>
				<stop  offset="0.2086" style="stop-color:#0093D6"/>
				<stop  offset="0.3917" style="stop-color:#00AEEF"/>
				<stop  offset="0.5858" style="stop-color:#00AEEF"/>
				<stop  offset="0.6166" style="stop-color:#00A8E9"/>
				<stop  offset="0.798" style="stop-color:#008ED1"/>
				<stop  offset="0.9308" style="stop-color:#007CC2"/>
				<stop  offset="1" style="stop-color:#1B75BC"/>
			</linearGradient>
			<path fill="url(#SVGID_9_)" d="M153.63,33.644c-0.748-0.708-4.889-3.655-4.029-6.586c0.762-2.587,3.94-4.675,6.624-3.953
				c2.529,0.678,4.356,3.452,2.34,5.568c-2.282,2.394-4.88-1.092-2.133-2.027c0.132,0.434,0.507,0.785,0.45,1.351
				c2.824,0.373,0.942-3.225-0.441-3.868c-1.641-0.774-3.958-0.148-5.138,1.213c-1.334,1.548-0.971,4.474,0.424,5.961
				c1.647,1.755,1.306,1.21,3.047,3.173C154.773,34.477,154.383,34.354,153.63,33.644z"/>
			
				<linearGradient id="SVGID_10_" gradientUnits="userSpaceOnUse" x1="128.5518" y1="-266.4534" x2="130.6698" y2="-266.4534" gradientTransform="matrix(2.9325 0 0 2.768 -226.3437 757.5747)">
				<stop  offset="0" style="stop-color:#1B75BC"/>
				<stop  offset="0.2086" style="stop-color:#0093D6"/>
				<stop  offset="0.3917" style="stop-color:#00AEEF"/>
				<stop  offset="0.5858" style="stop-color:#00AEEF"/>
				<stop  offset="0.6166" style="stop-color:#00A8E9"/>
				<stop  offset="0.798" style="stop-color:#008ED1"/>
				<stop  offset="0.9308" style="stop-color:#007CC2"/>
				<stop  offset="1" style="stop-color:#1B75BC"/>
			</linearGradient>
			<path fill="url(#SVGID_10_)" d="M150.64,23.346c1.326-1.934,3.508-1,5.118-2.383c1.22-1.053,1.14-2.823,1.045-4.237
				c-2.408,0.719-4.579,2.274-5.467,4.497c0.879-0.518,1.798-1.015,2.847-1c-0.825,0.235-2.566,1.384-2.927,2.538L150.64,23.346z"/>
			
				<linearGradient id="SVGID_11_" gradientUnits="userSpaceOnUse" x1="128.3485" y1="-268.3933" x2="129.6129" y2="-268.3933" gradientTransform="matrix(2.9325 0 0 2.768 -226.3437 757.5747)">
				<stop  offset="0" style="stop-color:#1B75BC"/>
				<stop  offset="0.2086" style="stop-color:#0093D6"/>
				<stop  offset="0.3917" style="stop-color:#00AEEF"/>
				<stop  offset="0.5858" style="stop-color:#00AEEF"/>
				<stop  offset="0.6166" style="stop-color:#00A8E9"/>
				<stop  offset="0.798" style="stop-color:#008ED1"/>
				<stop  offset="0.9308" style="stop-color:#007CC2"/>
				<stop  offset="1" style="stop-color:#1B75BC"/>
			</linearGradient>
			<path fill="url(#SVGID_11_)" d="M150.841,18.464c0.009-1.796-1.183-2.856-0.667-4.691c0.284-1.03,1.054-1.965,1.552-2.904
				c3.471,1.602,1.873,5.365-0.266,7.331c0.008-0.995,0-1.991,0.017-2.988c-0.647,0.584-0.725,1.695-0.636,2.082V18.464z"/>
			
				<linearGradient id="SVGID_12_" gradientUnits="userSpaceOnUse" x1="126.7115" y1="-269.4168" x2="127.746" y2="-269.4168" gradientTransform="matrix(2.9325 0 0 2.768 -226.3437 757.5747)">
				<stop  offset="0" style="stop-color:#1B75BC"/>
				<stop  offset="0.2086" style="stop-color:#0093D6"/>
				<stop  offset="0.3917" style="stop-color:#00AEEF"/>
				<stop  offset="0.5858" style="stop-color:#00AEEF"/>
				<stop  offset="0.6166" style="stop-color:#00A8E9"/>
				<stop  offset="0.798" style="stop-color:#008ED1"/>
				<stop  offset="0.9308" style="stop-color:#007CC2"/>
				<stop  offset="1" style="stop-color:#1B75BC"/>
			</linearGradient>
			<path fill="url(#SVGID_12_)" d="M147.533,15.143c-0.968-0.952-2.188-2.529-2.282-3.906c-0.086-1.245,0.638-1.807,0.876-2.909
				c2.389,1.603,2.271,4.022,2.028,6.456c-0.135-0.502-0.702-1.784-1.418-2.345c0.152,0.956,0.238,2.004,0.796,2.898V15.143z"/>
		</g>
		<g>
			
				<linearGradient id="SVGID_13_" gradientUnits="userSpaceOnUse" x1="129.9443" y1="-259.1987" x2="134.9082" y2="-259.1987" gradientTransform="matrix(2.9325 0 0 2.768 -226.3437 757.5747)">
				<stop  offset="0" style="stop-color:#1B75BC"/>
				<stop  offset="0.2086" style="stop-color:#0093D6"/>
				<stop  offset="0.3917" style="stop-color:#00AEEF"/>
				<stop  offset="0.5858" style="stop-color:#00AEEF"/>
				<stop  offset="0.6166" style="stop-color:#00A8E9"/>
				<stop  offset="0.798" style="stop-color:#008ED1"/>
				<stop  offset="0.9308" style="stop-color:#007CC2"/>
				<stop  offset="1" style="stop-color:#1B75BC"/>
			</linearGradient>
			<path fill="url(#SVGID_13_)" d="M169.003,37.336c-1.443-1.353-4.809-2.328-6.81-2.01c-2.156,0.345-3.86,1.952-6.014,2.38
				c1.16,0.618,2.967,0.111,4.121-0.123c-1.838,0.664-2.735,1.195-2.984,3.267c-0.263,2.198-0.722,2.811-2.592,4.094
				c2.804,0.254,5.012-1.502,6.458-3.503c1.667-2.314,3.585-3.505,6.575-3.509c-3.981-2.049-6.478,2.973-8.929,4.815
				c1.114-1.773,1.306-4.233,3.285-5.394c2.26-1.324,4.834-0.686,7.168,0.168L169.003,37.336z"/>
			
				<linearGradient id="SVGID_14_" gradientUnits="userSpaceOnUse" x1="129.2266" y1="-261.5709" x2="134.9668" y2="-261.5709" gradientTransform="matrix(2.9325 0 0 2.768 -226.3437 757.5747)">
				<stop  offset="0" style="stop-color:#1B75BC"/>
				<stop  offset="0.2086" style="stop-color:#0093D6"/>
				<stop  offset="0.3917" style="stop-color:#00AEEF"/>
				<stop  offset="0.5858" style="stop-color:#00AEEF"/>
				<stop  offset="0.6166" style="stop-color:#00A8E9"/>
				<stop  offset="0.798" style="stop-color:#008ED1"/>
				<stop  offset="0.9308" style="stop-color:#007CC2"/>
				<stop  offset="1" style="stop-color:#1B75BC"/>
			</linearGradient>
			<path fill="url(#SVGID_14_)" d="M169.453,36.296c-3.05-1.399-5.063-2.734-8.643-1.9c-2.514,0.588-6.893,0.961-8.19-1.996
				c2.291,0.692,4.582-1.569,6.91-1.595c2.389-0.03,4.723,1.335,6.75,2.502c-2.781-0.957-7.134-1.713-9.923-0.224
				c0.074-0.045-0.226,0.039-0.049-0.017c0.091,0.017,0.086-0.064,0.086-0.099c2.325,1.282,4.112,0.535,6.595,0.381
				c2.657-0.167,4.144,1.14,5.768,2.321L169.453,36.296z"/>
			
				<linearGradient id="SVGID_15_" gradientUnits="userSpaceOnUse" x1="131.8828" y1="-263.097" x2="135.2669" y2="-263.097" gradientTransform="matrix(2.9325 0 0 2.768 -226.3437 757.5747)">
				<stop  offset="0" style="stop-color:#1B75BC"/>
				<stop  offset="0.2086" style="stop-color:#0093D6"/>
				<stop  offset="0.3917" style="stop-color:#00AEEF"/>
				<stop  offset="0.5858" style="stop-color:#00AEEF"/>
				<stop  offset="0.6166" style="stop-color:#00A8E9"/>
				<stop  offset="0.798" style="stop-color:#008ED1"/>
				<stop  offset="0.9308" style="stop-color:#007CC2"/>
				<stop  offset="1" style="stop-color:#1B75BC"/>
			</linearGradient>
			<path fill="url(#SVGID_15_)" d="M169.55,34.62c-0.65-2.575-3.339-3.415-5.238-5.034c-1.698-1.454-2.119-3.756-3.904-5.165
				c2.48-1.258,5.355,0.804,7.314,2.33c2.125,1.66,3.041,4.175,2.417,6.708c-0.753-1.78-1.484-3.171-3.694-3.736
				c1.595,1.416,3.036,2.407,3.23,4.51L169.55,34.62z"/>
			
				<linearGradient id="SVGID_16_" gradientUnits="userSpaceOnUse" x1="135.6494" y1="-262.327" x2="140.2959" y2="-262.327" gradientTransform="matrix(2.9325 0 0 2.768 -226.3437 757.5747)">
				<stop  offset="0" style="stop-color:#1B75BC"/>
				<stop  offset="0.2086" style="stop-color:#0093D6"/>
				<stop  offset="0.3917" style="stop-color:#00AEEF"/>
				<stop  offset="0.5858" style="stop-color:#00AEEF"/>
				<stop  offset="0.6166" style="stop-color:#00A8E9"/>
				<stop  offset="0.798" style="stop-color:#008ED1"/>
				<stop  offset="0.9308" style="stop-color:#007CC2"/>
				<stop  offset="1" style="stop-color:#1B75BC"/>
			</linearGradient>
			<path fill="url(#SVGID_16_)" d="M171.454,34.645c1.34-3.128,2.134-6.405,6.378-6.762c2.95-0.246,4.908,1.649,7.248,2.899
				c-2.621,0.828-3.328,3.418-6.123,4.028c-2.326,0.508-4.757-0.249-7.077,0.244c0.965-2.352,2.953-2.98,5.264-3.821
				c-1.518-0.122-3.889,0.43-4.771,1.976L171.454,34.645z"/>
			
				<linearGradient id="SVGID_17_" gradientUnits="userSpaceOnUse" x1="135.5655" y1="-258.712" x2="138.4088" y2="-258.712" gradientTransform="matrix(2.9325 0 0 2.768 -226.3437 757.5747)">
				<stop  offset="0" style="stop-color:#1B75BC"/>
				<stop  offset="0.2086" style="stop-color:#0093D6"/>
				<stop  offset="0.3917" style="stop-color:#00AEEF"/>
				<stop  offset="0.5858" style="stop-color:#00AEEF"/>
				<stop  offset="0.6166" style="stop-color:#00A8E9"/>
				<stop  offset="0.798" style="stop-color:#008ED1"/>
				<stop  offset="0.9308" style="stop-color:#007CC2"/>
				<stop  offset="1" style="stop-color:#1B75BC"/>
			</linearGradient>
			<path fill="url(#SVGID_17_)" d="M172.445,36.103c3.408-1.573,7.194,1.608,7.099,4.74c-0.091,2.875-3.265,3.657-3.792,6.397
				c-1.211-1.752-2.016-3.55-3.03-5.422c-0.498-0.912-1.343-1.672-1.489-2.667c-0.152-1.015,0.412-1.675,0.596-2.558
				c0.521,2.695,3.036,2.759,4.986,3.982C176.097,38.463,173.347,38.086,172.445,36.103L172.445,36.103z"/>
			
				<linearGradient id="SVGID_18_" gradientUnits="userSpaceOnUse" x1="132.2815" y1="-258.1966" x2="135.3239" y2="-258.1966" gradientTransform="matrix(2.9325 0 0 2.768 -226.3437 757.5747)">
				<stop  offset="0" style="stop-color:#1B75BC"/>
				<stop  offset="0.2086" style="stop-color:#0093D6"/>
				<stop  offset="0.3917" style="stop-color:#00AEEF"/>
				<stop  offset="0.5858" style="stop-color:#00AEEF"/>
				<stop  offset="0.6166" style="stop-color:#00A8E9"/>
				<stop  offset="0.798" style="stop-color:#008ED1"/>
				<stop  offset="0.9308" style="stop-color:#007CC2"/>
				<stop  offset="1" style="stop-color:#1B75BC"/>
			</linearGradient>
			<path fill="url(#SVGID_18_)" d="M170.317,38.141c0.599,2.635-0.272,5.191-2.686,6.582c-2.254,1.299-4.376,1.608-5.905,3.865
				c-0.876-4.328,2.24-8.431,6.575-9.407c-1.335,0.7-3.597,2.424-3.173,4.418c1.019-1.285,2.257-1.835,3.336-2.914
				c1.022-1.014,1.037-2.135,1.151-3.494L170.317,38.141z"/>
			
				<linearGradient id="SVGID_19_" gradientUnits="userSpaceOnUse" x1="134.4666" y1="-257.1659" x2="136.5057" y2="-257.1659" gradientTransform="matrix(2.9325 0 0 2.768 -226.3437 757.5747)">
				<stop  offset="0" style="stop-color:#1B75BC"/>
				<stop  offset="0.2086" style="stop-color:#0093D6"/>
				<stop  offset="0.3917" style="stop-color:#00AEEF"/>
				<stop  offset="0.5858" style="stop-color:#00AEEF"/>
				<stop  offset="0.6166" style="stop-color:#00A8E9"/>
				<stop  offset="0.798" style="stop-color:#008ED1"/>
				<stop  offset="0.9308" style="stop-color:#007CC2"/>
				<stop  offset="1" style="stop-color:#1B75BC"/>
			</linearGradient>
			<path fill="url(#SVGID_19_)" d="M171.692,41.519c0.848,1.512,2.374,3.357,2.268,5.044c-0.08,1.287-1.486,3.275-3.013,3.461
				c-1.375,0.166-2.408-1.742-2.795-2.834c-0.759-2.15,1.266-1.565,2.214-3.154c0.467,0.896,1.524,2.215,1.025,3.054
				c1.26-1.546,0.77-3.955,0.435-5.637L171.692,41.519z"/>
			
				<linearGradient id="SVGID_20_" gradientUnits="userSpaceOnUse" x1="137.9961" y1="-259.9441" x2="140.7553" y2="-259.9441" gradientTransform="matrix(2.9325 0 0 2.768 -226.3437 757.5747)">
				<stop  offset="0" style="stop-color:#1B75BC"/>
				<stop  offset="0.2086" style="stop-color:#0093D6"/>
				<stop  offset="0.3917" style="stop-color:#00AEEF"/>
				<stop  offset="0.5858" style="stop-color:#00AEEF"/>
				<stop  offset="0.6166" style="stop-color:#00A8E9"/>
				<stop  offset="0.798" style="stop-color:#008ED1"/>
				<stop  offset="0.9308" style="stop-color:#007CC2"/>
				<stop  offset="1" style="stop-color:#1B75BC"/>
			</linearGradient>
			<path fill="url(#SVGID_20_)" d="M186.321,39.399c-1.392,0.739-3.694,2.091-5.381,1.364c-0.324-2.234-0.716-3.257-2.603-4.652
				c2.231,0.284,3.202,2.667,5.309,2.657c0.074,0.031,0.074,0.034,0,0.011c-1.34-0.947-1.778-3.076-3.668-3.276
				c1.309-0.045,2.334-0.708,3.568-0.137C184.035,35.593,187.025,39.024,186.321,39.399z"/>
			
				<linearGradient id="SVGID_21_" gradientUnits="userSpaceOnUse" x1="134.9337" y1="-264.2021" x2="137.4431" y2="-264.2021" gradientTransform="matrix(2.9325 0 0 2.768 -226.3437 757.5747)">
				<stop  offset="0" style="stop-color:#1B75BC"/>
				<stop  offset="0.2086" style="stop-color:#0093D6"/>
				<stop  offset="0.3917" style="stop-color:#00AEEF"/>
				<stop  offset="0.5858" style="stop-color:#00AEEF"/>
				<stop  offset="0.6166" style="stop-color:#00A8E9"/>
				<stop  offset="0.798" style="stop-color:#008ED1"/>
				<stop  offset="0.9308" style="stop-color:#007CC2"/>
				<stop  offset="1" style="stop-color:#1B75BC"/>
			</linearGradient>
			<path fill="url(#SVGID_21_)" d="M171.446,31.558c0.246-1.056,0.309-2.061-0.138-3.02c-0.407-0.865-1.28-1.241-1.684-2.084
				c-0.785-1.623,0.278-3.491,1.518-4.67c1.755-1.669,2.726-0.47,4.078,1.061c1.054,1.189,1.73,2.884,1.418,4.43
				c-1.197,0.104-1.93,0.238-2.506,1.304c-0.957-0.564-1.406-1.798-1.904-2.719C171.558,27.798,173.072,29.799,171.446,31.558
				L171.446,31.558z"/>
		</g>
		<g>
			
				<linearGradient id="SVGID_22_" gradientUnits="userSpaceOnUse" x1="139.4658" y1="-263.1731" x2="149.5514" y2="-263.1731" gradientTransform="matrix(2.9325 0 0 2.768 -226.3437 757.5747)">
				<stop  offset="0" style="stop-color:#1B75BC"/>
				<stop  offset="0.2086" style="stop-color:#0093D6"/>
				<stop  offset="0.3917" style="stop-color:#00AEEF"/>
				<stop  offset="0.5858" style="stop-color:#00AEEF"/>
				<stop  offset="0.6166" style="stop-color:#00A8E9"/>
				<stop  offset="0.798" style="stop-color:#008ED1"/>
				<stop  offset="0.9308" style="stop-color:#007CC2"/>
				<stop  offset="1" style="stop-color:#1B75BC"/>
			</linearGradient>
			<path fill="url(#SVGID_22_)" d="M182.646,36.158c3.153,2.118,7.993,0.518,9.849-2.411c2.025-3.181,1.641-6.477,5.057-8.949
				c2.262-1.645,6.547-3.075,8.755-0.439c2.019,2.413-0.621,6.124-3.752,4.809c0.415,1.204,1.478,1.889,2.741,1.553
				c0.069,0.112,0.183,0.17,0.332,0.172c-0.664,0.523-2.663,1.166-4.001,0.626c2.532,4.328,9.9-0.346,10.516-3.844
				c0.911-5.205-6.269-7.043-10.567-6.471c-4.319,0.57-7.896,3.091-8.981,7.043c-1.228,4.452-2.326,8.493-8.09,8.29L182.646,36.158z
				"/>
			
				<linearGradient id="SVGID_23_" gradientUnits="userSpaceOnUse" x1="140.0996" y1="-264.7871" x2="144.5545" y2="-264.7871" gradientTransform="matrix(2.9325 0 0 2.768 -226.3437 757.5747)">
				<stop  offset="0" style="stop-color:#1B75BC"/>
				<stop  offset="0.2086" style="stop-color:#0093D6"/>
				<stop  offset="0.3917" style="stop-color:#00AEEF"/>
				<stop  offset="0.5858" style="stop-color:#00AEEF"/>
				<stop  offset="0.6166" style="stop-color:#00A8E9"/>
				<stop  offset="0.798" style="stop-color:#008ED1"/>
				<stop  offset="0.9308" style="stop-color:#007CC2"/>
				<stop  offset="1" style="stop-color:#1B75BC"/>
			</linearGradient>
			<path fill="url(#SVGID_23_)" d="M184.505,34.692c5.267,0.157,7.489-5.204,7.452-9.374c-0.017-2.141-1.057-4.075-0.326-6.167
				c0.458-1.337,1.976-3.764,3.139-1.572c-2.612,1.626,4.553,2.996,2.386-0.968c-1.985-3.633-5.435-1.703-6.667,0.774
				c-0.204-0.673-0.57-0.942-0.69-1.633c-0.808,1.05-0.865,2.494-0.372,3.662c-0.275-0.301-0.876-0.611-1.197-1.01
				c-1.532,3.31,2.434,7.099,0.825,10.391c0.931-0.843,1.701-1.895,1.661-3.096c0.441,3.364-1.893,7.267-5.086,8.74L184.505,34.692z
				"/>
			
				<linearGradient id="SVGID_24_" gradientUnits="userSpaceOnUse" x1="138.2396" y1="-263.3164" x2="141.6287" y2="-263.3164" gradientTransform="matrix(2.9325 0 0 2.768 -226.3437 757.5747)">
				<stop  offset="0" style="stop-color:#1B75BC"/>
				<stop  offset="0.2086" style="stop-color:#0093D6"/>
				<stop  offset="0.3917" style="stop-color:#00AEEF"/>
				<stop  offset="0.5858" style="stop-color:#00AEEF"/>
				<stop  offset="0.6166" style="stop-color:#00A8E9"/>
				<stop  offset="0.798" style="stop-color:#008ED1"/>
				<stop  offset="0.9308" style="stop-color:#007CC2"/>
				<stop  offset="1" style="stop-color:#1B75BC"/>
			</linearGradient>
			<path fill="url(#SVGID_24_)" d="M184.843,33.644c0.747-0.708,4.889-3.655,4.03-6.586c-0.759-2.587-3.935-4.675-6.621-3.953
				c-2.532,0.678-4.356,3.452-2.337,5.568c2.277,2.394,4.868-1.092,2.13-2.027c-0.135,0.434-0.513,0.785-0.452,1.351
				c-2.823,0.373-0.936-3.225,0.441-3.868c1.644-0.774,3.961-0.148,5.135,1.213c1.343,1.548,0.974,4.474-0.421,5.961
				c-1.644,1.755-1.309,1.21-3.047,3.173C183.7,34.477,184.092,34.354,184.843,33.644z"/>
			
				<linearGradient id="SVGID_25_" gradientUnits="userSpaceOnUse" x1="139.1168" y1="-266.4534" x2="141.2363" y2="-266.4534" gradientTransform="matrix(2.9325 0 0 2.768 -226.3437 757.5747)">
				<stop  offset="0" style="stop-color:#1B75BC"/>
				<stop  offset="0.2086" style="stop-color:#0093D6"/>
				<stop  offset="0.3917" style="stop-color:#00AEEF"/>
				<stop  offset="0.5858" style="stop-color:#00AEEF"/>
				<stop  offset="0.6166" style="stop-color:#00A8E9"/>
				<stop  offset="0.798" style="stop-color:#008ED1"/>
				<stop  offset="0.9308" style="stop-color:#007CC2"/>
				<stop  offset="1" style="stop-color:#1B75BC"/>
			</linearGradient>
			<path fill="url(#SVGID_25_)" d="M187.838,23.346c-1.337-1.934-3.52-1-5.123-2.383c-1.22-1.053-1.137-2.823-1.045-4.237
				c2.409,0.719,4.579,2.274,5.467,4.497c-0.877-0.518-1.799-1.015-2.844-1c0.822,0.235,2.566,1.384,2.921,2.538L187.838,23.346z"/>
			
				<linearGradient id="SVGID_26_" gradientUnits="userSpaceOnUse" x1="140.1734" y1="-268.3933" x2="141.4382" y2="-268.3933" gradientTransform="matrix(2.9325 0 0 2.768 -226.3437 757.5747)">
				<stop  offset="0" style="stop-color:#1B75BC"/>
				<stop  offset="0.2086" style="stop-color:#0093D6"/>
				<stop  offset="0.3917" style="stop-color:#00AEEF"/>
				<stop  offset="0.5858" style="stop-color:#00AEEF"/>
				<stop  offset="0.6166" style="stop-color:#00A8E9"/>
				<stop  offset="0.798" style="stop-color:#008ED1"/>
				<stop  offset="0.9308" style="stop-color:#007CC2"/>
				<stop  offset="1" style="stop-color:#1B75BC"/>
			</linearGradient>
			<path fill="url(#SVGID_26_)" d="M187.632,18.464c-0.008-1.796,1.183-2.856,0.67-4.691c-0.292-1.03-1.054-1.965-1.555-2.904
				c-3.471,1.602-1.873,5.365,0.269,7.331c-0.011-0.995,0-1.991-0.014-2.988c0.644,0.584,0.724,1.695,0.63,2.082V18.464z"/>
			
				<linearGradient id="SVGID_27_" gradientUnits="userSpaceOnUse" x1="142.0403" y1="-269.4168" x2="143.0747" y2="-269.4168" gradientTransform="matrix(2.9325 0 0 2.768 -226.3437 757.5747)">
				<stop  offset="0" style="stop-color:#1B75BC"/>
				<stop  offset="0.2086" style="stop-color:#0093D6"/>
				<stop  offset="0.3917" style="stop-color:#00AEEF"/>
				<stop  offset="0.5858" style="stop-color:#00AEEF"/>
				<stop  offset="0.6166" style="stop-color:#00A8E9"/>
				<stop  offset="0.798" style="stop-color:#008ED1"/>
				<stop  offset="0.9308" style="stop-color:#007CC2"/>
				<stop  offset="1" style="stop-color:#1B75BC"/>
			</linearGradient>
			<path fill="url(#SVGID_27_)" d="M190.943,15.143c0.962-0.952,2.182-2.529,2.28-3.906c0.086-1.245-0.642-1.807-0.874-2.909
				c-2.388,1.603-2.274,4.022-2.03,6.456c0.129-0.502,0.705-1.784,1.418-2.345c-0.152,0.956-0.235,2.004-0.793,2.898V15.143z"/>
		</g>
	</g>
	<linearGradient id="SVGID_28_" gradientUnits="userSpaceOnUse" x1="17.3869" y1="62.7023" x2="322.5634" y2="62.7023">
		<stop  offset="0" style="stop-color:#1B75BC"/>
		<stop  offset="0.2086" style="stop-color:#0093D6"/>
		<stop  offset="0.3917" style="stop-color:#00AEEF"/>
		<stop  offset="0.5858" style="stop-color:#00AEEF"/>
		<stop  offset="0.6166" style="stop-color:#00A8E9"/>
		<stop  offset="0.798" style="stop-color:#008ED1"/>
		<stop  offset="0.9308" style="stop-color:#007CC2"/>
		<stop  offset="1" style="stop-color:#1B75BC"/>
	</linearGradient>
	<rect x="17.387" y="62.58" fill="url(#SVGID_28_)" width="305.176" height="0.245"/>
</g>
</svg>
