<?xml version="1.0" encoding="utf-8"?>
<!-- Generator: Adobe Illustrator 21.0.0, SVG Export Plug-In . SVG Version: 6.00 Build 0)  -->
<svg version="1.1" id="Layer_1" xmlns="http://www.w3.org/2000/svg" xmlns:xlink="http://www.w3.org/1999/xlink" x="0px" y="0px"
	 viewBox="0 0 450 200" enable-background="new 0 0 450 200" xml:space="preserve">
<g>
	<g>
		
			<linearGradient id="SVGID_1_" gradientUnits="userSpaceOnUse" x1="562.1375" y1="-15.0406" x2="657.9832" y2="-15.0406" gradientTransform="matrix(4.6083 0 0 -6.9198 -2585.8721 3.3627)">
			<stop  offset="0" style="stop-color:#1B75BC"/>
			<stop  offset="0.2086" style="stop-color:#0093D6"/>
			<stop  offset="0.3917" style="stop-color:#00AEEF"/>
			<stop  offset="0.5858" style="stop-color:#00AEEF"/>
			<stop  offset="0.6166" style="stop-color:#00A8E9"/>
			<stop  offset="0.798" style="stop-color:#008ED1"/>
			<stop  offset="0.9308" style="stop-color:#007CC2"/>
			<stop  offset="1" style="stop-color:#1B75BC"/>
		</linearGradient>
		<path fill="url(#SVGID_1_)" d="M411.639,179.328H39.337c-19.131,0-34.693-23.374-34.693-52.08v-39.6
			c0-28.72,15.562-52.094,34.693-52.094h135.428c-0.081,2.027,0.121,3.865,0.581,5.487H39.337
			c-17.119,0-31.048,20.907-31.048,46.607v39.6c0,25.699,13.928,46.594,31.048,46.594h372.302c17.11,0,31.034-20.895,31.034-46.594
			v-39.6c0-25.699-13.924-46.607-31.034-46.607H276.197c0.081-2.034-0.112-3.865-0.571-5.487h136.013
			c19.131,0,34.693,23.374,34.693,52.094v39.6C446.332,155.954,430.77,179.328,411.639,179.328z"/>
	</g>
	<g>
		<g>
			
				<linearGradient id="SVGID_2_" gradientUnits="userSpaceOnUse" x1="620.3223" y1="-18.2228" x2="631.0254" y2="-18.2228" gradientTransform="matrix(5.5455 0 0 -3.5695 -3272.2151 -32.2325)">
				<stop  offset="0" style="stop-color:#1B75BC"/>
				<stop  offset="0.2086" style="stop-color:#0093D6"/>
				<stop  offset="0.3917" style="stop-color:#00AEEF"/>
				<stop  offset="0.5858" style="stop-color:#00AEEF"/>
				<stop  offset="0.6166" style="stop-color:#00A8E9"/>
				<stop  offset="0.798" style="stop-color:#008ED1"/>
				<stop  offset="0.9308" style="stop-color:#007CC2"/>
				<stop  offset="1" style="stop-color:#1B75BC"/>
			</linearGradient>
			<path fill="url(#SVGID_2_)" d="M227.129,23.179c-6.331-2.907-16.041-0.711-19.772,3.294c-4.062,4.361-3.287,8.865-10.127,12.25
				c-4.566,2.248-13.149,4.207-17.579,0.593c-4.05-3.298,1.246-8.369,7.528-6.582c-0.824-1.638-2.962-2.586-5.502-2.116
				c-0.135-0.157-0.352-0.237-0.677-0.237c1.338-0.708,5.367-1.597,8.042-0.858c-5.08-5.922-19.875,0.471-21.109,5.26
				c-1.82,7.128,12.58,9.635,21.212,8.865c8.67-0.791,15.846-4.239,18.028-9.646c2.459-6.09,4.658-11.622,16.214-11.346
				L227.129,23.179z"/>
			
				<linearGradient id="SVGID_3_" gradientUnits="userSpaceOnUse" x1="625.6255" y1="-19.9352" x2="630.3506" y2="-19.9352" gradientTransform="matrix(5.5455 0 0 -3.5695 -3272.2151 -32.2325)">
				<stop  offset="0" style="stop-color:#1B75BC"/>
				<stop  offset="0.2086" style="stop-color:#0093D6"/>
				<stop  offset="0.3917" style="stop-color:#00AEEF"/>
				<stop  offset="0.5858" style="stop-color:#00AEEF"/>
				<stop  offset="0.6166" style="stop-color:#00A8E9"/>
				<stop  offset="0.798" style="stop-color:#008ED1"/>
				<stop  offset="0.9308" style="stop-color:#007CC2"/>
				<stop  offset="1" style="stop-color:#1B75BC"/>
			</linearGradient>
			<path fill="url(#SVGID_3_)" d="M223.387,25.183c-10.544-0.213-15.012,7.122-14.947,12.831c0.049,2.928,2.123,5.563,0.672,8.432
				c-0.937,1.83-3.964,5.152-6.309,2.158c5.253-2.227-9.136-4.106-4.787,1.325c3.986,4.964,10.901,2.325,13.381-1.059
				c0.401,0.917,1.137,1.283,1.376,2.227c1.619-1.426,1.755-3.413,0.748-5.009c0.557,0.415,1.755,0.844,2.399,1.377
				c3.087-4.521-4.874-9.708-1.646-14.212c-1.874,1.157-3.407,2.597-3.336,4.232c-0.866-4.601,3.802-9.942,10.214-11.957
				L223.387,25.183z"/>
			
				<linearGradient id="SVGID_4_" gradientUnits="userSpaceOnUse" x1="628.7308" y1="-18.375" x2="632.3272" y2="-18.375" gradientTransform="matrix(5.5455 0 0 -3.5695 -3272.2151 -32.2325)">
				<stop  offset="0" style="stop-color:#1B75BC"/>
				<stop  offset="0.2086" style="stop-color:#0093D6"/>
				<stop  offset="0.3917" style="stop-color:#00AEEF"/>
				<stop  offset="0.5858" style="stop-color:#00AEEF"/>
				<stop  offset="0.6166" style="stop-color:#00A8E9"/>
				<stop  offset="0.798" style="stop-color:#008ED1"/>
				<stop  offset="0.9308" style="stop-color:#007CC2"/>
				<stop  offset="1" style="stop-color:#1B75BC"/>
			</linearGradient>
			<path fill="url(#SVGID_4_)" d="M222.726,26.612c-1.511,0.973-9.818,5.002-8.085,9.015c1.522,3.538,7.891,6.4,13.284,5.417
				c5.08-0.938,8.741-4.724,4.69-7.627c-4.571-3.273-9.781,1.492-4.278,2.775c0.266-0.589,1.029-1.07,0.904-1.858
				c5.665-0.495,1.89,4.417-0.877,5.302c-3.303,1.056-7.956,0.195-10.316-1.659c-2.681-2.12-1.95-6.125,0.839-8.16
				c3.309-2.402,2.632-1.659,6.131-4.34C225.016,25.476,224.231,25.643,222.726,26.612z"/>
			
				<linearGradient id="SVGID_5_" gradientUnits="userSpaceOnUse" x1="629.1474" y1="-21.7025" x2="631.3959" y2="-21.7025" gradientTransform="matrix(5.5455 0 0 -3.5695 -3272.2151 -32.2325)">
				<stop  offset="0" style="stop-color:#1B75BC"/>
				<stop  offset="0.2086" style="stop-color:#0093D6"/>
				<stop  offset="0.3917" style="stop-color:#00AEEF"/>
				<stop  offset="0.5858" style="stop-color:#00AEEF"/>
				<stop  offset="0.6166" style="stop-color:#00A8E9"/>
				<stop  offset="0.798" style="stop-color:#008ED1"/>
				<stop  offset="0.9308" style="stop-color:#007CC2"/>
				<stop  offset="1" style="stop-color:#1B75BC"/>
			</linearGradient>
			<path fill="url(#SVGID_5_)" d="M216.714,40.705c2.665,2.646,7.057,1.363,10.279,3.263c2.443,1.443,2.286,3.859,2.091,5.797
				c-4.82-0.986-9.185-3.109-10.972-6.149c1.765,0.711,3.617,1.384,5.719,1.366c-1.663-0.324-5.156-1.896-5.87-3.479L216.714,40.705
				z"/>
			
				<linearGradient id="SVGID_6_" gradientUnits="userSpaceOnUse" x1="628.9324" y1="-23.7616" x2="630.2737" y2="-23.7616" gradientTransform="matrix(5.5455 0 0 -3.5695 -3272.2151 -32.2325)">
				<stop  offset="0" style="stop-color:#1B75BC"/>
				<stop  offset="0.2086" style="stop-color:#0093D6"/>
				<stop  offset="0.3917" style="stop-color:#00AEEF"/>
				<stop  offset="0.5858" style="stop-color:#00AEEF"/>
				<stop  offset="0.6166" style="stop-color:#00A8E9"/>
				<stop  offset="0.798" style="stop-color:#008ED1"/>
				<stop  offset="0.9308" style="stop-color:#007CC2"/>
				<stop  offset="1" style="stop-color:#1B75BC"/>
			</linearGradient>
			<path fill="url(#SVGID_6_)" d="M217.131,47.384c0,2.458-2.377,3.911-1.354,6.421c0.585,1.415,2.117,2.688,3.108,3.981
				c6.975-2.196,3.769-7.345-0.531-10.036c0.038,1.363,0.006,2.726,0.038,4.089c-1.3-0.795-1.452-2.318-1.262-2.845V47.384z"/>
			
				<linearGradient id="SVGID_7_" gradientUnits="userSpaceOnUse" x1="627.1967" y1="-24.8471" x2="628.2925" y2="-24.8471" gradientTransform="matrix(5.5455 0 0 -3.5695 -3272.2151 -32.2325)">
				<stop  offset="0" style="stop-color:#1B75BC"/>
				<stop  offset="0.2086" style="stop-color:#0093D6"/>
				<stop  offset="0.3917" style="stop-color:#00AEEF"/>
				<stop  offset="0.5858" style="stop-color:#00AEEF"/>
				<stop  offset="0.6166" style="stop-color:#00A8E9"/>
				<stop  offset="0.798" style="stop-color:#008ED1"/>
				<stop  offset="0.9308" style="stop-color:#007CC2"/>
				<stop  offset="1" style="stop-color:#1B75BC"/>
			</linearGradient>
			<path fill="url(#SVGID_7_)" d="M210.481,51.93c-1.944,1.304-4.381,3.458-4.571,5.351c-0.174,1.698,1.283,2.468,1.755,3.978
				c4.787-2.196,4.555-5.504,4.056-8.837c-0.249,0.687-1.408,2.44-2.838,3.207c0.309-1.307,0.477-2.736,1.598-3.967V51.93z"/>
		</g>
		<g>
			
				<linearGradient id="SVGID_8_" gradientUnits="userSpaceOnUse" x1="631.6533" y1="-20.5503" x2="642.3558" y2="-20.5503" gradientTransform="matrix(5.5455 0 0 -3.5695 -3272.2151 -32.2325)">
				<stop  offset="0" style="stop-color:#1B75BC"/>
				<stop  offset="0.2086" style="stop-color:#0093D6"/>
				<stop  offset="0.3917" style="stop-color:#00AEEF"/>
				<stop  offset="0.5858" style="stop-color:#00AEEF"/>
				<stop  offset="0.6166" style="stop-color:#00A8E9"/>
				<stop  offset="0.798" style="stop-color:#008ED1"/>
				<stop  offset="0.9308" style="stop-color:#007CC2"/>
				<stop  offset="1" style="stop-color:#1B75BC"/>
			</linearGradient>
			<path fill="url(#SVGID_8_)" d="M230.611,50.759c6.331,2.903,16.03,0.711,19.766-3.298c4.067-4.361,3.287-8.868,10.133-12.249
				c4.555-2.248,13.154-4.204,17.579-0.6c4.051,3.301-1.246,8.38-7.533,6.585c0.834,1.649,2.968,2.583,5.508,2.123
				c0.135,0.153,0.363,0.233,0.666,0.233c-1.322,0.718-5.356,1.603-8.02,0.861c5.069,5.915,19.869-0.478,21.093-5.264
				c1.831-7.125-12.585-9.638-21.207-8.857c-8.665,0.784-15.846,4.228-18.023,9.638c-2.469,6.097-4.663,11.618-16.225,11.354
				L230.611,50.759z"/>
			
				<linearGradient id="SVGID_9_" gradientUnits="userSpaceOnUse" x1="632.3271" y1="-18.837" x2="637.0529" y2="-18.837" gradientTransform="matrix(5.5455 0 0 -3.5695 -3272.2151 -32.2325)">
				<stop  offset="0" style="stop-color:#1B75BC"/>
				<stop  offset="0.2086" style="stop-color:#0093D6"/>
				<stop  offset="0.3917" style="stop-color:#00AEEF"/>
				<stop  offset="0.5858" style="stop-color:#00AEEF"/>
				<stop  offset="0.6166" style="stop-color:#00A8E9"/>
				<stop  offset="0.798" style="stop-color:#008ED1"/>
				<stop  offset="0.9308" style="stop-color:#007CC2"/>
				<stop  offset="1" style="stop-color:#1B75BC"/>
			</linearGradient>
			<path fill="url(#SVGID_9_)" d="M234.347,48.748c10.56,0.22,15.017-7.111,14.947-12.821c-0.043-2.932-2.112-5.574-0.666-8.439
				c0.937-1.834,3.959-5.152,6.309-2.151c-5.258,2.224,9.131,4.099,4.787-1.328c-3.986-4.964-10.907-2.328-13.371,1.067
				c-0.417-0.924-1.143-1.293-1.381-2.238c-1.624,1.436-1.755,3.409-0.747,5.006c-0.563-0.415-1.76-0.833-2.405-1.377
				c-3.082,4.528,4.874,9.712,1.657,14.215c1.863-1.147,3.401-2.59,3.325-4.235c0.867,4.605-3.801,9.945-10.214,11.957
				L234.347,48.748z"/>
			
				<linearGradient id="SVGID_10_" gradientUnits="userSpaceOnUse" x1="630.3519" y1="-20.3986" x2="633.9479" y2="-20.3986" gradientTransform="matrix(5.5455 0 0 -3.5695 -3272.2151 -32.2325)">
				<stop  offset="0" style="stop-color:#1B75BC"/>
				<stop  offset="0.2086" style="stop-color:#0093D6"/>
				<stop  offset="0.3917" style="stop-color:#00AEEF"/>
				<stop  offset="0.5858" style="stop-color:#00AEEF"/>
				<stop  offset="0.6166" style="stop-color:#00A8E9"/>
				<stop  offset="0.798" style="stop-color:#008ED1"/>
				<stop  offset="0.9308" style="stop-color:#007CC2"/>
				<stop  offset="1" style="stop-color:#1B75BC"/>
			</linearGradient>
			<path fill="url(#SVGID_10_)" d="M235.019,47.322c1.506-0.969,9.813-5.006,8.08-9.018c-1.516-3.542-7.896-6.397-13.279-5.41
				c-5.074,0.934-8.741,4.73-4.7,7.623c4.576,3.273,9.78-1.495,4.289-2.768c-0.271,0.586-1.04,1.063-0.904,1.848
				c-5.67,0.505-1.884-4.413,0.872-5.295c3.303-1.056,7.956-0.206,10.317,1.652c2.681,2.123,1.944,6.128-0.84,8.164
				c-3.314,2.402-2.637,1.656-6.119,4.347C232.734,48.465,233.503,48.294,235.019,47.322z"/>
			
				<linearGradient id="SVGID_11_" gradientUnits="userSpaceOnUse" x1="631.2828" y1="-17.0692" x2="633.5312" y2="-17.0692" gradientTransform="matrix(5.5455 0 0 -3.5695 -3272.2151 -32.2325)">
				<stop  offset="0" style="stop-color:#1B75BC"/>
				<stop  offset="0.2086" style="stop-color:#0093D6"/>
				<stop  offset="0.3917" style="stop-color:#00AEEF"/>
				<stop  offset="0.5858" style="stop-color:#00AEEF"/>
				<stop  offset="0.6166" style="stop-color:#00A8E9"/>
				<stop  offset="0.798" style="stop-color:#008ED1"/>
				<stop  offset="0.9308" style="stop-color:#007CC2"/>
				<stop  offset="1" style="stop-color:#1B75BC"/>
			</linearGradient>
			<path fill="url(#SVGID_11_)" d="M241.025,33.225c-2.675-2.646-7.056-1.363-10.273-3.256c-2.448-1.44-2.291-3.866-2.096-5.8
				c4.826,0.99,9.191,3.117,10.967,6.153c-1.766-0.708-3.618-1.387-5.714-1.374c1.663,0.328,5.15,1.896,5.876,3.475L241.025,33.225z
				"/>
			
				<linearGradient id="SVGID_12_" gradientUnits="userSpaceOnUse" x1="632.4049" y1="-15.0102" x2="633.7465" y2="-15.0102" gradientTransform="matrix(5.5455 0 0 -3.5695 -3272.2151 -32.2325)">
				<stop  offset="0" style="stop-color:#1B75BC"/>
				<stop  offset="0.2086" style="stop-color:#0093D6"/>
				<stop  offset="0.3917" style="stop-color:#00AEEF"/>
				<stop  offset="0.5858" style="stop-color:#00AEEF"/>
				<stop  offset="0.6166" style="stop-color:#00A8E9"/>
				<stop  offset="0.798" style="stop-color:#008ED1"/>
				<stop  offset="0.9308" style="stop-color:#007CC2"/>
				<stop  offset="1" style="stop-color:#1B75BC"/>
			</linearGradient>
			<path fill="url(#SVGID_12_)" d="M240.613,26.546c-0.016-2.454,2.377-3.9,1.349-6.424c-0.585-1.398-2.112-2.68-3.109-3.974
				c-6.975,2.192-3.769,7.345,0.531,10.036c-0.032-1.363-0.016-2.722-0.038-4.082c1.294,0.788,1.457,2.315,1.267,2.838V26.546z"/>
			
				<linearGradient id="SVGID_13_" gradientUnits="userSpaceOnUse" x1="634.3858" y1="-13.9242" x2="635.483" y2="-13.9242" gradientTransform="matrix(5.5455 0 0 -3.5695 -3272.2151 -32.2325)">
				<stop  offset="0" style="stop-color:#1B75BC"/>
				<stop  offset="0.2086" style="stop-color:#0093D6"/>
				<stop  offset="0.3917" style="stop-color:#00AEEF"/>
				<stop  offset="0.5858" style="stop-color:#00AEEF"/>
				<stop  offset="0.6166" style="stop-color:#00A8E9"/>
				<stop  offset="0.798" style="stop-color:#008ED1"/>
				<stop  offset="0.9308" style="stop-color:#007CC2"/>
				<stop  offset="1" style="stop-color:#1B75BC"/>
			</linearGradient>
			<path fill="url(#SVGID_13_)" d="M247.253,22.004c1.944-1.307,4.386-3.461,4.581-5.348c0.174-1.697-1.278-2.471-1.76-3.984
				c-4.787,2.2-4.555,5.508-4.062,8.833c0.26-0.68,1.403-2.44,2.843-3.2c-0.308,1.307-0.482,2.74-1.603,3.963V22.004z"/>
		</g>
	</g>
</g>
</svg>
