<svg id="Layer_1" data-name="Layer 1" xmlns="http://www.w3.org/2000/svg" viewBox="0 0 300 53.6"><defs><style>.cls-14{fill:#333}</style><linearGradient id="linear-gradient" x1="123.25" y1="39.65" x2="123.25" y2="7.83" gradientTransform="matrix(1 0 0 -1 0 56)" gradientUnits="userSpaceOnUse"><stop offset=".01" stop-color="#ffe504"/><stop offset="1" stop-color="#fcb824"/></linearGradient><linearGradient id="linear-gradient-2" x1="73.61" y1="36.29" x2="104.8" y2="11.24" gradientTransform="matrix(1 0 0 -1 0 56)" gradientUnits="userSpaceOnUse"><stop offset=".01" stop-color="#198ccc"/><stop offset="1" stop-color="#01659e"/></linearGradient><linearGradient id="linear-gradient-3" x1="55.65" y1="35.41" x2="55.65" y2="7.53" gradientTransform="matrix(1 0 0 -1 0 56)" gradientUnits="userSpaceOnUse"><stop offset="0" stop-color="#28a149"/><stop offset="1" stop-color="#008b53"/></linearGradient><linearGradient id="linear-gradient-4" x1="15.19" y1="38.14" x2="19.99" y2="9.2" gradientTransform="matrix(1 0 0 -1 0 56)" gradientUnits="userSpaceOnUse"><stop offset="0" stop-color="#d92432"/><stop offset="1" stop-color="#ba2335"/></linearGradient></defs><path fill="#e79224" d="M143.4 10.6v34l-4.6 4.6-.1-33.3 4.7-5.3z"/><path fill="url(#linear-gradient)" d="M107.7 15.9h31.1v33.3h-31.1z"/><path fill="#fef26f" d="M112.5 10.6l-4.8 5.3h31.1l4.6-5.3h-30.9z"/><path fill="#92c9ed" d="M74 12l30.6-4.2-2.5 7.3-29 4.6.1-5.2.8-2.5z"/><path fill="url(#linear-gradient-2)" d="M102.1 15.1l4.2 29.9-30.2 4.2-4-28.9 1.7-1.3 28.3-3.9z"/><path fill="#109ad7" d="M104.6 7.8V8l4 30.5-2.3 6.5-4.2-29.9"/><path fill="url(#linear-gradient-3)" d="M48.2 9.5l27.1 12.2L63 49.5 36 37.2 48.2 9.5z"/><path fill="#98d1a1" d="M45.4 0l2.8 9.5 27.1 12.2-2.3-9.1L45.4 0z"/><path fill="#68bf6c" d="M45.4 0L34.5 25.9 36 37.2 48.2 9.5 45.4 0z"/><path fill="url(#linear-gradient-4)" d="M30.3 15.1l4.4 29.3-29.9 4.7L0 19.7l30.3-4.6z"/><path fill="#ef473e" d="M0 19.7L2.1 9.2l30.2-4.8-2 10.7L0 19.7z"/><path fill="#771117" d="M32.3 4.4L36.7 34l-2 10.4-4.4-29.3 2-10.7z"/><path d="M134 27.9a13.67 13.67 0 0 0-2.7-4.2 11.42 11.42 0 0 0-3.9-2.7 11.79 11.79 0 0 0-4.6-.9 12.29 12.29 0 0 0-4.7.9 12.46 12.46 0 0 0-3.9 2.7 12.18 12.18 0 0 0-2.7 4.1 13.64 13.64 0 0 0-.9 5.1 13.48 13.48 0 0 0 .9 5 11.66 11.66 0 0 0 2.7 4.2 10.76 10.76 0 0 0 3.8 2.6 11.93 11.93 0 0 0 4.7.9 11.44 11.44 0 0 0 4.6-.9 14 14 0 0 0 3.9-2.6 11.66 11.66 0 0 0 2.7-4.2 14 14 0 0 0 .9-5.1 11.5 11.5 0 0 0-.8-4.9zm-6.4 10.9a6.15 6.15 0 0 1-4.9 2.2 6.07 6.07 0 0 1-4.9-2.1A8.85 8.85 0 0 1 116 33a9 9 0 0 1 1.8-6 6.15 6.15 0 0 1 4.9-2.2 5.86 5.86 0 0 1 4.9 2.2 9 9 0 0 1 1.8 6 8.75 8.75 0 0 1-1.8 5.8zM20 32.1zm7.1 7.7a1.8 1.8 0 0 0-.9-.6 5.9 5.9 0 0 0-1.4-.2 14.05 14.05 0 0 0-1.8.2l-7.9 1.4a9.19 9.19 0 0 1 .9-2.4 37.4 37.4 0 0 1 2.6-3.9q.6-.75.9-1.2a5.55 5.55 0 0 0 .6-.8 22.16 22.16 0 0 0 3.4-5.8 11.71 11.71 0 0 0 .4-2.6v-.7a11 11 0 0 0-.2-1.8 4.67 4.67 0 0 0-.4-1.4 1.85 1.85 0 0 0-.7-.8 2.65 2.65 0 0 0-1.4-.3 14.05 14.05 0 0 0-1.8.2l-9.1 1.6a4.47 4.47 0 0 0-2.4 1 2 2 0 0 0-.6 1.5v.5a1.86 1.86 0 0 0 1.2 1.6 2.9 2.9 0 0 0 1.4.3 4.87 4.87 0 0 0 1.2-.1l7.6-1.3v.4a6.75 6.75 0 0 1-.2 1.4 12 12 0 0 1-1.7 2.7c-.3.3-.6.8-1.2 1.5a33.56 33.56 0 0 0-4.4 6.4 13 13 0 0 0-1.3 3.6 15 15 0 0 0-.2 2 5.9 5.9 0 0 0 .6 2.8 2.36 2.36 0 0 0 .8.9 2.36 2.36 0 0 0 1.3.2 21.12 21.12 0 0 0 3.1-.3l8.3-1.4a7.23 7.23 0 0 0 3.1-1.1 1.86 1.86 0 0 0 .7-1.6v-.5a3.4 3.4 0 0 0-.5-1.4zm37.5-19.9a11.6 11.6 0 0 0-3.9-2.6 12.27 12.27 0 0 0-4.6-1H56a12.27 12.27 0 0 0-4.6 1 12.19 12.19 0 0 0-4.1 2.9 14.55 14.55 0 0 0-2.9 4.5 15.75 15.75 0 0 0-1.2 5.2v.6A14.23 14.23 0 0 0 44 35a13.31 13.31 0 0 0 2.4 4 12.8 12.8 0 0 0 4 2.7 10.35 10.35 0 0 0 4.5.9 10.92 10.92 0 0 0 4.6-1 13.71 13.71 0 0 0 4.2-2.9 14.55 14.55 0 0 0 2.9-4.5 15.75 15.75 0 0 0 1.2-5.2v-.5A14.23 14.23 0 0 0 67 24a9.91 9.91 0 0 0-2.4-4.1zM61.7 32a9.91 9.91 0 0 1-4 5 5.55 5.55 0 0 1-2.8.7 5.73 5.73 0 0 1-2.5-.6 5.82 5.82 0 0 1-3.6-3.9 6.28 6.28 0 0 1-.3-1.9 11.07 11.07 0 0 1 1-4.4 9.82 9.82 0 0 1 4.1-5.1 5.55 5.55 0 0 1 2.8-.7 6.51 6.51 0 0 1 2.6.6 5.8 5.8 0 0 1 3.8 5.8 14.65 14.65 0 0 1-1.1 4.5zm35.2-11.2a3.47 3.47 0 0 0-1-2.1 2 2 0 0 0-1.5-.6h-.5a2.1 2.1 0 0 0-1.7 1.1 2.73 2.73 0 0 0-.4 1.6 1.7 1.7 0 0 0 .1.7l1.1 7.8-8.7 1.3-1.1-7.8a3 3 0 0 0-1-2.1 2 2 0 0 0-1.5-.6h-.4a2.45 2.45 0 0 0-1.8 1.1 2.54 2.54 0 0 0-.4 1.6 1.7 1.7 0 0 0 .1.7l3 20.2a3.47 3.47 0 0 0 1 2.1 2 2 0 0 0 1.5.5h.5a2.45 2.45 0 0 0 1.7-1.1 3.31 3.31 0 0 0 .4-1.5 1.7 1.7 0 0 0-.1-.7L85 35l8.7-1.3 1.2 8a3.47 3.47 0 0 0 1 2.1 2 2 0 0 0 1.5.6h.5a2.1 2.1 0 0 0 1.7-1.1 2.41 2.41 0 0 0 .4-1.5 1.7 1.7 0 0 0-.1-.7z" fill="#fff"/><path class="cls-14" d="M155.6 36.4l5.9-1.3c.7 3.4 3.4 5.1 8.2 5.1a8 8 0 0 0 5-1.3 3.84 3.84 0 0 0 1.8-3.2 5 5 0 0 0-.8-2.6c-.5-.8-1.7-1.4-3.4-1.9l-6.5-1.7a14.43 14.43 0 0 1-4.9-2 7 7 0 0 1-2.5-3.1 10.43 10.43 0 0 1-1-4.3 8.83 8.83 0 0 1 3.4-7.3 13.4 13.4 0 0 1 8.6-2.7 15.54 15.54 0 0 1 7.8 1.9 8.65 8.65 0 0 1 4.4 5.4l-5.8 1.4q-1.35-3.9-6.3-3.9a7 7 0 0 0-4.4 1.2 3.69 3.69 0 0 0-1.5 3c0 1.9 1.6 3.3 4.7 4.1l5.8 1.4c3.5.9 5.8 2.2 7 3.9a9.65 9.65 0 0 1 1.8 5.7 9.49 9.49 0 0 1-3.8 7.9 15.75 15.75 0 0 1-9.7 2.9 17.63 17.63 0 0 1-8.8-2.1 10.15 10.15 0 0 1-5-6.5zM208.5 44.6h-5.3v-5.4c-1.4 4-4.1 5.9-7.9 5.9a7 7 0 0 1-5.4-2.1 8.42 8.42 0 0 1-2-5.9V19.4h5.8v16.4q0 2.7 1.2 3.6a3.77 3.77 0 0 0 2.3.8 5.68 5.68 0 0 0 3.7-1.7c1.3-1.1 1.9-3.5 1.9-7.1v-12h5.7zM221 44.6h-5.7V19.4h5.1v6a10.49 10.49 0 0 1 3-5.1 6 6 0 0 1 3.9-1.6h.7v6.1c-2.9 0-4.8.9-5.7 2.8a12 12 0 0 0-1.4 5.3v11.7zM252.3 19.4l-8.5 25.1h-4.7l-8.7-25.1h5.9l5.9 17 5.7-17zM271.5 36.5l5.1.7a11 11 0 0 1-3.9 5.6 11.24 11.24 0 0 1-7.2 2.2 10.86 10.86 0 0 1-8.4-3.5c-2.1-2.3-3.2-5.5-3.2-9.5a14.08 14.08 0 0 1 3.2-9.4 10.71 10.71 0 0 1 8.7-3.7 9.92 9.92 0 0 1 8.3 3.7c2 2.5 2.9 5.6 2.9 9.5v.6h-17.2a14.73 14.73 0 0 0 .5 4.1 6.1 6.1 0 0 0 1.9 2.7 6.14 6.14 0 0 0 9.3-3zm-.4-7.5a6.4 6.4 0 0 0-1.6-4.4 5.44 5.44 0 0 0-4-1.7 5 5 0 0 0-3.9 1.6 7.1 7.1 0 0 0-1.8 4.5zM300 19.4L290.2 48a10.12 10.12 0 0 1-2.4 4.1 6 6 0 0 1-4.4 1.5c-.7 0-1.8-.1-3.3-.2v-4.5l2.7.1a3.52 3.52 0 0 0 4-2.7c.3-1 .5-1.6.5-1.7s-.2-.6-.5-1.5l-8.6-23.6h5.9l6.1 16.6 5.2-16.6h4.6z"/></svg>